<svg width="1440" height="1024" viewBox="0 0 1440 1024" fill="none" xmlns="http://www.w3.org/2000/svg">
<rect width="1440" height="1024" fill="white"/>
<rect x="431" y="202" width="868" height="536" fill="white"/>
<path d="M836.974 385.476C836.974 376.632 844.144 369.462 852.988 369.462H881.7C884.886 369.462 887.941 370.727 890.193 372.98L913.528 396.315C915.781 398.567 917.046 401.622 917.046 404.807V465.549C917.046 474.393 909.876 481.563 901.032 481.563H874.312C877.54 479.29 880.449 476.594 882.958 473.556H901.032C905.454 473.556 909.039 469.971 909.039 465.549V409.498H889.021C882.387 409.498 877.01 404.121 877.01 397.487V377.469H852.988C848.566 377.469 844.981 381.054 844.981 385.476V401.67C842.231 401.918 839.554 402.419 836.974 403.149V385.476ZM889.021 401.491H907.38L885.017 379.127V397.487C885.017 399.698 886.81 401.491 889.021 401.491ZM848.985 481.563C868.885 481.563 885.017 465.431 885.017 445.531C885.017 425.63 868.885 409.498 848.985 409.498C829.084 409.498 812.952 425.63 812.952 445.531C812.952 465.431 829.084 481.563 848.985 481.563ZM867.83 442.7C869.394 444.263 869.394 446.798 867.83 448.361C866.267 449.925 863.732 449.925 862.168 448.361L852.988 439.182V461.545C852.988 463.756 851.196 465.549 848.985 465.549C846.774 465.549 844.981 463.756 844.981 461.545L844.981 439.182L835.801 448.361C834.238 449.925 831.703 449.925 830.139 448.361C828.576 446.798 828.576 444.263 830.139 442.7L846.154 426.685C846.538 426.301 846.98 426.012 847.452 425.816C847.917 425.623 848.427 425.516 848.961 425.513L848.985 425.512L849.009 425.513C849.543 425.516 850.052 425.623 850.517 425.816C850.982 426.009 851.419 426.293 851.799 426.668L851.819 426.688L867.83 442.7Z" fill="#372092"/>
<path d="M760.299 549.688V531.182H767.637C768.888 531.182 769.912 531.435 770.709 531.94C771.514 532.437 772.109 533.075 772.495 533.855C772.889 534.635 773.086 535.44 773.086 536.271C773.086 537.29 772.842 538.156 772.353 538.867C771.874 539.578 771.218 540.058 770.387 540.306V539.664C771.552 539.929 772.435 540.482 773.035 541.321C773.643 542.161 773.947 543.116 773.947 544.187C773.947 545.284 773.737 546.243 773.317 547.066C772.898 547.888 772.272 548.531 771.441 548.994C770.619 549.456 769.599 549.688 768.382 549.688H760.299ZM763.435 546.77H767.997C768.537 546.77 769.021 546.663 769.449 546.449C769.878 546.226 770.212 545.918 770.452 545.524C770.7 545.121 770.824 544.646 770.824 544.097C770.824 543.6 770.717 543.155 770.503 542.761C770.289 542.367 769.976 542.054 769.565 541.823C769.154 541.583 768.661 541.463 768.087 541.463H763.435V546.77ZM763.435 538.571H767.599C768.044 538.571 768.442 538.486 768.794 538.314C769.145 538.143 769.423 537.89 769.629 537.556C769.835 537.222 769.937 536.811 769.937 536.322C769.937 535.68 769.732 535.144 769.321 534.716C768.909 534.288 768.335 534.073 767.599 534.073H763.435V538.571ZM776.514 549.688V535.808H779.251V539.188L778.917 538.751C779.088 538.289 779.315 537.869 779.598 537.492C779.889 537.106 780.236 536.789 780.639 536.541C780.982 536.31 781.358 536.13 781.77 536.001C782.19 535.864 782.618 535.783 783.055 535.757C783.492 535.723 783.916 535.74 784.327 535.808V538.7C783.916 538.58 783.44 538.541 782.901 538.584C782.369 538.627 781.89 538.777 781.461 539.034C781.033 539.265 780.682 539.561 780.408 539.921C780.142 540.28 779.945 540.692 779.816 541.154C779.688 541.608 779.624 542.101 779.624 542.632V549.688H776.514ZM792.658 550.073C791.27 550.073 790.058 549.76 789.022 549.135C787.985 548.509 787.18 547.648 786.606 546.552C786.04 545.447 785.757 544.179 785.757 542.748C785.757 541.291 786.049 540.015 786.631 538.918C787.214 537.822 788.023 536.965 789.06 536.348C790.097 535.731 791.296 535.423 792.658 535.423C794.055 535.423 795.271 535.735 796.308 536.361C797.345 536.986 798.15 537.852 798.724 538.957C799.298 540.053 799.585 541.317 799.585 542.748C799.585 544.187 799.294 545.459 798.711 546.565C798.137 547.661 797.332 548.522 796.295 549.148C795.259 549.765 794.046 550.073 792.658 550.073ZM792.658 547.169C793.892 547.169 794.809 546.757 795.409 545.935C796.008 545.113 796.308 544.05 796.308 542.748C796.308 541.403 796.004 540.332 795.396 539.535C794.787 538.73 793.875 538.327 792.658 538.327C791.827 538.327 791.142 538.516 790.602 538.893C790.071 539.261 789.677 539.779 789.42 540.448C789.163 541.107 789.034 541.874 789.034 542.748C789.034 544.093 789.339 545.168 789.947 545.974C790.564 546.77 791.468 547.169 792.658 547.169ZM804.87 549.688L800.63 535.783L803.662 535.808L806.374 544.714L809.124 535.808H811.733L814.47 544.714L817.195 535.808H820.227L815.987 549.688H813.571L810.422 540.139L807.286 549.688H804.87ZM827.404 550.073C825.69 550.073 824.298 549.688 823.227 548.916C822.156 548.145 821.505 547.062 821.274 545.665L824.435 545.177C824.598 545.862 824.958 546.402 825.514 546.796C826.071 547.19 826.774 547.387 827.622 547.387C828.367 547.387 828.941 547.242 829.344 546.95C829.755 546.65 829.961 546.243 829.961 545.729C829.961 545.412 829.884 545.16 829.73 544.971C829.584 544.774 829.258 544.586 828.753 544.406C828.247 544.226 827.472 543.999 826.427 543.725C825.262 543.416 824.336 543.086 823.651 542.735C822.966 542.375 822.473 541.951 822.173 541.463C821.873 540.974 821.723 540.383 821.723 539.689C821.723 538.824 821.95 538.07 822.404 537.428C822.859 536.785 823.493 536.292 824.306 535.95C825.12 535.598 826.08 535.423 827.185 535.423C828.265 535.423 829.22 535.59 830.051 535.924C830.89 536.258 831.567 536.734 832.081 537.35C832.595 537.967 832.912 538.691 833.032 539.522L829.871 540.088C829.794 539.497 829.524 539.03 829.061 538.687C828.607 538.344 827.999 538.151 827.236 538.109C826.508 538.066 825.921 538.177 825.476 538.443C825.03 538.7 824.808 539.064 824.808 539.535C824.808 539.801 824.898 540.028 825.078 540.216C825.257 540.405 825.617 540.593 826.157 540.782C826.705 540.97 827.519 541.201 828.599 541.476C829.704 541.758 830.586 542.084 831.246 542.452C831.914 542.812 832.394 543.245 832.685 543.75C832.985 544.256 833.135 544.868 833.135 545.588C833.135 546.984 832.625 548.081 831.606 548.878C830.595 549.675 829.194 550.073 827.404 550.073ZM842.26 550.073C840.855 550.073 839.621 549.769 838.559 549.161C837.496 548.552 836.665 547.708 836.066 546.629C835.474 545.549 835.179 544.307 835.179 542.902C835.179 541.386 835.47 540.071 836.053 538.957C836.635 537.835 837.445 536.965 838.482 536.348C839.518 535.731 840.718 535.423 842.08 535.423C843.519 535.423 844.74 535.761 845.742 536.438C846.753 537.106 847.503 538.053 847.991 539.278C848.48 540.503 848.664 541.947 848.544 543.609H845.473V542.478C845.464 540.97 845.198 539.869 844.676 539.175C844.153 538.481 843.331 538.134 842.208 538.134C840.94 538.134 839.998 538.528 839.381 539.317C838.764 540.096 838.456 541.24 838.456 542.748C838.456 544.153 838.764 545.241 839.381 546.012C839.998 546.783 840.898 547.169 842.08 547.169C842.842 547.169 843.498 547.002 844.046 546.667C844.603 546.325 845.031 545.832 845.331 545.19L848.39 546.115C847.859 547.366 847.036 548.338 845.922 549.032C844.817 549.726 843.596 550.073 842.26 550.073ZM837.479 543.609V541.27H847.028V543.609H837.479Z" fill="#F55353"/>
<path d="M857.765 549.688V535.59C857.765 535.239 857.778 534.853 857.803 534.433C857.829 534.005 857.902 533.581 858.022 533.161C858.142 532.741 858.36 532.36 858.677 532.017C859.071 531.58 859.495 531.28 859.95 531.118C860.412 530.946 860.866 530.852 861.312 530.835C861.757 530.809 862.147 530.796 862.481 530.796H864.216V533.315H862.61C862.019 533.315 861.577 533.465 861.286 533.765C861.003 534.056 860.862 534.442 860.862 534.922V549.688H857.765ZM855.529 538.237V535.808H864.216V538.237H855.529ZM866.915 533.701V530.861H870.012V533.701H866.915ZM866.915 549.688V535.808H870.012V549.688H866.915ZM874.133 549.688V530.796H877.23V549.688H874.133ZM887.389 550.073C885.984 550.073 884.751 549.769 883.688 549.161C882.626 548.552 881.795 547.708 881.195 546.629C880.604 545.549 880.308 544.307 880.308 542.902C880.308 541.386 880.6 540.071 881.182 538.957C881.765 537.835 882.574 536.965 883.611 536.348C884.648 535.731 885.847 535.423 887.209 535.423C888.649 535.423 889.87 535.761 890.872 536.438C891.883 537.106 892.633 538.053 893.121 539.278C893.609 540.503 893.793 541.947 893.673 543.609H890.602V542.478C890.593 540.97 890.328 539.869 889.805 539.175C889.283 538.481 888.46 538.134 887.338 538.134C886.07 538.134 885.127 538.528 884.511 539.317C883.894 540.096 883.585 541.24 883.585 542.748C883.585 544.153 883.894 545.241 884.511 546.012C885.127 546.783 886.027 547.169 887.209 547.169C887.972 547.169 888.627 547.002 889.176 546.667C889.732 546.325 890.161 545.832 890.461 545.19L893.519 546.115C892.988 547.366 892.166 548.338 891.052 549.032C889.947 549.726 888.726 550.073 887.389 550.073ZM882.609 543.609V541.27H892.157V543.609H882.609ZM901.9 550.073C900.186 550.073 898.794 549.688 897.723 548.916C896.652 548.145 896.001 547.062 895.77 545.665L898.931 545.177C899.094 545.862 899.454 546.402 900.011 546.796C900.568 547.19 901.27 547.387 902.118 547.387C902.864 547.387 903.438 547.242 903.84 546.95C904.252 546.65 904.457 546.243 904.457 545.729C904.457 545.412 904.38 545.16 904.226 544.971C904.08 544.774 903.755 544.586 903.249 544.406C902.744 544.226 901.968 543.999 900.923 543.725C899.758 543.416 898.833 543.086 898.147 542.735C897.462 542.375 896.969 541.951 896.669 541.463C896.37 540.974 896.22 540.383 896.22 539.689C896.22 538.824 896.447 538.07 896.901 537.428C897.355 536.785 897.989 536.292 898.803 535.95C899.617 535.598 900.576 535.423 901.681 535.423C902.761 535.423 903.716 535.59 904.547 535.924C905.387 536.258 906.064 536.734 906.578 537.35C907.092 537.967 907.409 538.691 907.529 539.522L904.367 540.088C904.29 539.497 904.02 539.03 903.558 538.687C903.103 538.344 902.495 538.151 901.733 538.109C901.004 538.066 900.418 538.177 899.972 538.443C899.527 538.7 899.304 539.064 899.304 539.535C899.304 539.801 899.394 540.028 899.574 540.216C899.754 540.405 900.113 540.593 900.653 540.782C901.202 540.97 902.015 541.201 903.095 541.476C904.2 541.758 905.083 542.084 905.742 542.452C906.41 542.812 906.89 543.245 907.182 543.75C907.481 544.256 907.631 544.868 907.631 545.588C907.631 546.984 907.122 548.081 906.102 548.878C905.091 549.675 903.69 550.073 901.9 550.073ZM925.191 549.688V543.005C925.191 542.568 925.161 542.084 925.101 541.553C925.041 541.022 924.9 540.512 924.677 540.023C924.463 539.527 924.138 539.12 923.701 538.803C923.272 538.486 922.69 538.327 921.953 538.327C921.559 538.327 921.169 538.391 920.783 538.52C920.398 538.648 920.047 538.871 919.73 539.188C919.421 539.497 919.173 539.925 918.984 540.473C918.796 541.013 918.702 541.707 918.702 542.555L916.864 541.771C916.864 540.589 917.091 539.518 917.545 538.558C918.008 537.599 918.684 536.836 919.575 536.271C920.466 535.697 921.563 535.41 922.865 535.41C923.893 535.41 924.742 535.581 925.41 535.924C926.078 536.267 926.609 536.704 927.003 537.235C927.397 537.766 927.689 538.331 927.877 538.931C928.066 539.531 928.186 540.101 928.237 540.64C928.297 541.172 928.327 541.604 928.327 541.938V549.688H925.191ZM915.566 549.688V531.182H918.329V540.923H918.702V549.688H915.566ZM937.99 550.073C936.585 550.073 935.352 549.769 934.289 549.161C933.227 548.552 932.396 547.708 931.796 546.629C931.205 545.549 930.909 544.307 930.909 542.902C930.909 541.386 931.201 540.071 931.783 538.957C932.366 537.835 933.176 536.965 934.212 536.348C935.249 535.731 936.448 535.423 937.811 535.423C939.25 535.423 940.471 535.761 941.473 536.438C942.484 537.106 943.234 538.053 943.722 539.278C944.21 540.503 944.395 541.947 944.275 543.609H941.203V542.478C941.195 540.97 940.929 539.869 940.406 539.175C939.884 538.481 939.061 538.134 937.939 538.134C936.671 538.134 935.729 538.528 935.112 539.317C934.495 540.096 934.187 541.24 934.187 542.748C934.187 544.153 934.495 545.241 935.112 546.012C935.729 546.783 936.628 547.169 937.811 547.169C938.573 547.169 939.228 547.002 939.777 546.667C940.334 546.325 940.762 545.832 941.062 545.19L944.12 546.115C943.589 547.366 942.767 548.338 941.653 549.032C940.548 549.726 939.327 550.073 937.99 550.073ZM933.21 543.609V541.27H942.758V543.609H933.21ZM947.142 549.688V535.808H949.879V539.188L949.545 538.751C949.717 538.289 949.944 537.869 950.226 537.492C950.518 537.106 950.865 536.789 951.267 536.541C951.61 536.31 951.987 536.13 952.398 536.001C952.818 535.864 953.246 535.783 953.683 535.757C954.12 535.723 954.544 535.74 954.956 535.808V538.7C954.544 538.58 954.069 538.541 953.529 538.584C952.998 538.627 952.518 538.777 952.09 539.034C951.661 539.265 951.31 539.561 951.036 539.921C950.77 540.28 950.573 540.692 950.445 541.154C950.316 541.608 950.252 542.101 950.252 542.632V549.688H947.142ZM963.467 550.073C962.062 550.073 960.828 549.769 959.766 549.161C958.703 548.552 957.872 547.708 957.273 546.629C956.681 545.549 956.386 544.307 956.386 542.902C956.386 541.386 956.677 540.071 957.26 538.957C957.842 537.835 958.652 536.965 959.689 536.348C960.725 535.731 961.925 535.423 963.287 535.423C964.726 535.423 965.947 535.761 966.949 536.438C967.96 537.106 968.71 538.053 969.198 539.278C969.687 540.503 969.871 541.947 969.751 543.609H966.68V542.478C966.671 540.97 966.405 539.869 965.883 539.175C965.36 538.481 964.538 538.134 963.415 538.134C962.147 538.134 961.205 538.528 960.588 539.317C959.971 540.096 959.663 541.24 959.663 542.748C959.663 544.153 959.971 545.241 960.588 546.012C961.205 546.783 962.105 547.169 963.287 547.169C964.049 547.169 964.705 547.002 965.253 546.667C965.81 546.325 966.238 545.832 966.538 545.19L969.597 546.115C969.066 547.366 968.243 548.338 967.129 549.032C966.024 549.726 964.803 550.073 963.467 550.073ZM958.686 543.609V541.27H968.235V543.609H958.686Z" fill="#353534"/>
<rect x="431" y="202" width="868" height="536" stroke="#6A6A67" stroke-width="3.86819" stroke-linecap="round" stroke-dasharray="19.34 19.34"/>
<path d="M755.768 126.48C754.083 126.48 752.563 126.187 751.208 125.6C749.864 125.013 748.755 124.176 747.88 123.088C747.016 121.989 746.467 120.688 746.232 119.184L750.232 118.576C750.573 119.941 751.272 120.997 752.328 121.744C753.395 122.491 754.621 122.864 756.008 122.864C756.829 122.864 757.603 122.736 758.328 122.48C759.053 122.224 759.64 121.851 760.088 121.36C760.547 120.869 760.776 120.267 760.776 119.552C760.776 119.232 760.723 118.939 760.616 118.672C760.509 118.395 760.349 118.149 760.136 117.936C759.933 117.723 759.667 117.531 759.336 117.36C759.016 117.179 758.643 117.024 758.216 116.896L752.264 115.136C751.752 114.987 751.197 114.789 750.6 114.544C750.013 114.288 749.453 113.941 748.92 113.504C748.397 113.056 747.965 112.491 747.624 111.808C747.293 111.115 747.128 110.261 747.128 109.248C747.128 107.765 747.501 106.523 748.248 105.52C749.005 104.507 750.019 103.749 751.288 103.248C752.568 102.747 753.987 102.501 755.544 102.512C757.123 102.523 758.531 102.795 759.768 103.328C761.005 103.851 762.04 104.613 762.872 105.616C763.704 106.619 764.291 107.829 764.632 109.248L760.488 109.968C760.317 109.157 759.987 108.469 759.496 107.904C759.016 107.328 758.424 106.891 757.72 106.592C757.027 106.293 756.285 106.133 755.496 106.112C754.728 106.101 754.013 106.219 753.352 106.464C752.701 106.699 752.173 107.04 751.768 107.488C751.373 107.936 751.176 108.459 751.176 109.056C751.176 109.621 751.347 110.085 751.688 110.448C752.029 110.8 752.451 111.083 752.952 111.296C753.464 111.499 753.981 111.669 754.504 111.808L758.632 112.96C759.197 113.109 759.832 113.312 760.536 113.568C761.24 113.824 761.917 114.181 762.568 114.64C763.219 115.099 763.752 115.701 764.168 116.448C764.595 117.195 764.808 118.144 764.808 119.296C764.808 120.491 764.557 121.541 764.056 122.448C763.565 123.344 762.899 124.091 762.056 124.688C761.213 125.285 760.248 125.733 759.16 126.032C758.083 126.331 756.952 126.48 755.768 126.48ZM776.575 126.48C774.89 126.48 773.477 126.08 772.335 125.28C771.194 124.48 770.335 123.392 769.759 122.016C769.183 120.629 768.895 119.077 768.895 117.36C768.895 115.621 769.183 114.064 769.759 112.688C770.335 111.312 771.178 110.229 772.287 109.44C773.407 108.64 774.789 108.24 776.431 108.24C778.063 108.24 779.477 108.64 780.671 109.44C781.877 110.229 782.81 111.312 783.471 112.688C784.133 114.053 784.463 115.611 784.463 117.36C784.463 119.088 784.138 120.64 783.487 122.016C782.837 123.392 781.919 124.48 780.735 125.28C779.551 126.08 778.165 126.48 776.575 126.48ZM768.239 133.68V108.72H771.647V120.848H772.127V133.68H768.239ZM775.983 123.024C776.986 123.024 777.813 122.773 778.463 122.272C779.114 121.771 779.594 121.093 779.903 120.24C780.223 119.376 780.383 118.416 780.383 117.36C780.383 116.315 780.223 115.365 779.903 114.512C779.583 113.648 779.087 112.965 778.415 112.464C777.743 111.952 776.89 111.696 775.855 111.696C774.874 111.696 774.074 111.936 773.455 112.416C772.837 112.885 772.378 113.547 772.079 114.4C771.791 115.243 771.647 116.229 771.647 117.36C771.647 118.48 771.791 119.467 772.079 120.32C772.378 121.173 772.842 121.84 773.471 122.32C774.111 122.789 774.949 123.024 775.983 123.024ZM788.31 126V102.48H792.166V126H788.31ZM797.279 106.096V102.56H801.135V106.096H797.279ZM797.279 126V108.72H801.135V126H797.279ZM816.056 126C814.914 126.213 813.794 126.304 812.696 126.272C811.608 126.251 810.632 126.053 809.768 125.68C808.904 125.296 808.248 124.693 807.799 123.872C807.405 123.125 807.197 122.363 807.176 121.584C807.154 120.805 807.144 119.925 807.144 118.944V103.92H810.984V118.72C810.984 119.413 810.989 120.021 811 120.544C811.021 121.067 811.133 121.493 811.336 121.824C811.72 122.464 812.333 122.821 813.176 122.896C814.018 122.971 814.978 122.928 816.056 122.768V126ZM804.008 111.744V108.72H816.056V111.744H804.008ZM828.45 133.68L831.778 124.544L831.842 127.232L824.306 108.72H828.322L833.666 122.416H832.642L837.842 108.72H841.698L832.066 133.68H828.45ZM851.091 126.48C849.363 126.48 847.853 126.091 846.563 125.312C845.272 124.533 844.269 123.461 843.555 122.096C842.851 120.72 842.499 119.141 842.499 117.36C842.499 115.547 842.861 113.957 843.587 112.592C844.312 111.227 845.32 110.16 846.611 109.392C847.901 108.624 849.395 108.24 851.091 108.24C852.829 108.24 854.344 108.629 855.635 109.408C856.925 110.187 857.928 111.264 858.643 112.64C859.357 114.005 859.715 115.579 859.715 117.36C859.715 119.152 859.352 120.736 858.627 122.112C857.912 123.477 856.909 124.549 855.619 125.328C854.328 126.096 852.819 126.48 851.091 126.48ZM851.091 122.864C852.627 122.864 853.768 122.352 854.515 121.328C855.261 120.304 855.635 118.981 855.635 117.36C855.635 115.685 855.256 114.352 854.499 113.36C853.741 112.357 852.605 111.856 851.091 111.856C850.056 111.856 849.203 112.091 848.531 112.56C847.869 113.019 847.379 113.664 847.059 114.496C846.739 115.317 846.579 116.272 846.579 117.36C846.579 119.035 846.957 120.373 847.715 121.376C848.483 122.368 849.608 122.864 851.091 122.864ZM869.72 126.496C868.44 126.496 867.384 126.283 866.552 125.856C865.72 125.429 865.059 124.885 864.568 124.224C864.077 123.563 863.715 122.859 863.48 122.112C863.245 121.365 863.091 120.661 863.016 120C862.952 119.328 862.92 118.784 862.92 118.368V108.72H866.824V117.04C866.824 117.573 866.861 118.176 866.936 118.848C867.011 119.509 867.181 120.149 867.448 120.768C867.725 121.376 868.131 121.877 868.664 122.272C869.208 122.667 869.939 122.864 870.856 122.864C871.347 122.864 871.832 122.784 872.312 122.624C872.792 122.464 873.224 122.192 873.608 121.808C874.003 121.413 874.317 120.875 874.552 120.192C874.787 119.509 874.904 118.645 874.904 117.6L877.192 118.576C877.192 120.048 876.904 121.381 876.328 122.576C875.763 123.771 874.925 124.725 873.816 125.44C872.707 126.144 871.341 126.496 869.72 126.496ZM875.368 126V120.64H874.904V108.72H878.776V126H875.368ZM883.271 126V108.72H886.679V112.928L886.263 112.384C886.477 111.808 886.759 111.285 887.111 110.816C887.474 110.336 887.906 109.941 888.407 109.632C888.834 109.344 889.303 109.12 889.815 108.96C890.338 108.789 890.871 108.688 891.415 108.656C891.959 108.613 892.487 108.635 892.999 108.72V112.32C892.487 112.171 891.895 112.123 891.223 112.176C890.562 112.229 889.965 112.416 889.431 112.736C888.898 113.024 888.461 113.392 888.119 113.84C887.789 114.288 887.543 114.8 887.383 115.376C887.223 115.941 887.143 116.555 887.143 117.216V126H883.271ZM903.963 126V108.448C903.963 108.011 903.979 107.531 904.011 107.008C904.043 106.475 904.133 105.947 904.283 105.424C904.432 104.901 904.704 104.427 905.099 104C905.589 103.456 906.117 103.083 906.683 102.88C907.259 102.667 907.824 102.549 908.379 102.528C908.933 102.496 909.419 102.48 909.835 102.48H911.995V105.616H909.995C909.259 105.616 908.709 105.803 908.347 106.176C907.995 106.539 907.819 107.019 907.819 107.616V126H903.963ZM901.179 111.744V108.72H911.995V111.744H901.179ZM915.355 106.096V102.56H919.211V106.096H915.355ZM915.355 126V108.72H919.211V126H915.355ZM924.341 126V102.48H928.197V126H924.341ZM940.846 126.48C939.097 126.48 937.561 126.101 936.238 125.344C934.915 124.587 933.881 123.536 933.134 122.192C932.398 120.848 932.03 119.301 932.03 117.552C932.03 115.664 932.393 114.027 933.118 112.64C933.843 111.243 934.851 110.16 936.142 109.392C937.433 108.624 938.926 108.24 940.622 108.24C942.414 108.24 943.934 108.661 945.182 109.504C946.441 110.336 947.374 111.515 947.982 113.04C948.59 114.565 948.819 116.363 948.67 118.432H944.846V117.024C944.835 115.147 944.505 113.776 943.854 112.912C943.203 112.048 942.179 111.616 940.782 111.616C939.203 111.616 938.03 112.107 937.262 113.088C936.494 114.059 936.11 115.483 936.11 117.36C936.11 119.109 936.494 120.464 937.262 121.424C938.03 122.384 939.15 122.864 940.622 122.864C941.571 122.864 942.387 122.656 943.07 122.24C943.763 121.813 944.297 121.2 944.67 120.4L948.478 121.552C947.817 123.109 946.793 124.32 945.406 125.184C944.03 126.048 942.51 126.48 940.846 126.48ZM934.894 118.432V115.52H946.782V118.432H934.894ZM958.912 126.48C956.779 126.48 955.045 126 953.712 125.04C952.379 124.08 951.568 122.731 951.28 120.992L955.216 120.384C955.419 121.237 955.867 121.909 956.56 122.4C957.253 122.891 958.128 123.136 959.184 123.136C960.112 123.136 960.827 122.955 961.328 122.592C961.84 122.219 962.096 121.712 962.096 121.072C962.096 120.677 962 120.363 961.808 120.128C961.627 119.883 961.221 119.648 960.592 119.424C959.963 119.2 958.997 118.917 957.696 118.576C956.245 118.192 955.093 117.781 954.24 117.344C953.387 116.896 952.773 116.368 952.4 115.76C952.027 115.152 951.84 114.416 951.84 113.552C951.84 112.475 952.123 111.536 952.688 110.736C953.253 109.936 954.043 109.323 955.056 108.896C956.069 108.459 957.264 108.24 958.64 108.24C959.984 108.24 961.173 108.448 962.208 108.864C963.253 109.28 964.096 109.872 964.736 110.64C965.376 111.408 965.771 112.309 965.92 113.344L961.984 114.048C961.888 113.312 961.552 112.731 960.976 112.304C960.411 111.877 959.653 111.637 958.704 111.584C957.797 111.531 957.067 111.669 956.512 112C955.957 112.32 955.68 112.773 955.68 113.36C955.68 113.691 955.792 113.973 956.016 114.208C956.24 114.443 956.688 114.677 957.36 114.912C958.043 115.147 959.056 115.435 960.4 115.776C961.776 116.128 962.875 116.533 963.696 116.992C964.528 117.44 965.125 117.979 965.488 118.608C965.861 119.237 966.048 120 966.048 120.896C966.048 122.635 965.413 124 964.144 124.992C962.885 125.984 961.141 126.48 958.912 126.48Z" fill="#353534"/>
<g filter="url(#filter0_d_1343_4471)">
<rect x="699" y="803" width="331" height="51" rx="8" fill="#372092" shape-rendering="crispEdges"/>
<path d="M813.36 834.74C812.442 834.74 811.634 834.553 810.936 834.18C810.242 833.807 809.698 833.281 809.304 832.604C808.914 831.927 808.72 831.132 808.72 830.22V822.996L810.672 822.98V830.172C810.672 830.604 810.744 830.991 810.888 831.332C811.037 831.673 811.237 831.964 811.488 832.204C811.738 832.439 812.026 832.617 812.352 832.74C812.677 832.863 813.013 832.924 813.36 832.924C813.717 832.924 814.056 832.863 814.376 832.74C814.701 832.612 814.989 832.431 815.24 832.196C815.49 831.956 815.688 831.665 815.832 831.324C815.976 830.983 816.048 830.599 816.048 830.172V822.98H818V830.22C818 831.132 817.802 831.927 817.408 832.604C817.018 833.281 816.474 833.807 815.776 834.18C815.082 834.553 814.277 834.74 813.36 834.74ZM824.387 834.74C823.545 834.74 822.838 834.54 822.267 834.14C821.697 833.74 821.267 833.196 820.979 832.508C820.691 831.815 820.547 831.039 820.547 830.18C820.547 829.311 820.691 828.532 820.979 827.844C821.267 827.156 821.689 826.615 822.243 826.22C822.803 825.82 823.494 825.62 824.315 825.62C825.131 825.62 825.838 825.82 826.435 826.22C827.038 826.615 827.505 827.156 827.835 827.844C828.166 828.527 828.331 829.305 828.331 830.18C828.331 831.044 828.169 831.82 827.843 832.508C827.518 833.196 827.059 833.74 826.467 834.14C825.875 834.54 825.182 834.74 824.387 834.74ZM820.219 838.34V825.86H821.923V831.924H822.163V838.34H820.219ZM824.091 833.012C824.593 833.012 825.006 832.887 825.331 832.636C825.657 832.385 825.897 832.047 826.051 831.62C826.211 831.188 826.291 830.708 826.291 830.18C826.291 829.657 826.211 829.183 826.051 828.756C825.891 828.324 825.643 827.983 825.307 827.732C824.971 827.476 824.545 827.348 824.027 827.348C823.537 827.348 823.137 827.468 822.827 827.708C822.518 827.943 822.289 828.273 822.139 828.7C821.995 829.121 821.923 829.615 821.923 830.18C821.923 830.74 821.995 831.233 822.139 831.66C822.289 832.087 822.521 832.42 822.835 832.66C823.155 832.895 823.574 833.012 824.091 833.012ZM830.255 834.5V822.74H832.183V834.5H830.255ZM838.395 834.74C837.531 834.74 836.776 834.545 836.131 834.156C835.486 833.767 834.984 833.231 834.627 832.548C834.275 831.86 834.099 831.071 834.099 830.18C834.099 829.273 834.28 828.479 834.643 827.796C835.006 827.113 835.51 826.58 836.155 826.196C836.8 825.812 837.547 825.62 838.395 825.62C839.264 825.62 840.022 825.815 840.667 826.204C841.312 826.593 841.814 827.132 842.171 827.82C842.528 828.503 842.707 829.289 842.707 830.18C842.707 831.076 842.526 831.868 842.163 832.556C841.806 833.239 841.304 833.775 840.659 834.164C840.014 834.548 839.259 834.74 838.395 834.74ZM838.395 832.932C839.163 832.932 839.734 832.676 840.107 832.164C840.48 831.652 840.667 830.991 840.667 830.18C840.667 829.343 840.478 828.676 840.099 828.18C839.72 827.679 839.152 827.428 838.395 827.428C837.878 827.428 837.451 827.545 837.115 827.78C836.784 828.009 836.539 828.332 836.379 828.748C836.219 829.159 836.139 829.636 836.139 830.18C836.139 831.017 836.328 831.687 836.707 832.188C837.091 832.684 837.654 832.932 838.395 832.932ZM846.886 834.74C846.262 834.74 845.734 834.623 845.302 834.388C844.87 834.148 844.542 833.831 844.318 833.436C844.099 833.041 843.99 832.607 843.99 832.132C843.99 831.716 844.059 831.343 844.198 831.012C844.336 830.676 844.55 830.388 844.838 830.148C845.126 829.903 845.499 829.703 845.958 829.548C846.304 829.436 846.71 829.335 847.174 829.244C847.643 829.153 848.15 829.071 848.694 828.996C849.243 828.916 849.816 828.831 850.414 828.74L849.726 829.132C849.731 828.535 849.598 828.095 849.326 827.812C849.054 827.529 848.595 827.388 847.95 827.388C847.56 827.388 847.184 827.479 846.822 827.66C846.459 827.841 846.206 828.153 846.062 828.596L844.302 828.044C844.515 827.313 844.92 826.727 845.518 826.284C846.12 825.841 846.931 825.62 847.95 825.62C848.718 825.62 849.392 825.745 849.974 825.996C850.56 826.247 850.995 826.657 851.278 827.228C851.432 827.532 851.526 827.844 851.558 828.164C851.59 828.479 851.606 828.823 851.606 829.196V834.5H849.918V832.628L850.198 832.932C849.808 833.556 849.352 834.015 848.83 834.308C848.312 834.596 847.664 834.74 846.886 834.74ZM847.27 833.204C847.707 833.204 848.08 833.127 848.39 832.972C848.699 832.817 848.944 832.628 849.126 832.404C849.312 832.18 849.438 831.969 849.502 831.772C849.603 831.527 849.659 831.247 849.67 830.932C849.686 830.612 849.694 830.353 849.694 830.156L850.286 830.332C849.704 830.423 849.206 830.503 848.79 830.572C848.374 830.641 848.016 830.708 847.718 830.772C847.419 830.831 847.155 830.897 846.926 830.972C846.702 831.052 846.512 831.145 846.358 831.252C846.203 831.359 846.083 831.481 845.998 831.62C845.918 831.759 845.878 831.921 845.878 832.108C845.878 832.321 845.931 832.511 846.038 832.676C846.144 832.836 846.299 832.964 846.502 833.06C846.71 833.156 846.966 833.204 847.27 833.204ZM857.152 834.74C856.358 834.74 855.664 834.54 855.072 834.14C854.48 833.74 854.022 833.196 853.696 832.508C853.371 831.82 853.208 831.044 853.208 830.18C853.208 829.305 853.371 828.527 853.696 827.844C854.027 827.156 854.494 826.615 855.096 826.22C855.699 825.82 856.408 825.62 857.224 825.62C858.046 825.62 858.734 825.82 859.288 826.22C859.848 826.615 860.272 827.156 860.56 827.844C860.848 828.532 860.992 829.311 860.992 830.18C860.992 831.039 860.848 831.815 860.56 832.508C860.272 833.196 859.843 833.74 859.272 834.14C858.702 834.54 857.995 834.74 857.152 834.74ZM857.448 833.012C857.966 833.012 858.382 832.895 858.696 832.66C859.016 832.42 859.248 832.087 859.392 831.66C859.542 831.233 859.616 830.74 859.616 830.18C859.616 829.615 859.542 829.121 859.392 828.7C859.248 828.273 859.022 827.943 858.712 827.708C858.403 827.468 858.003 827.348 857.512 827.348C856.995 827.348 856.568 827.476 856.232 827.732C855.896 827.983 855.648 828.324 855.488 828.756C855.328 829.183 855.248 829.657 855.248 830.18C855.248 830.708 855.326 831.188 855.48 831.62C855.64 832.047 855.883 832.385 856.208 832.636C856.534 832.887 856.947 833.012 857.448 833.012ZM859.616 834.5V828.436H859.376V822.98H861.32V834.5H859.616ZM867.518 834.5V825.724C867.518 825.505 867.526 825.265 867.542 825.004C867.558 824.737 867.604 824.473 867.678 824.212C867.753 823.951 867.889 823.713 868.086 823.5C868.332 823.228 868.596 823.041 868.878 822.94C869.166 822.833 869.449 822.775 869.726 822.764C870.004 822.748 870.246 822.74 870.454 822.74H871.534V824.308H870.534C870.166 824.308 869.892 824.401 869.71 824.588C869.534 824.769 869.446 825.009 869.446 825.308V834.5H867.518ZM866.126 827.372V825.86H871.534V827.372H866.126ZM873.214 824.548V822.78H875.142V824.548H873.214ZM873.214 834.5V825.86H875.142V834.5H873.214ZM877.708 834.5V822.74H879.636V834.5H877.708ZM885.96 834.74C885.085 834.74 884.317 834.551 883.656 834.172C882.995 833.793 882.477 833.268 882.104 832.596C881.736 831.924 881.552 831.151 881.552 830.276C881.552 829.332 881.733 828.513 882.096 827.82C882.459 827.121 882.963 826.58 883.608 826.196C884.253 825.812 885 825.62 885.848 825.62C886.744 825.62 887.504 825.831 888.128 826.252C888.757 826.668 889.224 827.257 889.528 828.02C889.832 828.783 889.947 829.681 889.872 830.716H887.96V830.012C887.955 829.073 887.789 828.388 887.464 827.956C887.139 827.524 886.627 827.308 885.928 827.308C885.139 827.308 884.552 827.553 884.168 828.044C883.784 828.529 883.592 829.241 883.592 830.18C883.592 831.055 883.784 831.732 884.168 832.212C884.552 832.692 885.112 832.932 885.848 832.932C886.323 832.932 886.731 832.828 887.072 832.62C887.419 832.407 887.685 832.1 887.872 831.7L889.776 832.276C889.445 833.055 888.933 833.66 888.24 834.092C887.552 834.524 886.792 834.74 885.96 834.74ZM882.984 830.716V829.26H888.928V830.716H882.984Z" fill="white"/>
<path d="M905.4 820.5C905.4 818.732 906.832 817.3 908.6 817.3H914.337C914.973 817.3 915.584 817.553 916.034 818.003L920.697 822.665C921.147 823.116 921.4 823.726 921.4 824.363V836.5C921.4 838.267 919.967 839.7 918.2 839.7H912.861C913.506 839.246 914.087 838.707 914.588 838.1H918.2C919.083 838.1 919.8 837.383 919.8 836.5V825.3H915.8C914.474 825.3 913.4 824.225 913.4 822.9V818.9H908.6C907.716 818.9 907 819.616 907 820.5V823.736C906.45 823.785 905.915 823.885 905.4 824.031V820.5ZM915.8 823.7H919.468L915 819.231V822.9C915 823.342 915.358 823.7 915.8 823.7ZM907.8 839.7C911.776 839.7 915 836.476 915 832.5C915 828.523 911.776 825.3 907.8 825.3C903.823 825.3 900.6 828.523 900.6 832.5C900.6 836.476 903.823 839.7 907.8 839.7ZM911.565 831.934C911.878 832.247 911.878 832.753 911.565 833.065C911.253 833.378 910.746 833.378 910.434 833.065L908.6 831.231V835.7C908.6 836.142 908.241 836.5 907.8 836.5C907.358 836.5 907 836.142 907 835.7L907 831.231L905.165 833.065C904.853 833.378 904.346 833.378 904.034 833.065C903.722 832.753 903.722 832.247 904.034 831.934L907.234 828.734C907.311 828.657 907.399 828.6 907.493 828.561C907.586 828.522 907.688 828.5 907.795 828.5L907.8 828.5L907.804 828.5C907.911 828.5 908.013 828.522 908.106 828.561C908.199 828.599 908.286 828.656 908.362 828.731L908.366 828.735L911.565 831.934Z" fill="#FFFCEE"/>
</g>
<rect width="239" height="1024" fill="#372092"/>
<path d="M99.3338 68.3C97.8938 68.3 96.6604 67.9867 95.6338 67.36C94.6071 66.7267 93.8171 65.8467 93.2638 64.72C92.7171 63.5933 92.4438 62.2867 92.4438 60.8C92.4438 59.3133 92.7171 58.0067 93.2638 56.88C93.8171 55.7533 94.6071 54.8767 95.6338 54.25C96.6604 53.6167 97.8938 53.3 99.3338 53.3C100.994 53.3 102.377 53.7167 103.484 54.55C104.59 55.3767 105.367 56.4933 105.814 57.9L103.384 58.57C103.104 57.63 102.627 56.8967 101.954 56.37C101.28 55.8367 100.407 55.57 99.3338 55.57C98.3671 55.57 97.5604 55.7867 96.9138 56.22C96.2738 56.6533 95.7904 57.2633 95.4638 58.05C95.1438 58.83 94.9804 59.7467 94.9738 60.8C94.9738 61.8533 95.1338 62.7733 95.4538 63.56C95.7804 64.34 96.2671 64.9467 96.9138 65.38C97.5604 65.8133 98.3671 66.03 99.3338 66.03C100.407 66.03 101.28 65.7633 101.954 65.23C102.627 64.6967 103.104 63.9633 103.384 63.03L105.814 63.7C105.367 65.1067 104.59 66.2267 103.484 67.06C102.377 67.8867 100.994 68.3 99.3338 68.3ZM115.479 68V62.8C115.479 62.46 115.456 62.0833 115.409 61.67C115.363 61.2567 115.253 60.86 115.079 60.48C114.913 60.0933 114.659 59.7767 114.319 59.53C113.986 59.2833 113.533 59.16 112.959 59.16C112.653 59.16 112.349 59.21 112.049 59.31C111.749 59.41 111.476 59.5833 111.229 59.83C110.989 60.07 110.796 60.4033 110.649 60.83C110.503 61.25 110.429 61.79 110.429 62.45L108.999 61.84C108.999 60.92 109.176 60.0867 109.529 59.34C109.889 58.5933 110.416 58 111.109 57.56C111.803 57.1133 112.656 56.89 113.669 56.89C114.469 56.89 115.129 57.0233 115.649 57.29C116.169 57.5567 116.583 57.8967 116.889 58.31C117.196 58.7233 117.423 59.1633 117.569 59.63C117.716 60.0967 117.809 60.54 117.849 60.96C117.896 61.3733 117.919 61.71 117.919 61.97V68H115.479ZM107.989 68V53.6H110.139V61.18H110.429V68H107.989ZM124.579 68.31C123.779 68.31 123.119 68.1767 122.599 67.91C122.079 67.6433 121.666 67.3033 121.359 66.89C121.052 66.4767 120.826 66.0367 120.679 65.57C120.532 65.1033 120.436 64.6633 120.389 64.25C120.349 63.83 120.329 63.49 120.329 63.23V57.2H122.769V62.4C122.769 62.7333 122.792 63.11 122.839 63.53C122.886 63.9433 122.992 64.3433 123.159 64.73C123.332 65.11 123.586 65.4233 123.919 65.67C124.259 65.9167 124.716 66.04 125.289 66.04C125.596 66.04 125.899 65.99 126.199 65.89C126.499 65.79 126.769 65.62 127.009 65.38C127.256 65.1333 127.452 64.7967 127.599 64.37C127.746 63.9433 127.819 63.4033 127.819 62.75L129.249 63.36C129.249 64.28 129.069 65.1133 128.709 65.86C128.356 66.6067 127.832 67.2033 127.139 67.65C126.446 68.09 125.592 68.31 124.579 68.31ZM128.109 68V64.65H127.819V57.2H130.239V68H128.109ZM140.518 68V62.8C140.518 62.46 140.495 62.0833 140.448 61.67C140.402 61.2567 140.292 60.86 140.118 60.48C139.952 60.0933 139.698 59.7767 139.358 59.53C139.025 59.2833 138.572 59.16 137.998 59.16C137.692 59.16 137.388 59.21 137.088 59.31C136.788 59.41 136.515 59.5833 136.268 59.83C136.028 60.07 135.835 60.4033 135.688 60.83C135.542 61.25 135.468 61.79 135.468 62.45L134.038 61.84C134.038 60.92 134.215 60.0867 134.568 59.34C134.928 58.5933 135.455 58 136.148 57.56C136.842 57.1133 137.695 56.89 138.708 56.89C139.508 56.89 140.168 57.0233 140.688 57.29C141.208 57.5567 141.622 57.8967 141.928 58.31C142.235 58.7233 142.462 59.1633 142.608 59.63C142.755 60.0967 142.848 60.54 142.888 60.96C142.935 61.3733 142.958 61.71 142.958 61.97V68H140.518ZM133.028 68V57.2H135.178V60.55H135.468V68H133.028ZM145.548 68L145.568 53.6H148.008V62.4L151.958 57.2H154.968L150.778 62.6L155.328 68H152.138L148.008 62.8V68H145.548ZM162.31 68V65.62H155.93V63.37L160.54 53.6H163.29L158.68 63.37H162.31V59.62H164.75V63.37H166.1V65.62H164.75V68H162.31ZM172.64 53.32C173.58 53.32 174.427 53.5433 175.18 53.99C175.933 54.43 176.527 55.0433 176.96 55.83C177.4 56.61 177.62 57.51 177.62 58.53V62.92C177.62 64.0067 177.4 64.9567 176.96 65.77C176.527 66.5767 175.917 67.2 175.13 67.64C174.343 68.08 173.423 68.3 172.37 68.3C171.643 68.3 170.957 68.1767 170.31 67.93C169.663 67.6767 169.083 67.29 168.57 66.77L170.3 65.08C170.56 65.38 170.87 65.6167 171.23 65.79C171.597 65.9567 171.977 66.04 172.37 66.04C172.93 66.04 173.42 65.91 173.84 65.65C174.26 65.3833 174.587 65.04 174.82 64.62C175.053 64.1933 175.17 63.7367 175.17 63.25V60.86L175.6 61.34C175.193 61.82 174.7 62.1967 174.12 62.47C173.54 62.7367 172.93 62.87 172.29 62.87C171.39 62.87 170.59 62.6633 169.89 62.25C169.197 61.8367 168.65 61.2767 168.25 60.57C167.857 59.8567 167.66 59.05 167.66 58.15C167.66 57.25 167.887 56.4367 168.34 55.71C168.793 54.9767 169.397 54.3967 170.15 53.97C170.91 53.5367 171.74 53.32 172.64 53.32ZM172.64 55.62C172.173 55.62 171.747 55.7333 171.36 55.96C170.973 56.1867 170.667 56.4933 170.44 56.88C170.213 57.26 170.1 57.6833 170.1 58.15C170.1 58.6167 170.21 59.0433 170.43 59.43C170.657 59.8167 170.96 60.1233 171.34 60.35C171.727 60.5767 172.153 60.69 172.62 60.69C173.087 60.69 173.513 60.5767 173.9 60.35C174.287 60.1233 174.593 59.8167 174.82 59.43C175.053 59.0433 175.17 58.6167 175.17 58.15C175.17 57.6967 175.057 57.28 174.83 56.9C174.603 56.5133 174.297 56.2033 173.91 55.97C173.53 55.7367 173.107 55.62 172.64 55.62Z" fill="white"/>
<path d="M82.3462 82.6274C77.7387 87.1751 71.8498 90.2469 65.4474 91.4423C59.045 92.6378 52.4262 91.9014 46.454 89.3291C40.4819 86.7568 35.4337 82.4681 31.9675 77.0222C28.5014 71.5762 26.7783 65.2258 27.0228 58.799C27.2674 52.3722 29.4683 46.1672 33.3385 40.9932C37.2088 35.8193 42.5687 31.9164 48.7195 29.7935C54.8703 27.6706 61.5264 27.4263 67.8199 29.0924C74.1135 30.7585 79.7523 34.2577 84.0012 39.1336L76.3844 45.5996C73.4522 42.2346 69.5606 39.8197 65.2173 38.6699C60.874 37.5201 56.2804 37.6887 52.0356 39.1537C47.7908 40.6188 44.0918 43.3123 41.4209 46.883C38.7499 50.4536 37.231 54.7358 37.0622 59.1712C36.8935 63.6065 38.0826 67.989 40.4747 71.7474C42.8668 75.5058 46.3507 78.4656 50.4722 80.2407C54.5937 82.0159 59.1615 82.5241 63.58 81.6991C67.9984 80.8741 72.0625 78.7542 75.2423 75.6157L82.3462 82.6274Z" fill="#BCB5DB"/>
<path d="M47.904 71.3667C50.2186 73.6512 53.1769 75.1944 56.3931 75.7949C59.6093 76.3954 62.9343 76.0255 65.9343 74.7333C68.9344 73.4411 71.4704 71.2867 73.2116 68.551C74.9528 65.8152 75.8184 62.6251 75.6956 59.3966C75.5727 56.1681 74.4671 53.0511 72.5229 50.4519C70.5787 47.8528 67.8861 45.8922 64.7963 44.8258C61.7065 43.7594 58.3628 43.6366 55.2012 44.4736C52.0397 45.3105 49.207 47.0683 47.0726 49.5177L51.788 53.5207C53.1073 52.0066 54.8582 50.9201 56.8125 50.4028C58.7667 49.8854 60.8335 49.9613 62.7434 50.6205C64.6532 51.2796 66.3176 52.4915 67.5193 54.0981C68.7211 55.7047 69.4045 57.6314 69.4804 59.627C69.5563 61.6226 69.0213 63.5945 67.945 65.2855C66.8688 66.9765 65.3012 68.3082 63.4468 69.1069C61.5924 69.9056 59.5372 70.1343 57.5492 69.7631C55.5611 69.3919 53.7326 68.4381 52.3019 67.026L47.904 71.3667Z" fill="#F55353"/>
<rect y="246" width="239" height="45" fill="#F55353"/>
<path d="M56.3333 264.36V258.307C56.3333 256.427 55.48 255.667 53.36 255.667H47.9733C45.8533 255.667 45 256.427 45 258.307V264.347C45 266.24 45.8533 266.987 47.9733 266.987H53.36C55.48 267 56.3333 266.24 56.3333 264.36Z" stroke="white" stroke-width="1.5" stroke-linecap="round" stroke-linejoin="round"/>
<path d="M56.3333 279.36V273.973C56.3333 271.853 55.48 271 53.36 271H47.9733C45.8533 271 45 271.853 45 273.973V279.36C45 281.48 45.8533 282.333 47.9733 282.333H53.36C55.48 282.333 56.3333 281.48 56.3333 279.36Z" stroke="white" stroke-width="1.5" stroke-linecap="round" stroke-linejoin="round"/>
<path d="M41.0003 264.36V258.307C41.0003 256.427 40.147 255.667 38.027 255.667H32.6403C30.5203 255.667 29.667 256.427 29.667 258.307V264.347C29.667 266.24 30.5203 266.987 32.6403 266.987H38.027C40.147 267 41.0003 266.24 41.0003 264.36Z" stroke="white" stroke-width="1.5" stroke-linecap="round" stroke-linejoin="round"/>
<path d="M41.0003 279.36V273.973C41.0003 271.853 40.147 271 38.027 271H32.6403C30.5203 271 29.667 271.853 29.667 273.973V279.36C29.667 281.48 30.5203 282.333 32.6403 282.333H38.027C40.147 282.333 41.0003 281.48 41.0003 279.36Z" stroke="white" stroke-width="1.5" stroke-linecap="round" stroke-linejoin="round"/>
<path d="M76.82 279V260.28H82.787C82.943 260.28 83.2507 260.284 83.71 260.293C84.178 260.302 84.6287 260.332 85.062 260.384C86.544 260.575 87.7963 261.103 88.819 261.97C89.8503 262.828 90.6303 263.924 91.159 265.259C91.6877 266.594 91.952 268.054 91.952 269.64C91.952 271.226 91.6877 272.686 91.159 274.021C90.6303 275.356 89.8503 276.456 88.819 277.323C87.7963 278.181 86.544 278.705 85.062 278.896C84.6373 278.948 84.191 278.978 83.723 278.987C83.255 278.996 82.943 279 82.787 279H76.82ZM80.005 276.049H82.787C83.047 276.049 83.3763 276.04 83.775 276.023C84.1823 276.006 84.542 275.967 84.854 275.906C85.738 275.741 86.4573 275.347 87.012 274.723C87.5667 274.099 87.974 273.341 88.234 272.448C88.5027 271.555 88.637 270.619 88.637 269.64C88.637 268.626 88.5027 267.673 88.234 266.78C87.9653 265.887 87.5493 265.138 86.986 264.531C86.4313 263.924 85.7207 263.539 84.854 263.374C84.542 263.305 84.1823 263.266 83.775 263.257C83.3763 263.24 83.047 263.231 82.787 263.231H80.005V276.049ZM98.9511 279.39C97.9371 279.39 97.0791 279.199 96.3771 278.818C95.6751 278.428 95.1421 277.912 94.7781 277.271C94.4227 276.63 94.2451 275.923 94.2451 275.152C94.2451 274.476 94.3577 273.869 94.5831 273.332C94.8084 272.786 95.1551 272.318 95.6231 271.928C96.0911 271.529 96.6977 271.204 97.4431 270.953C98.0064 270.771 98.6651 270.606 99.4191 270.459C100.182 270.312 101.005 270.177 101.889 270.056C102.782 269.926 103.713 269.787 104.684 269.64L103.566 270.277C103.575 269.306 103.358 268.591 102.916 268.132C102.474 267.673 101.729 267.443 100.68 267.443C100.047 267.443 99.4364 267.59 98.8471 267.885C98.2577 268.18 97.8461 268.687 97.6121 269.406L94.7521 268.509C95.0987 267.322 95.7574 266.368 96.7281 265.649C97.7074 264.93 99.0247 264.57 100.68 264.57C101.928 264.57 103.024 264.774 103.969 265.181C104.922 265.588 105.629 266.256 106.088 267.183C106.339 267.677 106.491 268.184 106.543 268.704C106.595 269.215 106.621 269.774 106.621 270.381V279H103.878V275.958L104.333 276.452C103.7 277.466 102.959 278.211 102.11 278.688C101.269 279.156 100.216 279.39 98.9511 279.39ZM99.5751 276.894C100.286 276.894 100.892 276.768 101.395 276.517C101.898 276.266 102.296 275.958 102.591 275.594C102.894 275.23 103.098 274.888 103.202 274.567C103.367 274.168 103.458 273.713 103.475 273.202C103.501 272.682 103.514 272.262 103.514 271.941L104.476 272.227C103.531 272.374 102.721 272.504 102.045 272.617C101.369 272.73 100.788 272.838 100.303 272.942C99.8177 273.037 99.3887 273.146 99.0161 273.267C98.6521 273.397 98.3444 273.549 98.0931 273.722C97.8417 273.895 97.6467 274.095 97.5081 274.32C97.3781 274.545 97.3131 274.81 97.3131 275.113C97.3131 275.46 97.3997 275.767 97.5731 276.036C97.7464 276.296 97.9977 276.504 98.3271 276.66C98.6651 276.816 99.0811 276.894 99.5751 276.894ZM115.427 279.39C113.693 279.39 112.285 279 111.202 278.22C110.118 277.44 109.46 276.344 109.226 274.931L112.424 274.437C112.588 275.13 112.952 275.676 113.516 276.075C114.079 276.474 114.79 276.673 115.648 276.673C116.402 276.673 116.982 276.526 117.39 276.231C117.806 275.928 118.014 275.516 118.014 274.996C118.014 274.675 117.936 274.42 117.78 274.229C117.632 274.03 117.303 273.839 116.792 273.657C116.28 273.475 115.496 273.245 114.439 272.968C113.26 272.656 112.324 272.322 111.631 271.967C110.937 271.603 110.439 271.174 110.136 270.68C109.832 270.186 109.681 269.588 109.681 268.886C109.681 268.011 109.91 267.248 110.37 266.598C110.829 265.948 111.47 265.45 112.294 265.103C113.117 264.748 114.088 264.57 115.206 264.57C116.298 264.57 117.264 264.739 118.105 265.077C118.954 265.415 119.639 265.896 120.159 266.52C120.679 267.144 120.999 267.876 121.121 268.717L117.923 269.289C117.845 268.691 117.572 268.219 117.104 267.872C116.644 267.525 116.029 267.33 115.258 267.287C114.521 267.244 113.927 267.356 113.477 267.625C113.026 267.885 112.801 268.253 112.801 268.73C112.801 268.999 112.892 269.228 113.074 269.419C113.256 269.61 113.62 269.8 114.166 269.991C114.72 270.182 115.544 270.416 116.636 270.693C117.754 270.979 118.646 271.308 119.314 271.681C119.99 272.045 120.475 272.483 120.77 272.994C121.073 273.505 121.225 274.125 121.225 274.853C121.225 276.266 120.709 277.375 119.678 278.181C118.655 278.987 117.238 279.39 115.427 279.39ZM133.783 279V272.24C133.783 271.798 133.753 271.308 133.692 270.771C133.631 270.234 133.488 269.718 133.263 269.224C133.046 268.721 132.717 268.31 132.275 267.989C131.842 267.668 131.252 267.508 130.507 267.508C130.108 267.508 129.714 267.573 129.324 267.703C128.934 267.833 128.579 268.058 128.258 268.379C127.946 268.691 127.695 269.124 127.504 269.679C127.313 270.225 127.218 270.927 127.218 271.785L125.359 270.992C125.359 269.796 125.589 268.713 126.048 267.742C126.516 266.771 127.201 266 128.102 265.428C129.003 264.847 130.113 264.557 131.43 264.557C132.47 264.557 133.328 264.73 134.004 265.077C134.68 265.424 135.217 265.866 135.616 266.403C136.015 266.94 136.309 267.512 136.5 268.119C136.691 268.726 136.812 269.302 136.864 269.848C136.925 270.385 136.955 270.823 136.955 271.161V279H133.783ZM124.046 279V260.28H126.841V270.134H127.218V279H124.046ZM147.094 279.39C145.725 279.39 144.577 279.065 143.649 278.415C142.722 277.765 142.024 276.881 141.556 275.763C141.088 274.636 140.854 273.375 140.854 271.98C140.854 270.567 141.088 269.302 141.556 268.184C142.024 267.066 142.709 266.186 143.61 265.545C144.52 264.895 145.643 264.57 146.977 264.57C148.303 264.57 149.452 264.895 150.422 265.545C151.402 266.186 152.16 267.066 152.697 268.184C153.235 269.293 153.503 270.559 153.503 271.98C153.503 273.384 153.239 274.645 152.71 275.763C152.182 276.881 151.436 277.765 150.474 278.415C149.512 279.065 148.386 279.39 147.094 279.39ZM140.321 279V260.28H143.48V269.146H143.09V279H140.321ZM146.613 276.582C147.428 276.582 148.1 276.378 148.628 275.971C149.157 275.564 149.547 275.013 149.798 274.32C150.058 273.618 150.188 272.838 150.188 271.98C150.188 271.131 150.058 270.359 149.798 269.666C149.538 268.964 149.135 268.409 148.589 268.002C148.043 267.586 147.35 267.378 146.509 267.378C145.712 267.378 145.062 267.573 144.559 267.963C144.057 268.344 143.684 268.882 143.441 269.575C143.207 270.26 143.09 271.061 143.09 271.98C143.09 272.89 143.207 273.692 143.441 274.385C143.684 275.078 144.061 275.62 144.572 276.01C145.092 276.391 145.773 276.582 146.613 276.582ZM162.57 279.39C161.166 279.39 159.939 279.074 158.891 278.441C157.842 277.808 157.027 276.937 156.447 275.828C155.875 274.71 155.589 273.427 155.589 271.98C155.589 270.507 155.883 269.215 156.473 268.106C157.062 266.997 157.881 266.13 158.93 265.506C159.978 264.882 161.192 264.57 162.57 264.57C163.982 264.57 165.213 264.886 166.262 265.519C167.31 266.152 168.125 267.027 168.706 268.145C169.286 269.254 169.577 270.533 169.577 271.98C169.577 273.436 169.282 274.723 168.693 275.841C168.112 276.95 167.297 277.821 166.249 278.454C165.2 279.078 163.974 279.39 162.57 279.39ZM162.57 276.452C163.818 276.452 164.745 276.036 165.352 275.204C165.958 274.372 166.262 273.297 166.262 271.98C166.262 270.619 165.954 269.536 165.339 268.73C164.723 267.915 163.8 267.508 162.57 267.508C161.729 267.508 161.036 267.699 160.49 268.08C159.952 268.453 159.554 268.977 159.294 269.653C159.034 270.32 158.904 271.096 158.904 271.98C158.904 273.341 159.211 274.428 159.827 275.243C160.451 276.049 161.365 276.452 162.57 276.452ZM176.367 279.39C175.353 279.39 174.495 279.199 173.793 278.818C173.091 278.428 172.558 277.912 172.194 277.271C171.839 276.63 171.661 275.923 171.661 275.152C171.661 274.476 171.774 273.869 171.999 273.332C172.224 272.786 172.571 272.318 173.039 271.928C173.507 271.529 174.114 271.204 174.859 270.953C175.422 270.771 176.081 270.606 176.835 270.459C177.598 270.312 178.421 270.177 179.305 270.056C180.198 269.926 181.129 269.787 182.1 269.64L180.982 270.277C180.991 269.306 180.774 268.591 180.332 268.132C179.89 267.673 179.145 267.443 178.096 267.443C177.463 267.443 176.852 267.59 176.263 267.885C175.674 268.18 175.262 268.687 175.028 269.406L172.168 268.509C172.515 267.322 173.173 266.368 174.144 265.649C175.123 264.93 176.441 264.57 178.096 264.57C179.344 264.57 180.44 264.774 181.385 265.181C182.338 265.588 183.045 266.256 183.504 267.183C183.755 267.677 183.907 268.184 183.959 268.704C184.011 269.215 184.037 269.774 184.037 270.381V279H181.294V275.958L181.749 276.452C181.116 277.466 180.375 278.211 179.526 278.688C178.685 279.156 177.632 279.39 176.367 279.39ZM176.991 276.894C177.702 276.894 178.308 276.768 178.811 276.517C179.314 276.266 179.712 275.958 180.007 275.594C180.31 275.23 180.514 274.888 180.618 274.567C180.783 274.168 180.874 273.713 180.891 273.202C180.917 272.682 180.93 272.262 180.93 271.941L181.892 272.227C180.947 272.374 180.137 272.504 179.461 272.617C178.785 272.73 178.204 272.838 177.719 272.942C177.234 273.037 176.805 273.146 176.432 273.267C176.068 273.397 175.76 273.549 175.509 273.722C175.258 273.895 175.063 274.095 174.924 274.32C174.794 274.545 174.729 274.81 174.729 275.113C174.729 275.46 174.816 275.767 174.989 276.036C175.162 276.296 175.414 276.504 175.743 276.66C176.081 276.816 176.497 276.894 176.991 276.894ZM187.422 279V264.96H190.191V268.379L189.853 267.937C190.026 267.469 190.256 267.044 190.542 266.663C190.836 266.273 191.187 265.952 191.595 265.701C191.941 265.467 192.323 265.285 192.739 265.155C193.163 265.016 193.597 264.934 194.039 264.908C194.481 264.873 194.91 264.891 195.326 264.96V267.885C194.91 267.764 194.429 267.725 193.883 267.768C193.345 267.811 192.86 267.963 192.427 268.223C191.993 268.457 191.638 268.756 191.361 269.12C191.092 269.484 190.893 269.9 190.763 270.368C190.633 270.827 190.568 271.326 190.568 271.863V279H187.422ZM203.181 279.39C201.89 279.39 200.763 279.065 199.801 278.415C198.839 277.765 198.094 276.881 197.565 275.763C197.037 274.645 196.772 273.384 196.772 271.98C196.772 270.559 197.037 269.293 197.565 268.184C198.103 267.066 198.861 266.186 199.84 265.545C200.82 264.895 201.972 264.57 203.298 264.57C204.633 264.57 205.751 264.895 206.652 265.545C207.562 266.186 208.251 267.066 208.719 268.184C209.187 269.302 209.421 270.567 209.421 271.98C209.421 273.375 209.187 274.636 208.719 275.763C208.251 276.881 207.554 277.765 206.626 278.415C205.699 279.065 204.551 279.39 203.181 279.39ZM203.662 276.582C204.503 276.582 205.179 276.391 205.69 276.01C206.21 275.62 206.587 275.078 206.821 274.385C207.064 273.692 207.185 272.89 207.185 271.98C207.185 271.061 207.064 270.26 206.821 269.575C206.587 268.882 206.219 268.344 205.716 267.963C205.214 267.573 204.564 267.378 203.766 267.378C202.926 267.378 202.232 267.586 201.686 268.002C201.14 268.409 200.737 268.964 200.477 269.666C200.217 270.359 200.087 271.131 200.087 271.98C200.087 272.838 200.213 273.618 200.464 274.32C200.724 275.013 201.119 275.564 201.647 275.971C202.176 276.378 202.848 276.582 203.662 276.582ZM207.185 279V269.146H206.795V260.28H209.954V279H207.185Z" fill="white"/>
<path d="M39.0003 350.334H36.3337C31.0003 350.334 29.667 349 29.667 343.667V330.334C29.667 325 31.0003 323.667 36.3337 323.667H38.3337C40.3337 323.667 40.7737 324.254 41.5337 325.267L43.5337 327.934C44.0404 328.6 44.3337 329 45.667 329H49.667C55.0003 329 56.3337 330.334 56.3337 335.667V338.334" stroke="white" stroke-width="1.5" stroke-miterlimit="10" stroke-linecap="round" stroke-linejoin="round"/>
<path d="M45.3471 345.427C42.2137 345.654 42.2137 350.187 45.3471 350.414H52.7604C53.6537 350.414 54.5337 350.08 55.1871 349.48C57.3871 347.56 56.2137 343.72 53.3204 343.36C52.2804 337.107 43.2404 339.48 45.3738 345.44" stroke="white" stroke-width="1.5" stroke-miterlimit="10" stroke-linecap="round" stroke-linejoin="round"/>
<path d="M83.749 347.39C82.3797 347.39 81.1447 347.152 80.044 346.675C78.952 346.198 78.0507 345.518 77.34 344.634C76.638 343.741 76.1917 342.684 76.001 341.462L79.251 340.968C79.5283 342.077 80.096 342.935 80.954 343.542C81.8207 344.149 82.8173 344.452 83.944 344.452C84.6113 344.452 85.2397 344.348 85.829 344.14C86.4183 343.932 86.895 343.629 87.259 343.23C87.6317 342.831 87.818 342.342 87.818 341.761C87.818 341.501 87.7747 341.263 87.688 341.046C87.6013 340.821 87.4713 340.621 87.298 340.448C87.1333 340.275 86.9167 340.119 86.648 339.98C86.388 339.833 86.0847 339.707 85.738 339.603L80.902 338.173C80.486 338.052 80.0353 337.891 79.55 337.692C79.0733 337.484 78.6183 337.202 78.185 336.847C77.7603 336.483 77.4093 336.024 77.132 335.469C76.8633 334.906 76.729 334.212 76.729 333.389C76.729 332.184 77.0323 331.175 77.639 330.36C78.2543 329.537 79.0777 328.921 80.109 328.514C81.149 328.107 82.3017 327.907 83.567 327.916C84.8497 327.925 85.9937 328.146 86.999 328.579C88.0043 329.004 88.845 329.623 89.521 330.438C90.197 331.253 90.6737 332.236 90.951 333.389L87.584 333.974C87.4453 333.315 87.1767 332.756 86.778 332.297C86.388 331.829 85.907 331.474 85.335 331.231C84.7717 330.988 84.1693 330.858 83.528 330.841C82.904 330.832 82.3233 330.928 81.786 331.127C81.2573 331.318 80.8283 331.595 80.499 331.959C80.1783 332.323 80.018 332.748 80.018 333.233C80.018 333.692 80.1567 334.069 80.434 334.364C80.7113 334.65 81.0537 334.88 81.461 335.053C81.877 335.218 82.2973 335.356 82.722 335.469L86.076 336.405C86.5353 336.526 87.051 336.691 87.623 336.899C88.195 337.107 88.7453 337.397 89.274 337.77C89.8027 338.143 90.236 338.632 90.574 339.239C90.9207 339.846 91.094 340.617 91.094 341.553C91.094 342.524 90.8903 343.377 90.483 344.114C90.0843 344.842 89.5427 345.449 88.858 345.934C88.1733 346.419 87.389 346.783 86.505 347.026C85.6297 347.269 84.711 347.39 83.749 347.39ZM97.8339 347.39C96.8199 347.39 95.9619 347.199 95.2599 346.818C94.5579 346.428 94.0249 345.912 93.6609 345.271C93.3056 344.63 93.1279 343.923 93.1279 343.152C93.1279 342.476 93.2406 341.869 93.4659 341.332C93.6912 340.786 94.0379 340.318 94.5059 339.928C94.9739 339.529 95.5806 339.204 96.3259 338.953C96.8892 338.771 97.5479 338.606 98.3019 338.459C99.0646 338.312 99.8879 338.177 100.772 338.056C101.665 337.926 102.596 337.787 103.567 337.64L102.449 338.277C102.458 337.306 102.241 336.591 101.799 336.132C101.357 335.673 100.612 335.443 99.5629 335.443C98.9302 335.443 98.3192 335.59 97.7299 335.885C97.1406 336.18 96.7289 336.687 96.4949 337.406L93.6349 336.509C93.9816 335.322 94.6402 334.368 95.6109 333.649C96.5902 332.93 97.9076 332.57 99.5629 332.57C100.811 332.57 101.907 332.774 102.852 333.181C103.805 333.588 104.512 334.256 104.971 335.183C105.222 335.677 105.374 336.184 105.426 336.704C105.478 337.215 105.504 337.774 105.504 338.381V347H102.761V343.958L103.216 344.452C102.583 345.466 101.842 346.211 100.993 346.688C100.152 347.156 99.0992 347.39 97.8339 347.39ZM98.4579 344.894C99.1686 344.894 99.7752 344.768 100.278 344.517C100.781 344.266 101.179 343.958 101.474 343.594C101.777 343.23 101.981 342.888 102.085 342.567C102.25 342.168 102.341 341.713 102.358 341.202C102.384 340.682 102.397 340.262 102.397 339.941L103.359 340.227C102.414 340.374 101.604 340.504 100.928 340.617C100.252 340.73 99.6712 340.838 99.1859 340.942C98.7006 341.037 98.2716 341.146 97.8989 341.267C97.5349 341.397 97.2272 341.549 96.9759 341.722C96.7246 341.895 96.5296 342.095 96.3909 342.32C96.2609 342.545 96.1959 342.81 96.1959 343.113C96.1959 343.46 96.2826 343.767 96.4559 344.036C96.6292 344.296 96.8806 344.504 97.2099 344.66C97.5479 344.816 97.9639 344.894 98.4579 344.894ZM112.177 347L107.081 332.96H110.214L113.75 343.139L117.273 332.96H120.419L115.323 347H112.177ZM128.627 347.39C127.205 347.39 125.957 347.082 124.883 346.467C123.808 345.852 122.967 344.998 122.361 343.906C121.763 342.814 121.464 341.557 121.464 340.136C121.464 338.602 121.758 337.272 122.348 336.145C122.937 335.01 123.756 334.13 124.805 333.506C125.853 332.882 127.067 332.57 128.445 332.57C129.901 332.57 131.136 332.912 132.15 333.597C133.172 334.273 133.931 335.231 134.425 336.47C134.919 337.709 135.105 339.17 134.984 340.851H131.877V339.707C131.868 338.182 131.599 337.068 131.071 336.366C130.542 335.664 129.71 335.313 128.575 335.313C127.292 335.313 126.339 335.712 125.715 336.509C125.091 337.298 124.779 338.455 124.779 339.98C124.779 341.401 125.091 342.502 125.715 343.282C126.339 344.062 127.249 344.452 128.445 344.452C129.216 344.452 129.879 344.283 130.434 343.945C130.997 343.598 131.43 343.1 131.734 342.45L134.828 343.386C134.29 344.651 133.458 345.635 132.332 346.337C131.214 347.039 129.979 347.39 128.627 347.39ZM123.791 340.851V338.485H133.45V340.851H123.791ZM143.513 347.39C142.222 347.39 141.095 347.065 140.133 346.415C139.171 345.765 138.426 344.881 137.897 343.763C137.369 342.645 137.104 341.384 137.104 339.98C137.104 338.559 137.369 337.293 137.897 336.184C138.435 335.066 139.193 334.186 140.172 333.545C141.152 332.895 142.304 332.57 143.63 332.57C144.965 332.57 146.083 332.895 146.984 333.545C147.894 334.186 148.583 335.066 149.051 336.184C149.519 337.302 149.753 338.567 149.753 339.98C149.753 341.375 149.519 342.636 149.051 343.763C148.583 344.881 147.886 345.765 146.958 346.415C146.031 347.065 144.883 347.39 143.513 347.39ZM143.994 344.582C144.835 344.582 145.511 344.391 146.022 344.01C146.542 343.62 146.919 343.078 147.153 342.385C147.396 341.692 147.517 340.89 147.517 339.98C147.517 339.061 147.396 338.26 147.153 337.575C146.919 336.882 146.551 336.344 146.048 335.963C145.546 335.573 144.896 335.378 144.098 335.378C143.258 335.378 142.564 335.586 142.018 336.002C141.472 336.409 141.069 336.964 140.809 337.666C140.549 338.359 140.419 339.131 140.419 339.98C140.419 340.838 140.545 341.618 140.796 342.32C141.056 343.013 141.451 343.564 141.979 343.971C142.508 344.378 143.18 344.582 143.994 344.582ZM147.517 347V337.146H147.127V328.28H150.286V347H147.517ZM160.358 347V332.739C160.358 332.384 160.371 331.994 160.397 331.569C160.423 331.136 160.497 330.707 160.618 330.282C160.74 329.857 160.961 329.472 161.281 329.125C161.68 328.683 162.109 328.38 162.568 328.215C163.036 328.042 163.496 327.946 163.946 327.929C164.397 327.903 164.791 327.89 165.129 327.89H166.884V330.438H165.259C164.661 330.438 164.215 330.59 163.92 330.893C163.634 331.188 163.491 331.578 163.491 332.063V347H160.358ZM158.096 335.417V332.96H166.884V335.417H158.096ZM169.614 330.828V327.955H172.747V330.828H169.614ZM169.614 347V332.96H172.747V347H169.614ZM176.916 347V327.89H180.049V347H176.916ZM190.326 347.39C188.905 347.39 187.657 347.082 186.582 346.467C185.507 345.852 184.667 344.998 184.06 343.906C183.462 342.814 183.163 341.557 183.163 340.136C183.163 338.602 183.458 337.272 184.047 336.145C184.636 335.01 185.455 334.13 186.504 333.506C187.553 332.882 188.766 332.57 190.144 332.57C191.6 332.57 192.835 332.912 193.849 333.597C194.872 334.273 195.63 335.231 196.124 336.47C196.618 337.709 196.804 339.17 196.683 340.851H193.576V339.707C193.567 338.182 193.299 337.068 192.77 336.366C192.241 335.664 191.409 335.313 190.274 335.313C188.991 335.313 188.038 335.712 187.414 336.509C186.79 337.298 186.478 338.455 186.478 339.98C186.478 341.401 186.79 342.502 187.414 343.282C188.038 344.062 188.948 344.452 190.144 344.452C190.915 344.452 191.578 344.283 192.133 343.945C192.696 343.598 193.13 343.1 193.433 342.45L196.527 343.386C195.99 344.651 195.158 345.635 194.031 346.337C192.913 347.039 191.678 347.39 190.326 347.39ZM185.49 340.851V338.485H195.149V340.851H185.49ZM205.005 347.39C203.271 347.39 201.863 347 200.78 346.22C199.696 345.44 199.038 344.344 198.804 342.931L202.002 342.437C202.166 343.13 202.53 343.676 203.094 344.075C203.657 344.474 204.368 344.673 205.226 344.673C205.98 344.673 206.56 344.526 206.968 344.231C207.384 343.928 207.592 343.516 207.592 342.996C207.592 342.675 207.514 342.42 207.358 342.229C207.21 342.03 206.881 341.839 206.37 341.657C205.858 341.475 205.074 341.245 204.017 340.968C202.838 340.656 201.902 340.322 201.209 339.967C200.515 339.603 200.017 339.174 199.714 338.68C199.41 338.186 199.259 337.588 199.259 336.886C199.259 336.011 199.488 335.248 199.948 334.598C200.407 333.948 201.048 333.45 201.872 333.103C202.695 332.748 203.666 332.57 204.784 332.57C205.876 332.57 206.842 332.739 207.683 333.077C208.532 333.415 209.217 333.896 209.737 334.52C210.257 335.144 210.577 335.876 210.699 336.717L207.501 337.289C207.423 336.691 207.15 336.219 206.682 335.872C206.222 335.525 205.607 335.33 204.836 335.287C204.099 335.244 203.505 335.356 203.055 335.625C202.604 335.885 202.379 336.253 202.379 336.73C202.379 336.999 202.47 337.228 202.652 337.419C202.834 337.61 203.198 337.8 203.744 337.991C204.298 338.182 205.122 338.416 206.214 338.693C207.332 338.979 208.224 339.308 208.892 339.681C209.568 340.045 210.053 340.483 210.348 340.994C210.651 341.505 210.803 342.125 210.803 342.853C210.803 344.266 210.287 345.375 209.256 346.181C208.233 346.987 206.816 347.39 205.005 347.39Z" fill="white"/>
<path d="M49.667 413.574H44.3337L38.4003 417.52C37.5203 418.107 36.3337 417.48 36.3337 416.414V413.574C32.3337 413.574 29.667 410.907 29.667 406.907V398.907C29.667 394.907 32.3337 392.24 36.3337 392.24H49.667C53.667 392.24 56.3337 394.907 56.3337 398.907V406.907C56.3337 410.907 53.667 413.574 49.667 413.574Z" stroke="white" stroke-width="1.5" stroke-miterlimit="10" stroke-linecap="round" stroke-linejoin="round"/>
<path d="M43.0004 404.146V403.867C43.0004 402.96 43.5604 402.48 44.1204 402.093C44.6671 401.72 45.2137 401.24 45.2137 400.36C45.2137 399.133 44.2271 398.146 43.0004 398.146C41.7737 398.146 40.7871 399.133 40.7871 400.36" stroke="white" stroke-width="1.5" stroke-linecap="round" stroke-linejoin="round"/>
<path d="M42.9937 407.334H43.0057" stroke="white" stroke-width="1.5" stroke-linecap="round" stroke-linejoin="round"/>
<path d="M76.82 415V396.28H79.953V404.158H88.819V396.28H91.939V415H88.819V407.096H79.953V415H76.82ZM101.967 415.39C100.545 415.39 99.2973 415.082 98.2227 414.467C97.148 413.852 96.3073 412.998 95.7007 411.906C95.1027 410.814 94.8037 409.557 94.8037 408.136C94.8037 406.602 95.0983 405.272 95.6877 404.145C96.277 403.01 97.096 402.13 98.1447 401.506C99.1933 400.882 100.407 400.57 101.785 400.57C103.241 400.57 104.476 400.912 105.49 401.597C106.512 402.273 107.271 403.231 107.765 404.47C108.259 405.709 108.445 407.17 108.324 408.851H105.217V407.707C105.208 406.182 104.939 405.068 104.411 404.366C103.882 403.664 103.05 403.313 101.915 403.313C100.632 403.313 99.6787 403.712 99.0547 404.509C98.4307 405.298 98.1187 406.455 98.1187 407.98C98.1187 409.401 98.4307 410.502 99.0547 411.282C99.6787 412.062 100.589 412.452 101.785 412.452C102.556 412.452 103.219 412.283 103.774 411.945C104.337 411.598 104.77 411.1 105.074 410.45L108.168 411.386C107.63 412.651 106.798 413.635 105.672 414.337C104.554 415.039 103.319 415.39 101.967 415.39ZM97.1307 408.851V406.485H106.79V408.851H97.1307ZM111.484 415V395.89H114.617V415H111.484ZM125.258 415.39C123.889 415.39 122.741 415.065 121.813 414.415C120.886 413.765 120.188 412.881 119.72 411.763C119.252 410.636 119.018 409.375 119.018 407.98C119.018 406.567 119.252 405.302 119.72 404.184C120.188 403.066 120.873 402.186 121.774 401.545C122.684 400.895 123.807 400.57 125.141 400.57C126.467 400.57 127.616 400.895 128.586 401.545C129.566 402.186 130.324 403.066 130.861 404.184C131.399 405.293 131.667 406.559 131.667 407.98C131.667 409.384 131.403 410.645 130.874 411.763C130.346 412.881 129.6 413.765 128.638 414.415C127.676 415.065 126.55 415.39 125.258 415.39ZM118.485 421.24V400.96H121.254V410.814H121.644V421.24H118.485ZM124.777 412.582C125.592 412.582 126.264 412.378 126.792 411.971C127.321 411.564 127.711 411.013 127.962 410.32C128.222 409.618 128.352 408.838 128.352 407.98C128.352 407.131 128.222 406.359 127.962 405.666C127.702 404.964 127.299 404.409 126.753 404.002C126.207 403.586 125.514 403.378 124.673 403.378C123.876 403.378 123.226 403.573 122.723 403.963C122.221 404.344 121.848 404.882 121.605 405.575C121.371 406.26 121.254 407.061 121.254 407.98C121.254 408.89 121.371 409.692 121.605 410.385C121.848 411.078 122.225 411.62 122.736 412.01C123.256 412.391 123.937 412.582 124.777 412.582Z" fill="white"/>
<path d="M43 802C45.2091 802 47 800.209 47 798C47 795.791 45.2091 794 43 794C40.7909 794 39 795.791 39 798C39 800.209 40.7909 802 43 802Z" stroke="white" stroke-width="1.5" stroke-miterlimit="10" stroke-linecap="round" stroke-linejoin="round"/>
<path d="M29.667 799.174V796.827C29.667 795.44 30.8003 794.294 32.2003 794.294C34.6137 794.294 35.6003 792.587 34.387 790.494C33.6937 789.294 34.107 787.734 35.3203 787.04L37.627 785.72C38.6803 785.094 40.0403 785.467 40.667 786.52L40.8137 786.774C42.0137 788.867 43.987 788.867 45.2003 786.774L45.347 786.52C45.9737 785.467 47.3337 785.094 48.387 785.72L50.6937 787.04C51.907 787.734 52.3203 789.294 51.627 790.494C50.4137 792.587 51.4003 794.294 53.8137 794.294C55.2003 794.294 56.347 795.427 56.347 796.827V799.174C56.347 800.56 55.2137 801.707 53.8137 801.707C51.4003 801.707 50.4137 803.414 51.627 805.507C52.3203 806.72 51.907 808.267 50.6937 808.96L48.387 810.28C47.3337 810.907 45.9737 810.534 45.347 809.48L45.2003 809.227C44.0003 807.134 42.027 807.134 40.8137 809.227L40.667 809.48C40.0403 810.534 38.6803 810.907 37.627 810.28L35.3203 808.96C34.107 808.267 33.6937 806.707 34.387 805.507C35.6003 803.414 34.6137 801.707 32.2003 801.707C30.8003 801.707 29.667 800.56 29.667 799.174Z" stroke="white" stroke-width="1.5" stroke-miterlimit="10" stroke-linecap="round" stroke-linejoin="round"/>
<path d="M83.749 808.39C82.3797 808.39 81.1447 808.152 80.044 807.675C78.952 807.198 78.0507 806.518 77.34 805.634C76.638 804.741 76.1917 803.684 76.001 802.462L79.251 801.968C79.5283 803.077 80.096 803.935 80.954 804.542C81.8207 805.149 82.8173 805.452 83.944 805.452C84.6113 805.452 85.2397 805.348 85.829 805.14C86.4183 804.932 86.895 804.629 87.259 804.23C87.6317 803.831 87.818 803.342 87.818 802.761C87.818 802.501 87.7747 802.263 87.688 802.046C87.6013 801.821 87.4713 801.621 87.298 801.448C87.1333 801.275 86.9167 801.119 86.648 800.98C86.388 800.833 86.0847 800.707 85.738 800.603L80.902 799.173C80.486 799.052 80.0353 798.891 79.55 798.692C79.0733 798.484 78.6183 798.202 78.185 797.847C77.7603 797.483 77.4093 797.024 77.132 796.469C76.8633 795.906 76.729 795.212 76.729 794.389C76.729 793.184 77.0323 792.175 77.639 791.36C78.2543 790.537 79.0777 789.921 80.109 789.514C81.149 789.107 82.3017 788.907 83.567 788.916C84.8497 788.925 85.9937 789.146 86.999 789.579C88.0043 790.004 88.845 790.623 89.521 791.438C90.197 792.253 90.6737 793.236 90.951 794.389L87.584 794.974C87.4453 794.315 87.1767 793.756 86.778 793.297C86.388 792.829 85.907 792.474 85.335 792.231C84.7717 791.988 84.1693 791.858 83.528 791.841C82.904 791.832 82.3233 791.928 81.786 792.127C81.2573 792.318 80.8283 792.595 80.499 792.959C80.1783 793.323 80.018 793.748 80.018 794.233C80.018 794.692 80.1567 795.069 80.434 795.364C80.7113 795.65 81.0537 795.88 81.461 796.053C81.877 796.218 82.2973 796.356 82.722 796.469L86.076 797.405C86.5353 797.526 87.051 797.691 87.623 797.899C88.195 798.107 88.7453 798.397 89.274 798.77C89.8027 799.143 90.236 799.632 90.574 800.239C90.9207 800.846 91.094 801.617 91.094 802.553C91.094 803.524 90.8903 804.377 90.483 805.114C90.0843 805.842 89.5427 806.449 88.858 806.934C88.1733 807.419 87.389 807.783 86.505 808.026C85.6297 808.269 84.711 808.39 83.749 808.39ZM100.291 808.39C98.8696 808.39 97.6216 808.082 96.5469 807.467C95.4722 806.852 94.6316 805.998 94.0249 804.906C93.4269 803.814 93.1279 802.557 93.1279 801.136C93.1279 799.602 93.4226 798.272 94.0119 797.145C94.6012 796.01 95.4202 795.13 96.4689 794.506C97.5176 793.882 98.7309 793.57 100.109 793.57C101.565 793.57 102.8 793.912 103.814 794.597C104.837 795.273 105.595 796.231 106.089 797.47C106.583 798.709 106.769 800.17 106.648 801.851H103.541V800.707C103.532 799.182 103.264 798.068 102.735 797.366C102.206 796.664 101.374 796.313 100.239 796.313C98.9562 796.313 98.0029 796.712 97.3789 797.509C96.7549 798.298 96.4429 799.455 96.4429 800.98C96.4429 802.401 96.7549 803.502 97.3789 804.282C98.0029 805.062 98.9129 805.452 100.109 805.452C100.88 805.452 101.543 805.283 102.098 804.945C102.661 804.598 103.095 804.1 103.398 803.45L106.492 804.386C105.955 805.651 105.123 806.635 103.996 807.337C102.878 808.039 101.643 808.39 100.291 808.39ZM95.4549 801.851V799.485H105.114V801.851H95.4549ZM117.778 808C116.85 808.173 115.94 808.247 115.048 808.221C114.164 808.204 113.371 808.043 112.669 807.74C111.967 807.428 111.434 806.938 111.07 806.271C110.749 805.664 110.58 805.045 110.563 804.412C110.545 803.779 110.537 803.064 110.537 802.267V790.06H113.657V802.085C113.657 802.648 113.661 803.142 113.67 803.567C113.687 803.992 113.778 804.338 113.943 804.607C114.255 805.127 114.753 805.417 115.438 805.478C116.122 805.539 116.902 805.504 117.778 805.374V808ZM107.989 796.417V793.96H117.778V796.417H107.989ZM127.476 808C126.548 808.173 125.638 808.247 124.746 808.221C123.862 808.204 123.069 808.043 122.367 807.74C121.665 807.428 121.132 806.938 120.768 806.271C120.447 805.664 120.278 805.045 120.261 804.412C120.243 803.779 120.235 803.064 120.235 802.267V790.06H123.355V802.085C123.355 802.648 123.359 803.142 123.368 803.567C123.385 803.992 123.476 804.338 123.641 804.607C123.953 805.127 124.451 805.417 125.136 805.478C125.82 805.539 126.6 805.504 127.476 805.374V808ZM117.687 796.417V793.96H127.476V796.417H117.687ZM130.781 791.828V788.955H133.914V791.828H130.781ZM130.781 808V793.96H133.914V808H130.781ZM147.519 808V801.24C147.519 800.798 147.489 800.308 147.428 799.771C147.368 799.234 147.225 798.718 146.999 798.224C146.783 797.721 146.453 797.31 146.011 796.989C145.578 796.668 144.989 796.508 144.243 796.508C143.845 796.508 143.45 796.573 143.06 796.703C142.67 796.833 142.315 797.058 141.994 797.379C141.682 797.691 141.431 798.124 141.24 798.679C141.05 799.225 140.954 799.927 140.954 800.785L139.095 799.992C139.095 798.796 139.325 797.713 139.784 796.742C140.252 795.771 140.937 795 141.838 794.428C142.74 793.847 143.849 793.557 145.166 793.557C146.206 793.557 147.064 793.73 147.74 794.077C148.416 794.424 148.954 794.866 149.352 795.403C149.751 795.94 150.046 796.512 150.236 797.119C150.427 797.726 150.548 798.302 150.6 798.848C150.661 799.385 150.691 799.823 150.691 800.161V808H147.519ZM137.782 808V793.96H140.577V798.315H140.954V808H137.782ZM159.986 814.63C159.206 814.63 158.456 814.509 157.737 814.266C157.026 814.023 156.385 813.672 155.813 813.213C155.241 812.762 154.773 812.216 154.409 811.575L157.295 810.145C157.563 810.656 157.94 811.033 158.426 811.276C158.92 811.527 159.444 811.653 159.999 811.653C160.649 811.653 161.229 811.536 161.741 811.302C162.252 811.077 162.646 810.739 162.924 810.288C163.21 809.846 163.344 809.291 163.327 808.624V804.633H163.717V793.96H166.46V808.676C166.46 809.031 166.442 809.369 166.408 809.69C166.382 810.019 166.334 810.34 166.265 810.652C166.057 811.562 165.658 812.307 165.069 812.888C164.479 813.477 163.747 813.915 162.872 814.201C162.005 814.487 161.043 814.63 159.986 814.63ZM159.713 808.39C158.421 808.39 157.295 808.065 156.333 807.415C155.371 806.765 154.625 805.881 154.097 804.763C153.568 803.645 153.304 802.384 153.304 800.98C153.304 799.559 153.568 798.293 154.097 797.184C154.634 796.066 155.392 795.186 156.372 794.545C157.351 793.895 158.504 793.57 159.83 793.57C161.164 793.57 162.282 793.895 163.184 794.545C164.094 795.186 164.783 796.066 165.251 797.184C165.719 798.302 165.953 799.567 165.953 800.98C165.953 802.375 165.719 803.636 165.251 804.763C164.783 805.881 164.085 806.765 163.158 807.415C162.23 808.065 161.082 808.39 159.713 808.39ZM160.194 805.582C161.034 805.582 161.71 805.391 162.222 805.01C162.742 804.62 163.119 804.078 163.353 803.385C163.595 802.692 163.717 801.89 163.717 800.98C163.717 800.061 163.595 799.26 163.353 798.575C163.119 797.882 162.75 797.344 162.248 796.963C161.745 796.573 161.095 796.378 160.298 796.378C159.457 796.378 158.764 796.586 158.218 797.002C157.672 797.409 157.269 797.964 157.009 798.666C156.749 799.359 156.619 800.131 156.619 800.98C156.619 801.838 156.744 802.618 156.996 803.32C157.256 804.013 157.65 804.564 158.179 804.971C158.707 805.378 159.379 805.582 160.194 805.582ZM175.526 808.39C173.793 808.39 172.384 808 171.301 807.22C170.218 806.44 169.559 805.344 169.325 803.931L172.523 803.437C172.688 804.13 173.052 804.676 173.615 805.075C174.178 805.474 174.889 805.673 175.747 805.673C176.501 805.673 177.082 805.526 177.489 805.231C177.905 804.928 178.113 804.516 178.113 803.996C178.113 803.675 178.035 803.42 177.879 803.229C177.732 803.03 177.402 802.839 176.891 802.657C176.38 802.475 175.595 802.245 174.538 801.968C173.359 801.656 172.423 801.322 171.73 800.967C171.037 800.603 170.538 800.174 170.235 799.68C169.932 799.186 169.78 798.588 169.78 797.886C169.78 797.011 170.01 796.248 170.469 795.598C170.928 794.948 171.57 794.45 172.393 794.103C173.216 793.748 174.187 793.57 175.305 793.57C176.397 793.57 177.363 793.739 178.204 794.077C179.053 794.415 179.738 794.896 180.258 795.52C180.778 796.144 181.099 796.876 181.22 797.717L178.022 798.289C177.944 797.691 177.671 797.219 177.203 796.872C176.744 796.525 176.128 796.33 175.357 796.287C174.62 796.244 174.027 796.356 173.576 796.625C173.125 796.885 172.9 797.253 172.9 797.73C172.9 797.999 172.991 798.228 173.173 798.419C173.355 798.61 173.719 798.8 174.265 798.991C174.82 799.182 175.643 799.416 176.735 799.693C177.853 799.979 178.746 800.308 179.413 800.681C180.089 801.045 180.574 801.483 180.869 801.994C181.172 802.505 181.324 803.125 181.324 803.853C181.324 805.266 180.808 806.375 179.777 807.181C178.754 807.987 177.337 808.39 175.526 808.39Z" fill="white"/>
<path d="M38.8662 860.08C39.2795 855.28 41.7462 853.32 47.1462 853.32H47.3195C53.2795 853.32 55.6662 855.707 55.6662 861.667V870.36C55.6662 876.32 53.2795 878.707 47.3195 878.707H47.1462C41.7862 878.707 39.3195 876.774 38.8795 872.054" stroke="white" stroke-width="1.5" stroke-linecap="round" stroke-linejoin="round"/>
<path d="M47.0005 866H31.8271" stroke="white" stroke-width="1.5" stroke-linecap="round" stroke-linejoin="round"/>
<path d="M34.7997 861.533L30.333 866L34.7997 870.467" stroke="white" stroke-width="1.5" stroke-linecap="round" stroke-linejoin="round"/>
<path d="M77.08 876V857.28H80.213V873.062H88.481V876H77.08ZM96.8843 876.39C95.4803 876.39 94.2539 876.074 93.2053 875.441C92.1566 874.808 91.3419 873.937 90.7613 872.828C90.1893 871.71 89.9033 870.427 89.9033 868.98C89.9033 867.507 90.1979 866.215 90.7873 865.106C91.3766 863.997 92.1956 863.13 93.2443 862.506C94.2929 861.882 95.5063 861.57 96.8843 861.57C98.2969 861.57 99.5276 861.886 100.576 862.519C101.625 863.152 102.44 864.027 103.02 865.145C103.601 866.254 103.891 867.533 103.891 868.98C103.891 870.436 103.597 871.723 103.007 872.841C102.427 873.95 101.612 874.821 100.563 875.454C99.5146 876.078 98.2883 876.39 96.8843 876.39ZM96.8843 873.452C98.1323 873.452 99.0596 873.036 99.6663 872.204C100.273 871.372 100.576 870.297 100.576 868.98C100.576 867.619 100.269 866.536 99.6533 865.73C99.0379 864.915 98.1149 864.508 96.8843 864.508C96.0436 864.508 95.3503 864.699 94.8043 865.08C94.2669 865.453 93.8683 865.977 93.6083 866.653C93.3483 867.32 93.2183 868.096 93.2183 868.98C93.2183 870.341 93.5259 871.428 94.1413 872.243C94.7653 873.049 95.6796 873.452 96.8843 873.452ZM112.658 882.63C111.878 882.63 111.128 882.509 110.409 882.266C109.698 882.023 109.057 881.672 108.485 881.213C107.913 880.762 107.445 880.216 107.081 879.575L109.967 878.145C110.235 878.656 110.612 879.033 111.098 879.276C111.592 879.527 112.116 879.653 112.671 879.653C113.321 879.653 113.901 879.536 114.413 879.302C114.924 879.077 115.318 878.739 115.596 878.288C115.882 877.846 116.016 877.291 115.999 876.624V872.633H116.389V861.96H119.132V876.676C119.132 877.031 119.114 877.369 119.08 877.69C119.054 878.019 119.006 878.34 118.937 878.652C118.729 879.562 118.33 880.307 117.741 880.888C117.151 881.477 116.419 881.915 115.544 882.201C114.677 882.487 113.715 882.63 112.658 882.63ZM112.385 876.39C111.093 876.39 109.967 876.065 109.005 875.415C108.043 874.765 107.297 873.881 106.769 872.763C106.24 871.645 105.976 870.384 105.976 868.98C105.976 867.559 106.24 866.293 106.769 865.184C107.306 864.066 108.064 863.186 109.044 862.545C110.023 861.895 111.176 861.57 112.502 861.57C113.836 861.57 114.954 861.895 115.856 862.545C116.766 863.186 117.455 864.066 117.923 865.184C118.391 866.302 118.625 867.567 118.625 868.98C118.625 870.375 118.391 871.636 117.923 872.763C117.455 873.881 116.757 874.765 115.83 875.415C114.902 876.065 113.754 876.39 112.385 876.39ZM112.866 873.582C113.706 873.582 114.382 873.391 114.894 873.01C115.414 872.62 115.791 872.078 116.025 871.385C116.267 870.692 116.389 869.89 116.389 868.98C116.389 868.061 116.267 867.26 116.025 866.575C115.791 865.882 115.422 865.344 114.92 864.963C114.417 864.573 113.767 864.378 112.97 864.378C112.129 864.378 111.436 864.586 110.89 865.002C110.344 865.409 109.941 865.964 109.681 866.666C109.421 867.359 109.291 868.131 109.291 868.98C109.291 869.838 109.416 870.618 109.668 871.32C109.928 872.013 110.322 872.564 110.851 872.971C111.379 873.378 112.051 873.582 112.866 873.582ZM128.978 876.39C127.574 876.39 126.348 876.074 125.299 875.441C124.25 874.808 123.436 873.937 122.855 872.828C122.283 871.71 121.997 870.427 121.997 868.98C121.997 867.507 122.292 866.215 122.881 865.106C123.47 863.997 124.289 863.13 125.338 862.506C126.387 861.882 127.6 861.57 128.978 861.57C130.391 861.57 131.621 861.886 132.67 862.519C133.719 863.152 134.533 864.027 135.114 865.145C135.695 866.254 135.985 867.533 135.985 868.98C135.985 870.436 135.69 871.723 135.101 872.841C134.52 873.95 133.706 874.821 132.657 875.454C131.608 876.078 130.382 876.39 128.978 876.39ZM128.978 873.452C130.226 873.452 131.153 873.036 131.76 872.204C132.367 871.372 132.67 870.297 132.67 868.98C132.67 867.619 132.362 866.536 131.747 865.73C131.132 864.915 130.209 864.508 128.978 864.508C128.137 864.508 127.444 864.699 126.898 865.08C126.361 865.453 125.962 865.977 125.702 866.653C125.442 867.32 125.312 868.096 125.312 868.98C125.312 870.341 125.62 871.428 126.235 872.243C126.859 873.049 127.773 873.452 128.978 873.452ZM144.114 876.403C143.074 876.403 142.216 876.23 141.54 875.883C140.864 875.536 140.327 875.094 139.928 874.557C139.53 874.02 139.235 873.448 139.044 872.841C138.854 872.234 138.728 871.662 138.667 871.125C138.615 870.579 138.589 870.137 138.589 869.799V861.96H141.761V868.72C141.761 869.153 141.792 869.643 141.852 870.189C141.913 870.726 142.052 871.246 142.268 871.749C142.494 872.243 142.823 872.65 143.256 872.971C143.698 873.292 144.292 873.452 145.037 873.452C145.436 873.452 145.83 873.387 146.22 873.257C146.61 873.127 146.961 872.906 147.273 872.594C147.594 872.273 147.85 871.836 148.04 871.281C148.231 870.726 148.326 870.024 148.326 869.175L150.185 869.968C150.185 871.164 149.951 872.247 149.483 873.218C149.024 874.189 148.344 874.964 147.442 875.545C146.541 876.117 145.432 876.403 144.114 876.403ZM148.703 876V871.645H148.326V861.96H151.472V876H148.703ZM163.354 876C162.426 876.173 161.516 876.247 160.624 876.221C159.74 876.204 158.947 876.043 158.245 875.74C157.543 875.428 157.01 874.938 156.646 874.271C156.325 873.664 156.156 873.045 156.139 872.412C156.121 871.779 156.113 871.064 156.113 870.267V858.06H159.233V870.085C159.233 870.648 159.237 871.142 159.246 871.567C159.263 871.992 159.354 872.338 159.519 872.607C159.831 873.127 160.329 873.417 161.014 873.478C161.698 873.539 162.478 873.504 163.354 873.374V876ZM153.565 864.417V861.96H163.354V864.417H153.565Z" fill="white"/>
<path d="M43.0006 464.301C40.5738 464.301 38.6006 466.274 38.6006 468.701C38.6006 469.005 38.8468 469.251 39.1506 469.251C39.4543 469.251 39.7006 469.005 39.7006 468.701C39.7006 466.882 41.1813 465.401 43.0006 465.401C44.8198 465.401 46.3006 466.882 46.3006 468.701C46.3006 470.074 45.5392 470.75 44.5677 471.583L44.5335 471.612C43.5866 472.424 42.4506 473.397 42.4506 475.301V475.851C42.4506 476.155 42.6968 476.401 43.0006 476.401C43.3043 476.401 43.5506 476.155 43.5506 475.851V475.301C43.5506 473.927 44.312 473.251 45.2835 472.418L45.3177 472.389C46.2645 471.578 47.4006 470.604 47.4006 468.701C47.4006 466.274 45.4273 464.301 43.0006 464.301ZM43.0006 479.701C43.4562 479.701 43.8256 479.331 43.8256 478.876C43.8256 478.42 43.4562 478.051 43.0006 478.051C42.545 478.051 42.1756 478.42 42.1756 478.876C42.1756 479.331 42.545 479.701 43.0006 479.701Z" fill="white"/>
<rect x="27.5" y="456.5" width="31" height="31" stroke="white"/>
<path d="M76.82 482V463.28H79.953V471.158H88.819V463.28H91.939V482H88.819V474.096H79.953V482H76.82ZM101.785 482.39C100.381 482.39 99.1543 482.074 98.1057 481.441C97.057 480.808 96.2423 479.937 95.6617 478.828C95.0897 477.71 94.8037 476.427 94.8037 474.98C94.8037 473.507 95.0983 472.215 95.6877 471.106C96.277 469.997 97.096 469.13 98.1447 468.506C99.1933 467.882 100.407 467.57 101.785 467.57C103.197 467.57 104.428 467.886 105.477 468.519C106.525 469.152 107.34 470.027 107.921 471.145C108.501 472.254 108.792 473.533 108.792 474.98C108.792 476.436 108.497 477.723 107.908 478.841C107.327 479.95 106.512 480.821 105.464 481.454C104.415 482.078 103.189 482.39 101.785 482.39ZM101.785 479.452C103.033 479.452 103.96 479.036 104.567 478.204C105.173 477.372 105.477 476.297 105.477 474.98C105.477 473.619 105.169 472.536 104.554 471.73C103.938 470.915 103.015 470.508 101.785 470.508C100.944 470.508 100.251 470.699 99.7047 471.08C99.1673 471.453 98.7687 471.977 98.5087 472.653C98.2487 473.32 98.1187 474.096 98.1187 474.98C98.1187 476.341 98.4263 477.428 99.0417 478.243C99.6657 479.049 100.58 479.452 101.785 479.452ZM114.138 482L109.848 467.934L112.916 467.96L115.659 476.969L118.441 467.96H121.08L123.849 476.969L126.605 467.96H129.673L125.383 482H122.939L119.754 472.341L116.582 482H114.138ZM145.453 482C144.526 482.173 143.616 482.247 142.723 482.221C141.839 482.204 141.046 482.043 140.344 481.74C139.642 481.428 139.109 480.938 138.745 480.271C138.425 479.664 138.256 479.045 138.238 478.412C138.221 477.779 138.212 477.064 138.212 476.267V464.06H141.332V476.085C141.332 476.648 141.337 477.142 141.345 477.567C141.363 477.992 141.454 478.338 141.618 478.607C141.93 479.127 142.429 479.417 143.113 479.478C143.798 479.539 144.578 479.504 145.453 479.374V482ZM135.664 470.417V467.96H145.453V470.417H135.664ZM153.962 482.39C152.558 482.39 151.332 482.074 150.283 481.441C149.235 480.808 148.42 479.937 147.839 478.828C147.267 477.71 146.981 476.427 146.981 474.98C146.981 473.507 147.276 472.215 147.865 471.106C148.455 469.997 149.274 469.13 150.322 468.506C151.371 467.882 152.584 467.57 153.962 467.57C155.375 467.57 156.606 467.886 157.654 468.519C158.703 469.152 159.518 470.027 160.098 471.145C160.679 472.254 160.969 473.533 160.969 474.98C160.969 476.436 160.675 477.723 160.085 478.841C159.505 479.95 158.69 480.821 157.641 481.454C156.593 482.078 155.366 482.39 153.962 482.39ZM153.962 479.452C155.21 479.452 156.138 479.036 156.744 478.204C157.351 477.372 157.654 476.297 157.654 474.98C157.654 473.619 157.347 472.536 156.731 471.73C156.116 470.915 155.193 470.508 153.962 470.508C153.122 470.508 152.428 470.699 151.882 471.08C151.345 471.453 150.946 471.977 150.686 472.653C150.426 473.32 150.296 474.096 150.296 474.98C150.296 476.341 150.604 477.428 151.219 478.243C151.843 479.049 152.758 479.452 153.962 479.452ZM174.304 482.403C173.264 482.403 172.406 482.23 171.73 481.883C171.054 481.536 170.516 481.094 170.118 480.557C169.719 480.02 169.424 479.448 169.234 478.841C169.043 478.234 168.917 477.662 168.857 477.125C168.805 476.579 168.779 476.137 168.779 475.799V467.96H171.951V474.72C171.951 475.153 171.981 475.643 172.042 476.189C172.102 476.726 172.241 477.246 172.458 477.749C172.683 478.243 173.012 478.65 173.446 478.971C173.888 479.292 174.481 479.452 175.227 479.452C175.625 479.452 176.02 479.387 176.41 479.257C176.8 479.127 177.151 478.906 177.463 478.594C177.783 478.273 178.039 477.836 178.23 477.281C178.42 476.726 178.516 476.024 178.516 475.175L180.375 475.968C180.375 477.164 180.141 478.247 179.673 479.218C179.213 480.189 178.533 480.964 177.632 481.545C176.73 482.117 175.621 482.403 174.304 482.403ZM178.893 482V477.645H178.516V467.96H181.662V482H178.893ZM190.735 482.39C189.002 482.39 187.593 482 186.51 481.22C185.427 480.44 184.768 479.344 184.534 477.931L187.732 477.437C187.897 478.13 188.261 478.676 188.824 479.075C189.387 479.474 190.098 479.673 190.956 479.673C191.71 479.673 192.291 479.526 192.698 479.231C193.114 478.928 193.322 478.516 193.322 477.996C193.322 477.675 193.244 477.42 193.088 477.229C192.941 477.03 192.611 476.839 192.1 476.657C191.589 476.475 190.804 476.245 189.747 475.968C188.568 475.656 187.632 475.322 186.939 474.967C186.246 474.603 185.747 474.174 185.444 473.68C185.141 473.186 184.989 472.588 184.989 471.886C184.989 471.011 185.219 470.248 185.678 469.598C186.137 468.948 186.779 468.45 187.602 468.103C188.425 467.748 189.396 467.57 190.514 467.57C191.606 467.57 192.572 467.739 193.413 468.077C194.262 468.415 194.947 468.896 195.467 469.52C195.987 470.144 196.308 470.876 196.429 471.717L193.231 472.289C193.153 471.691 192.88 471.219 192.412 470.872C191.953 470.525 191.337 470.33 190.566 470.287C189.829 470.244 189.236 470.356 188.785 470.625C188.334 470.885 188.109 471.253 188.109 471.73C188.109 471.999 188.2 472.228 188.382 472.419C188.564 472.61 188.928 472.8 189.474 472.991C190.029 473.182 190.852 473.416 191.944 473.693C193.062 473.979 193.955 474.308 194.622 474.681C195.298 475.045 195.783 475.483 196.078 475.994C196.381 476.505 196.533 477.125 196.533 477.853C196.533 479.266 196.017 480.375 194.986 481.181C193.963 481.987 192.546 482.39 190.735 482.39ZM205.764 482.39C204.342 482.39 203.094 482.082 202.02 481.467C200.945 480.852 200.104 479.998 199.498 478.906C198.9 477.814 198.601 476.557 198.601 475.136C198.601 473.602 198.895 472.272 199.485 471.145C200.074 470.01 200.893 469.13 201.942 468.506C202.99 467.882 204.204 467.57 205.582 467.57C207.038 467.57 208.273 467.912 209.287 468.597C210.309 469.273 211.068 470.231 211.562 471.47C212.056 472.709 212.242 474.17 212.121 475.851H209.014V474.707C209.005 473.182 208.736 472.068 208.208 471.366C207.679 470.664 206.847 470.313 205.712 470.313C204.429 470.313 203.476 470.712 202.852 471.509C202.228 472.298 201.916 473.455 201.916 474.98C201.916 476.401 202.228 477.502 202.852 478.282C203.476 479.062 204.386 479.452 205.582 479.452C206.353 479.452 207.016 479.283 207.571 478.945C208.134 478.598 208.567 478.1 208.871 477.45L211.965 478.386C211.427 479.651 210.595 480.635 209.469 481.337C208.351 482.039 207.116 482.39 205.764 482.39ZM200.928 475.851V473.485H210.587V475.851H200.928Z" fill="white"/>
<defs>
<filter id="filter0_d_1343_4471" x="679" y="795" width="371" height="91" filterUnits="userSpaceOnUse" color-interpolation-filters="sRGB">
<feFlood flood-opacity="0" result="BackgroundImageFix"/>
<feColorMatrix in="SourceAlpha" type="matrix" values="0 0 0 0 0 0 0 0 0 0 0 0 0 0 0 0 0 0 127 0" result="hardAlpha"/>
<feOffset dy="12"/>
<feGaussianBlur stdDeviation="10"/>
<feComposite in2="hardAlpha" operator="out"/>
<feColorMatrix type="matrix" values="0 0 0 0 0 0 0 0 0 0 0 0 0 0 0 0 0 0 0.15 0"/>
<feBlend mode="normal" in2="BackgroundImageFix" result="effect1_dropShadow_1343_4471"/>
<feBlend mode="normal" in="SourceGraphic" in2="effect1_dropShadow_1343_4471" result="shape"/>
</filter>
</defs>
</svg>
