<svg width="65" height="64" viewBox="0 0 65 64" fill="none" xmlns="http://www.w3.org/2000/svg">
<path d="M55.3462 54.6274C50.7387 59.1751 44.8498 62.2469 38.4474 63.4423C32.045 64.6378 25.4262 63.9014 19.454 61.3291C13.4819 58.7568 8.43367 54.4681 4.96755 49.0222C1.50142 43.5762 -0.221712 37.2258 0.0228425 30.799C0.267397 24.3722 2.46829 18.1672 6.33853 12.9932C10.2088 7.81926 15.5687 3.91637 21.7195 1.79351C27.8703 -0.329353 34.5264 -0.573672 40.8199 1.09241C47.1135 2.75849 52.7523 6.25766 57.0012 11.1336L49.3844 17.5996C46.4522 14.2346 42.5606 11.8197 38.2173 10.6699C33.874 9.5201 29.2804 9.68871 25.0356 11.1537C20.7908 12.6188 17.0918 15.3123 14.4209 18.883C11.7499 22.4536 10.231 26.7358 10.0622 31.1712C9.89347 35.6065 11.0826 39.989 13.4747 43.7474C15.8668 47.5058 19.3507 50.4656 23.4722 52.2407C27.5937 54.0159 32.1615 54.5241 36.58 53.6991C40.9984 52.8741 45.0625 50.7542 48.2423 47.6157L55.3462 54.6274Z" fill="#BCB5DB"/>
<path d="M20.904 43.3667C23.2186 45.6512 26.1769 47.1944 29.3931 47.7949C32.6093 48.3954 35.9343 48.0255 38.9343 46.7333C41.9344 45.4411 44.4704 43.2867 46.2116 40.551C47.9528 37.8152 48.8184 34.6251 48.6956 31.3966C48.5727 28.1681 47.4671 25.0511 45.5229 22.4519C43.5787 19.8528 40.8861 17.8922 37.7963 16.8258C34.7065 15.7594 31.3628 15.6366 28.2012 16.4736C25.0397 17.3105 22.207 19.0683 20.0726 21.5177L24.788 25.5207C26.1073 24.0066 27.8582 22.9201 29.8125 22.4028C31.7667 21.8854 33.8335 21.9613 35.7434 22.6205C37.6532 23.2796 39.3176 24.4915 40.5193 26.0981C41.7211 27.7047 42.4045 29.6314 42.4804 31.627C42.5563 33.6226 42.0213 35.5945 40.945 37.2855C39.8688 38.9765 38.3012 40.3082 36.4468 41.1069C34.5924 41.9056 32.5372 42.1343 30.5492 41.7631C28.5611 41.3919 26.7326 40.4381 25.3019 39.026L20.904 43.3667Z" fill="#F55353"/>
</svg>
