<svg width="25" height="28" viewBox="0 0 25 28" fill="none" xmlns="http://www.w3.org/2000/svg">
<path d="M8.59961 0.700195C6.8323 0.700195 5.39961 2.13289 5.39961 3.9002V12.2314C5.91526 12.0856 6.45015 11.9856 6.99961 11.9361V3.9002C6.99961 3.01654 7.71595 2.3002 8.59961 2.3002H14.9996V7.9002C14.9996 9.22568 16.0741 10.3002 17.3996 10.3002H22.9996V23.1002C22.9996 23.9839 22.2833 24.7002 21.3996 24.7002H15.6401C15.3474 25.2726 14.994 25.8088 14.5882 26.3002H21.3996C23.1669 26.3002 24.5996 24.8675 24.5996 23.1002V9.36294C24.5996 8.72642 24.3468 8.11597 23.8967 7.66588L17.6339 1.40314C17.1838 0.953052 16.5734 0.700195 15.9369 0.700195H8.59961ZM22.6682 8.7002H17.3996C16.9578 8.7002 16.5996 8.34202 16.5996 7.9002V2.63157L22.6682 8.7002ZM7.79961 27.9002C11.7761 27.9002 14.9996 24.6766 14.9996 20.7002C14.9996 16.7237 11.7761 13.5002 7.79961 13.5002C3.82316 13.5002 0.599609 16.7237 0.599609 20.7002C0.599609 24.6766 3.82316 27.9002 7.79961 27.9002ZM4.03392 21.2659C3.7215 20.9535 3.7215 20.4469 4.03392 20.1345C4.34634 19.8221 4.85288 19.8221 5.16529 20.1345L6.99961 21.9688L6.99961 17.5002C6.99961 17.0584 7.35778 16.7002 7.79961 16.7002C8.24144 16.7002 8.59961 17.0584 8.59961 17.5002V21.9688L10.4339 20.1345C10.7463 19.8221 11.2529 19.8221 11.5653 20.1345C11.8777 20.4469 11.8777 20.9535 11.5653 21.2659L8.36529 24.4659C8.28859 24.5426 8.20019 24.6005 8.10583 24.6395C8.0129 24.678 7.91113 24.6996 7.80441 24.7002L7.79961 24.7002L7.79481 24.7002C7.68809 24.6996 7.58632 24.678 7.49338 24.6395C7.40042 24.601 7.31324 24.5443 7.23733 24.4693L7.23329 24.4652L4.03392 21.2659Z" fill="white"/>
</svg>
