<svg width="32" height="32" viewBox="0 0 32 32" fill="none" xmlns="http://www.w3.org/2000/svg">
<path d="M29.3333 11.36V5.30663C29.3333 3.42663 28.48 2.66663 26.36 2.66663H20.9733C18.8533 2.66663 18 3.42663 18 5.30663V11.3466C18 13.24 18.8533 13.9866 20.9733 13.9866H26.36C28.48 14 29.3333 13.24 29.3333 11.36Z" stroke="white" stroke-width="1.5" stroke-linecap="round" stroke-linejoin="round"/>
<path d="M29.3333 26.36V20.9733C29.3333 18.8533 28.48 18 26.36 18H20.9733C18.8533 18 18 18.8533 18 20.9733V26.36C18 28.48 18.8533 29.3333 20.9733 29.3333H26.36C28.48 29.3333 29.3333 28.48 29.3333 26.36Z" stroke="white" stroke-width="1.5" stroke-linecap="round" stroke-linejoin="round"/>
<path d="M14.0003 11.36V5.30663C14.0003 3.42663 13.147 2.66663 11.027 2.66663H5.64033C3.52033 2.66663 2.66699 3.42663 2.66699 5.30663V11.3466C2.66699 13.24 3.52033 13.9866 5.64033 13.9866H11.027C13.147 14 14.0003 13.24 14.0003 11.36Z" stroke="white" stroke-width="1.5" stroke-linecap="round" stroke-linejoin="round"/>
<path d="M14.0003 26.36V20.9733C14.0003 18.8533 13.147 18 11.027 18H5.64033C3.52033 18 2.66699 18.8533 2.66699 20.9733V26.36C2.66699 28.48 3.52033 29.3333 5.64033 29.3333H11.027C13.147 29.3333 14.0003 28.48 14.0003 26.36Z" stroke="white" stroke-width="1.5" stroke-linecap="round" stroke-linejoin="round"/>
</svg>
