<svg width="1201" height="1024" viewBox="0 0 1201 1024" fill="none" xmlns="http://www.w3.org/2000/svg">
<rect width="1201" height="1024" fill="white"/>
<rect x="166" y="244" width="868" height="536" rx="25" fill="white"/>
<rect x="369" y="544" width="462" height="30" rx="15" fill="white" stroke="#372092" stroke-width="2"/>
<path d="M508.984 493.48C506.68 493.48 504.707 492.979 503.064 491.976C501.421 490.963 500.157 489.555 499.272 487.752C498.397 485.949 497.96 483.859 497.96 481.48C497.96 479.101 498.397 477.011 499.272 475.208C500.157 473.405 501.421 472.003 503.064 471C504.707 469.987 506.68 469.48 508.984 469.48C511.64 469.48 513.853 470.147 515.624 471.48C517.395 472.803 518.637 474.589 519.352 476.84L515.464 477.912C515.016 476.408 514.253 475.235 513.176 474.392C512.099 473.539 510.701 473.112 508.984 473.112C507.437 473.112 506.147 473.459 505.112 474.152C504.088 474.845 503.315 475.821 502.792 477.08C502.28 478.328 502.019 479.795 502.008 481.48C502.008 483.165 502.264 484.637 502.776 485.896C503.299 487.144 504.077 488.115 505.112 488.808C506.147 489.501 507.437 489.848 508.984 489.848C510.701 489.848 512.099 489.421 513.176 488.568C514.253 487.715 515.016 486.541 515.464 485.048L519.352 486.12C518.637 488.371 517.395 490.163 515.624 491.496C513.853 492.819 511.64 493.48 508.984 493.48ZM534.817 493V484.68C534.817 484.136 534.78 483.533 534.705 482.872C534.63 482.211 534.454 481.576 534.177 480.968C533.91 480.349 533.505 479.843 532.961 479.448C532.428 479.053 531.702 478.856 530.785 478.856C530.294 478.856 529.809 478.936 529.329 479.096C528.849 479.256 528.412 479.533 528.017 479.928C527.633 480.312 527.324 480.845 527.089 481.528C526.854 482.2 526.737 483.064 526.737 484.12L524.449 483.144C524.449 481.672 524.732 480.339 525.297 479.144C525.873 477.949 526.716 477 527.825 476.296C528.934 475.581 530.3 475.224 531.921 475.224C533.201 475.224 534.257 475.437 535.089 475.864C535.921 476.291 536.582 476.835 537.073 477.496C537.564 478.157 537.926 478.861 538.161 479.608C538.396 480.355 538.545 481.064 538.609 481.736C538.684 482.397 538.721 482.936 538.721 483.352V493H534.817ZM522.833 493V469.96H526.273V482.088H526.737V493H522.833ZM549.376 493.496C548.096 493.496 547.04 493.283 546.208 492.856C545.376 492.429 544.715 491.885 544.224 491.224C543.734 490.563 543.371 489.859 543.136 489.112C542.902 488.365 542.747 487.661 542.672 487C542.608 486.328 542.576 485.784 542.576 485.368V475.72H546.48V484.04C546.48 484.573 546.518 485.176 546.592 485.848C546.667 486.509 546.838 487.149 547.104 487.768C547.382 488.376 547.787 488.877 548.32 489.272C548.864 489.667 549.595 489.864 550.512 489.864C551.003 489.864 551.488 489.784 551.968 489.624C552.448 489.464 552.88 489.192 553.264 488.808C553.659 488.413 553.974 487.875 554.208 487.192C554.443 486.509 554.56 485.645 554.56 484.6L556.848 485.576C556.848 487.048 556.56 488.381 555.984 489.576C555.419 490.771 554.582 491.725 553.472 492.44C552.363 493.144 550.998 493.496 549.376 493.496ZM555.024 493V487.64H554.56V475.72H558.432V493H555.024ZM574.88 493V484.68C574.88 484.136 574.842 483.533 574.768 482.872C574.693 482.211 574.517 481.576 574.24 480.968C573.973 480.349 573.568 479.843 573.024 479.448C572.49 479.053 571.765 478.856 570.848 478.856C570.357 478.856 569.872 478.936 569.392 479.096C568.912 479.256 568.474 479.533 568.08 479.928C567.696 480.312 567.386 480.845 567.152 481.528C566.917 482.2 566.8 483.064 566.8 484.12L564.512 483.144C564.512 481.672 564.794 480.339 565.36 479.144C565.936 477.949 566.778 477 567.888 476.296C568.997 475.581 570.362 475.224 571.984 475.224C573.264 475.224 574.32 475.437 575.152 475.864C575.984 476.291 576.645 476.835 577.135 477.496C577.626 478.157 577.989 478.861 578.224 479.608C578.458 480.355 578.608 481.064 578.672 481.736C578.746 482.397 578.784 482.936 578.784 483.352V493H574.88ZM562.896 493V475.72H566.336V481.08H566.8V493H562.896ZM582.927 493L582.959 469.96H586.863V484.04L593.183 475.72H597.999L591.295 484.36L598.575 493H593.471L586.863 484.68V493H582.927ZM600.498 473.096V469.56H604.354V473.096H600.498ZM600.498 493V475.72H604.354V493H600.498ZM621.098 493V484.68C621.098 484.136 621.061 483.533 620.986 482.872C620.912 482.211 620.736 481.576 620.458 480.968C620.192 480.349 619.786 479.843 619.242 479.448C618.709 479.053 617.984 478.856 617.066 478.856C616.576 478.856 616.09 478.936 615.61 479.096C615.13 479.256 614.693 479.533 614.298 479.928C613.914 480.312 613.605 480.845 613.37 481.528C613.136 482.2 613.018 483.064 613.018 484.12L610.73 483.144C610.73 481.672 611.013 480.339 611.578 479.144C612.154 477.949 612.997 477 614.106 476.296C615.216 475.581 616.581 475.224 618.202 475.224C619.482 475.224 620.538 475.437 621.37 475.864C622.202 476.291 622.864 476.835 623.354 477.496C623.845 478.157 624.208 478.861 624.442 479.608C624.677 480.355 624.826 481.064 624.89 481.736C624.965 482.397 625.002 482.936 625.002 483.352V493H621.098ZM609.114 493V475.72H612.554V481.08H613.018V493H609.114ZM636.442 501.16C635.482 501.16 634.559 501.011 633.674 500.712C632.799 500.413 632.01 499.981 631.306 499.416C630.602 498.861 630.026 498.189 629.578 497.4L633.13 495.64C633.46 496.269 633.924 496.733 634.522 497.032C635.13 497.341 635.775 497.496 636.458 497.496C637.258 497.496 637.972 497.352 638.602 497.064C639.231 496.787 639.716 496.371 640.058 495.816C640.41 495.272 640.575 494.589 640.554 493.768V488.856H641.034V475.72H644.41V493.832C644.41 494.269 644.388 494.685 644.346 495.08C644.314 495.485 644.255 495.88 644.17 496.264C643.914 497.384 643.423 498.301 642.698 499.016C641.972 499.741 641.071 500.28 639.994 500.632C638.927 500.984 637.743 501.16 636.442 501.16ZM636.106 493.48C634.516 493.48 633.13 493.08 631.946 492.28C630.762 491.48 629.844 490.392 629.194 489.016C628.543 487.64 628.218 486.088 628.218 484.36C628.218 482.611 628.543 481.053 629.194 479.688C629.855 478.312 630.788 477.229 631.994 476.44C633.199 475.64 634.618 475.24 636.25 475.24C637.892 475.24 639.268 475.64 640.378 476.44C641.498 477.229 642.346 478.312 642.922 479.688C643.498 481.064 643.786 482.621 643.786 484.36C643.786 486.077 643.498 487.629 642.922 489.016C642.346 490.392 641.487 491.48 640.346 492.28C639.204 493.08 637.791 493.48 636.106 493.48ZM636.698 490.024C637.732 490.024 638.564 489.789 639.194 489.32C639.834 488.84 640.298 488.173 640.586 487.32C640.884 486.467 641.034 485.48 641.034 484.36C641.034 483.229 640.884 482.243 640.586 481.4C640.298 480.547 639.844 479.885 639.226 479.416C638.607 478.936 637.807 478.696 636.826 478.696C635.791 478.696 634.938 478.952 634.266 479.464C633.594 479.965 633.098 480.648 632.778 481.512C632.458 482.365 632.298 483.315 632.298 484.36C632.298 485.416 632.452 486.376 632.762 487.24C633.082 488.093 633.567 488.771 634.218 489.272C634.868 489.773 635.695 490.024 636.698 490.024ZM656.807 493V475.448C656.807 475.011 656.823 474.531 656.855 474.008C656.887 473.475 656.977 472.947 657.127 472.424C657.276 471.901 657.548 471.427 657.943 471C658.433 470.456 658.961 470.083 659.527 469.88C660.103 469.667 660.668 469.549 661.223 469.528C661.777 469.496 662.263 469.48 662.679 469.48H664.839V472.616H662.839C662.103 472.616 661.553 472.803 661.191 473.176C660.839 473.539 660.663 474.019 660.663 474.616V493H656.807ZM654.023 478.744V475.72H664.839V478.744H654.023ZM668.199 473.096V469.56H672.055V473.096H668.199ZM668.199 493V475.72H672.055V493H668.199ZM677.185 493V469.48H681.041V493H677.185ZM693.69 493.48C691.94 493.48 690.404 493.101 689.082 492.344C687.759 491.587 686.724 490.536 685.978 489.192C685.242 487.848 684.874 486.301 684.874 484.552C684.874 482.664 685.236 481.027 685.962 479.64C686.687 478.243 687.695 477.16 688.986 476.392C690.276 475.624 691.77 475.24 693.466 475.24C695.258 475.24 696.778 475.661 698.026 476.504C699.284 477.336 700.218 478.515 700.826 480.04C701.434 481.565 701.663 483.363 701.514 485.432H697.69V484.024C697.679 482.147 697.348 480.776 696.698 479.912C696.047 479.048 695.023 478.616 693.626 478.616C692.047 478.616 690.874 479.107 690.106 480.088C689.338 481.059 688.954 482.483 688.954 484.36C688.954 486.109 689.338 487.464 690.106 488.424C690.874 489.384 691.994 489.864 693.466 489.864C694.415 489.864 695.231 489.656 695.914 489.24C696.607 488.813 697.14 488.2 697.514 487.4L701.322 488.552C700.66 490.109 699.636 491.32 698.25 492.184C696.874 493.048 695.354 493.48 693.69 493.48ZM687.738 485.432V482.52H699.626V485.432H687.738Z" fill="#353534"/>
<rect x="166" y="244" width="868" height="536" rx="25" stroke="#372092" stroke-linecap="round"/>
<path d="M484.768 126.48C483.083 126.48 481.563 126.187 480.208 125.6C478.864 125.013 477.755 124.176 476.88 123.088C476.016 121.989 475.467 120.688 475.232 119.184L479.232 118.576C479.573 119.941 480.272 120.997 481.328 121.744C482.395 122.491 483.621 122.864 485.008 122.864C485.829 122.864 486.603 122.736 487.328 122.48C488.053 122.224 488.64 121.851 489.088 121.36C489.547 120.869 489.776 120.267 489.776 119.552C489.776 119.232 489.723 118.939 489.616 118.672C489.509 118.395 489.349 118.149 489.136 117.936C488.933 117.723 488.667 117.531 488.336 117.36C488.016 117.179 487.643 117.024 487.216 116.896L481.264 115.136C480.752 114.987 480.197 114.789 479.6 114.544C479.013 114.288 478.453 113.941 477.92 113.504C477.397 113.056 476.965 112.491 476.624 111.808C476.293 111.115 476.128 110.261 476.128 109.248C476.128 107.765 476.501 106.523 477.248 105.52C478.005 104.507 479.019 103.749 480.288 103.248C481.568 102.747 482.987 102.501 484.544 102.512C486.123 102.523 487.531 102.795 488.768 103.328C490.005 103.851 491.04 104.613 491.872 105.616C492.704 106.619 493.291 107.829 493.632 109.248L489.488 109.968C489.317 109.157 488.987 108.469 488.496 107.904C488.016 107.328 487.424 106.891 486.72 106.592C486.027 106.293 485.285 106.133 484.496 106.112C483.728 106.101 483.013 106.219 482.352 106.464C481.701 106.699 481.173 107.04 480.768 107.488C480.373 107.936 480.176 108.459 480.176 109.056C480.176 109.621 480.347 110.085 480.688 110.448C481.029 110.8 481.451 111.083 481.952 111.296C482.464 111.499 482.981 111.669 483.504 111.808L487.632 112.96C488.197 113.109 488.832 113.312 489.536 113.568C490.24 113.824 490.917 114.181 491.568 114.64C492.219 115.099 492.752 115.701 493.168 116.448C493.595 117.195 493.808 118.144 493.808 119.296C493.808 120.491 493.557 121.541 493.056 122.448C492.565 123.344 491.899 124.091 491.056 124.688C490.213 125.285 489.248 125.733 488.16 126.032C487.083 126.331 485.952 126.48 484.768 126.48ZM505.575 126.48C503.89 126.48 502.477 126.08 501.335 125.28C500.194 124.48 499.335 123.392 498.759 122.016C498.183 120.629 497.895 119.077 497.895 117.36C497.895 115.621 498.183 114.064 498.759 112.688C499.335 111.312 500.178 110.229 501.287 109.44C502.407 108.64 503.789 108.24 505.431 108.24C507.063 108.24 508.477 108.64 509.671 109.44C510.877 110.229 511.81 111.312 512.471 112.688C513.133 114.053 513.463 115.611 513.463 117.36C513.463 119.088 513.138 120.64 512.487 122.016C511.837 123.392 510.919 124.48 509.735 125.28C508.551 126.08 507.165 126.48 505.575 126.48ZM497.239 133.68V108.72H500.647V120.848H501.127V133.68H497.239ZM504.983 123.024C505.986 123.024 506.813 122.773 507.463 122.272C508.114 121.771 508.594 121.093 508.903 120.24C509.223 119.376 509.383 118.416 509.383 117.36C509.383 116.315 509.223 115.365 508.903 114.512C508.583 113.648 508.087 112.965 507.415 112.464C506.743 111.952 505.89 111.696 504.855 111.696C503.874 111.696 503.074 111.936 502.455 112.416C501.837 112.885 501.378 113.547 501.079 114.4C500.791 115.243 500.647 116.229 500.647 117.36C500.647 118.48 500.791 119.467 501.079 120.32C501.378 121.173 501.842 121.84 502.471 122.32C503.111 122.789 503.949 123.024 504.983 123.024ZM517.31 126V102.48H521.166V126H517.31ZM526.279 106.096V102.56H530.135V106.096H526.279ZM526.279 126V108.72H530.135V126H526.279ZM545.056 126C543.914 126.213 542.794 126.304 541.696 126.272C540.608 126.251 539.632 126.053 538.768 125.68C537.904 125.296 537.248 124.693 536.799 123.872C536.405 123.125 536.197 122.363 536.176 121.584C536.154 120.805 536.144 119.925 536.144 118.944V103.92H539.984V118.72C539.984 119.413 539.989 120.021 540 120.544C540.021 121.067 540.133 121.493 540.336 121.824C540.72 122.464 541.333 122.821 542.176 122.896C543.018 122.971 543.978 122.928 545.056 122.768V126ZM533.008 111.744V108.72H545.056V111.744H533.008ZM556.992 126C555.85 126.213 554.73 126.304 553.632 126.272C552.544 126.251 551.568 126.053 550.704 125.68C549.84 125.296 549.184 124.693 548.736 123.872C548.341 123.125 548.133 122.363 548.112 121.584C548.09 120.805 548.08 119.925 548.08 118.944V103.92H551.92V118.72C551.92 119.413 551.925 120.021 551.936 120.544C551.957 121.067 552.069 121.493 552.272 121.824C552.656 122.464 553.269 122.821 554.112 122.896C554.954 122.971 555.914 122.928 556.992 122.768V126ZM544.944 111.744V108.72H556.992V111.744H544.944ZM561.06 106.096V102.56H564.916V106.096H561.06ZM561.06 126V108.72H564.916V126H561.06ZM581.661 126V117.68C581.661 117.136 581.623 116.533 581.549 115.872C581.474 115.211 581.298 114.576 581.021 113.968C580.754 113.349 580.349 112.843 579.805 112.448C579.271 112.053 578.546 111.856 577.629 111.856C577.138 111.856 576.653 111.936 576.173 112.096C575.693 112.256 575.255 112.533 574.861 112.928C574.477 113.312 574.167 113.845 573.933 114.528C573.698 115.2 573.581 116.064 573.581 117.12L571.293 116.144C571.293 114.672 571.575 113.339 572.141 112.144C572.717 110.949 573.559 110 574.669 109.296C575.778 108.581 577.143 108.224 578.765 108.224C580.045 108.224 581.101 108.437 581.933 108.864C582.765 109.291 583.426 109.835 583.917 110.496C584.407 111.157 584.77 111.861 585.005 112.608C585.239 113.355 585.389 114.064 585.453 114.736C585.527 115.397 585.565 115.936 585.565 116.352V126H581.661ZM569.677 126V108.72H573.117V114.08H573.581V126H569.677ZM597.004 134.16C596.044 134.16 595.121 134.011 594.236 133.712C593.361 133.413 592.572 132.981 591.868 132.416C591.164 131.861 590.588 131.189 590.14 130.4L593.692 128.64C594.023 129.269 594.487 129.733 595.084 130.032C595.692 130.341 596.337 130.496 597.02 130.496C597.82 130.496 598.535 130.352 599.164 130.064C599.793 129.787 600.279 129.371 600.62 128.816C600.972 128.272 601.137 127.589 601.116 126.768V121.856H601.596V108.72H604.972V126.832C604.972 127.269 604.951 127.685 604.908 128.08C604.876 128.485 604.817 128.88 604.732 129.264C604.476 130.384 603.985 131.301 603.26 132.016C602.535 132.741 601.633 133.28 600.556 133.632C599.489 133.984 598.305 134.16 597.004 134.16ZM596.668 126.48C595.079 126.48 593.692 126.08 592.508 125.28C591.324 124.48 590.407 123.392 589.756 122.016C589.105 120.64 588.78 119.088 588.78 117.36C588.78 115.611 589.105 114.053 589.756 112.688C590.417 111.312 591.351 110.229 592.556 109.44C593.761 108.64 595.18 108.24 596.812 108.24C598.455 108.24 599.831 108.64 600.94 109.44C602.06 110.229 602.908 111.312 603.484 112.688C604.06 114.064 604.348 115.621 604.348 117.36C604.348 119.077 604.06 120.629 603.484 122.016C602.908 123.392 602.049 124.48 600.908 125.28C599.767 126.08 598.353 126.48 596.668 126.48ZM597.26 123.024C598.295 123.024 599.127 122.789 599.756 122.32C600.396 121.84 600.86 121.173 601.148 120.32C601.447 119.467 601.596 118.48 601.596 117.36C601.596 116.229 601.447 115.243 601.148 114.4C600.86 113.547 600.407 112.885 599.788 112.416C599.169 111.936 598.369 111.696 597.388 111.696C596.353 111.696 595.5 111.952 594.828 112.464C594.156 112.965 593.66 113.648 593.34 114.512C593.02 115.365 592.86 116.315 592.86 117.36C592.86 118.416 593.015 119.376 593.324 120.24C593.644 121.093 594.129 121.771 594.78 122.272C595.431 122.773 596.257 123.024 597.26 123.024ZM618.137 133.68L621.465 124.544L621.529 127.232L613.993 108.72H618.009L623.353 122.416H622.329L627.529 108.72H631.385L621.753 133.68H618.137ZM640.778 126.48C639.05 126.48 637.541 126.091 636.25 125.312C634.96 124.533 633.957 123.461 633.242 122.096C632.538 120.72 632.186 119.141 632.186 117.36C632.186 115.547 632.549 113.957 633.274 112.592C634 111.227 635.008 110.16 636.298 109.392C637.589 108.624 639.082 108.24 640.778 108.24C642.517 108.24 644.032 108.629 645.322 109.408C646.613 110.187 647.616 111.264 648.33 112.64C649.045 114.005 649.402 115.579 649.402 117.36C649.402 119.152 649.04 120.736 648.314 122.112C647.6 123.477 646.597 124.549 645.306 125.328C644.016 126.096 642.506 126.48 640.778 126.48ZM640.778 122.864C642.314 122.864 643.456 122.352 644.202 121.328C644.949 120.304 645.322 118.981 645.322 117.36C645.322 115.685 644.944 114.352 644.186 113.36C643.429 112.357 642.293 111.856 640.778 111.856C639.744 111.856 638.89 112.091 638.218 112.56C637.557 113.019 637.066 113.664 636.746 114.496C636.426 115.317 636.266 116.272 636.266 117.36C636.266 119.035 636.645 120.373 637.402 121.376C638.17 122.368 639.296 122.864 640.778 122.864ZM659.408 126.496C658.128 126.496 657.072 126.283 656.24 125.856C655.408 125.429 654.746 124.885 654.256 124.224C653.765 123.563 653.402 122.859 653.168 122.112C652.933 121.365 652.778 120.661 652.704 120C652.64 119.328 652.608 118.784 652.608 118.368V108.72H656.512V117.04C656.512 117.573 656.549 118.176 656.624 118.848C656.698 119.509 656.869 120.149 657.136 120.768C657.413 121.376 657.818 121.877 658.352 122.272C658.896 122.667 659.626 122.864 660.544 122.864C661.034 122.864 661.52 122.784 662 122.624C662.48 122.464 662.912 122.192 663.296 121.808C663.69 121.413 664.005 120.875 664.24 120.192C664.474 119.509 664.592 118.645 664.592 117.6L666.88 118.576C666.88 120.048 666.592 121.381 666.016 122.576C665.45 123.771 664.613 124.725 663.504 125.44C662.394 126.144 661.029 126.496 659.408 126.496ZM665.056 126V120.64H664.592V108.72H668.464V126H665.056ZM672.959 126V108.72H676.367V112.928L675.951 112.384C676.164 111.808 676.447 111.285 676.799 110.816C677.161 110.336 677.593 109.941 678.095 109.632C678.521 109.344 678.991 109.12 679.503 108.96C680.025 108.789 680.559 108.688 681.103 108.656C681.647 108.613 682.175 108.635 682.687 108.72V112.32C682.175 112.171 681.583 112.123 680.911 112.176C680.249 112.229 679.652 112.416 679.119 112.736C678.585 113.024 678.148 113.392 677.807 113.84C677.476 114.288 677.231 114.8 677.071 115.376C676.911 115.941 676.831 116.555 676.831 117.216V126H672.959ZM693.65 126V108.448C693.65 108.011 693.666 107.531 693.698 107.008C693.73 106.475 693.821 105.947 693.97 105.424C694.12 104.901 694.392 104.427 694.786 104C695.277 103.456 695.805 103.083 696.37 102.88C696.946 102.667 697.512 102.549 698.066 102.528C698.621 102.496 699.106 102.48 699.522 102.48H701.682V105.616H699.682C698.946 105.616 698.397 105.803 698.034 106.176C697.682 106.539 697.506 107.019 697.506 107.616V126H693.65ZM690.866 111.744V108.72H701.682V111.744H690.866ZM705.042 106.096V102.56H708.898V106.096H705.042ZM705.042 126V108.72H708.898V126H705.042ZM714.029 126V102.48H717.885V126H714.029ZM730.534 126.48C728.784 126.48 727.248 126.101 725.926 125.344C724.603 124.587 723.568 123.536 722.822 122.192C722.086 120.848 721.718 119.301 721.718 117.552C721.718 115.664 722.08 114.027 722.806 112.64C723.531 111.243 724.539 110.16 725.83 109.392C727.12 108.624 728.614 108.24 730.31 108.24C732.102 108.24 733.622 108.661 734.87 109.504C736.128 110.336 737.062 111.515 737.67 113.04C738.278 114.565 738.507 116.363 738.358 118.432H734.534V117.024C734.523 115.147 734.192 113.776 733.542 112.912C732.891 112.048 731.867 111.616 730.47 111.616C728.891 111.616 727.718 112.107 726.95 113.088C726.182 114.059 725.798 115.483 725.798 117.36C725.798 119.109 726.182 120.464 726.95 121.424C727.718 122.384 728.838 122.864 730.31 122.864C731.259 122.864 732.075 122.656 732.758 122.24C733.451 121.813 733.984 121.2 734.358 120.4L738.166 121.552C737.504 123.109 736.48 124.32 735.094 125.184C733.718 126.048 732.198 126.48 730.534 126.48ZM724.582 118.432V115.52H736.47V118.432H724.582Z" fill="#353534"/>
</svg>
