<svg width="1201" height="1024" viewBox="0 0 1201 1024" fill="none" xmlns="http://www.w3.org/2000/svg">
<rect width="1201" height="1024" fill="white"/>
<rect x="167" y="244" width="868" height="536" rx="25" fill="white"/>
<rect x="370" y="544" width="462" height="30" rx="15" fill="white" stroke="#372092" stroke-width="2"/>
<path d="M505.52 493.48C503.685 493.48 502.069 493.107 500.672 492.36C499.285 491.613 498.197 490.563 497.408 489.208C496.629 487.853 496.24 486.264 496.24 484.44V469.992L500.144 469.96V484.344C500.144 485.208 500.288 485.981 500.576 486.664C500.875 487.347 501.275 487.928 501.776 488.408C502.277 488.877 502.853 489.235 503.504 489.48C504.155 489.725 504.827 489.848 505.52 489.848C506.235 489.848 506.912 489.725 507.552 489.48C508.203 489.224 508.779 488.861 509.28 488.392C509.781 487.912 510.176 487.331 510.464 486.648C510.752 485.965 510.896 485.197 510.896 484.344V469.96H514.8V484.44C514.8 486.264 514.405 487.853 513.616 489.208C512.837 490.563 511.749 491.613 510.352 492.36C508.965 493.107 507.355 493.48 505.52 493.48ZM527.575 493.48C525.89 493.48 524.477 493.08 523.335 492.28C522.194 491.48 521.335 490.392 520.759 489.016C520.183 487.629 519.895 486.077 519.895 484.36C519.895 482.621 520.183 481.064 520.759 479.688C521.335 478.312 522.178 477.229 523.287 476.44C524.407 475.64 525.789 475.24 527.431 475.24C529.063 475.24 530.477 475.64 531.671 476.44C532.877 477.229 533.81 478.312 534.471 479.688C535.133 481.053 535.463 482.611 535.463 484.36C535.463 486.088 535.138 487.64 534.487 489.016C533.837 490.392 532.919 491.48 531.735 492.28C530.551 493.08 529.165 493.48 527.575 493.48ZM519.239 500.68V475.72H522.647V487.848H523.127V500.68H519.239ZM526.983 490.024C527.986 490.024 528.813 489.773 529.463 489.272C530.114 488.771 530.594 488.093 530.903 487.24C531.223 486.376 531.383 485.416 531.383 484.36C531.383 483.315 531.223 482.365 530.903 481.512C530.583 480.648 530.087 479.965 529.415 479.464C528.743 478.952 527.89 478.696 526.855 478.696C525.874 478.696 525.074 478.936 524.455 479.416C523.837 479.885 523.378 480.547 523.079 481.4C522.791 482.243 522.647 483.229 522.647 484.36C522.647 485.48 522.791 486.467 523.079 487.32C523.378 488.173 523.842 488.84 524.471 489.32C525.111 489.789 525.949 490.024 526.983 490.024ZM539.31 493V469.48H543.166V493H539.31ZM555.591 493.48C553.863 493.48 552.353 493.091 551.063 492.312C549.772 491.533 548.769 490.461 548.055 489.096C547.351 487.72 546.999 486.141 546.999 484.36C546.999 482.547 547.361 480.957 548.087 479.592C548.812 478.227 549.82 477.16 551.111 476.392C552.401 475.624 553.895 475.24 555.591 475.24C557.329 475.24 558.844 475.629 560.135 476.408C561.425 477.187 562.428 478.264 563.143 479.64C563.857 481.005 564.215 482.579 564.215 484.36C564.215 486.152 563.852 487.736 563.127 489.112C562.412 490.477 561.409 491.549 560.119 492.328C558.828 493.096 557.319 493.48 555.591 493.48ZM555.591 489.864C557.127 489.864 558.268 489.352 559.015 488.328C559.761 487.304 560.135 485.981 560.135 484.36C560.135 482.685 559.756 481.352 558.999 480.36C558.241 479.357 557.105 478.856 555.591 478.856C554.556 478.856 553.703 479.091 553.031 479.56C552.369 480.019 551.879 480.664 551.559 481.496C551.239 482.317 551.079 483.272 551.079 484.36C551.079 486.035 551.457 487.373 552.215 488.376C552.983 489.368 554.108 489.864 555.591 489.864ZM572.572 493.48C571.324 493.48 570.268 493.245 569.404 492.776C568.54 492.296 567.884 491.661 567.436 490.872C566.999 490.083 566.78 489.213 566.78 488.264C566.78 487.432 566.919 486.685 567.196 486.024C567.473 485.352 567.9 484.776 568.476 484.296C569.052 483.805 569.799 483.405 570.716 483.096C571.409 482.872 572.22 482.669 573.148 482.488C574.087 482.307 575.1 482.141 576.188 481.992C577.287 481.832 578.433 481.661 579.628 481.48L578.252 482.264C578.263 481.069 577.996 480.189 577.452 479.624C576.908 479.059 575.991 478.776 574.7 478.776C573.921 478.776 573.169 478.957 572.444 479.32C571.719 479.683 571.212 480.307 570.924 481.192L567.404 480.088C567.831 478.627 568.641 477.453 569.836 476.568C571.041 475.683 572.663 475.24 574.7 475.24C576.236 475.24 577.585 475.491 578.748 475.992C579.921 476.493 580.791 477.315 581.356 478.456C581.665 479.064 581.852 479.688 581.916 480.328C581.98 480.957 582.012 481.645 582.012 482.392V493H578.636V489.256L579.196 489.864C578.417 491.112 577.505 492.029 576.46 492.616C575.425 493.192 574.129 493.48 572.572 493.48ZM573.34 490.408C574.215 490.408 574.961 490.253 575.58 489.944C576.199 489.635 576.689 489.256 577.052 488.808C577.425 488.36 577.676 487.939 577.804 487.544C578.007 487.053 578.119 486.493 578.14 485.864C578.172 485.224 578.188 484.707 578.188 484.312L579.372 484.664C578.209 484.845 577.212 485.005 576.38 485.144C575.548 485.283 574.833 485.416 574.236 485.544C573.639 485.661 573.111 485.795 572.652 485.944C572.204 486.104 571.825 486.291 571.516 486.504C571.207 486.717 570.967 486.963 570.796 487.24C570.636 487.517 570.556 487.843 570.556 488.216C570.556 488.643 570.663 489.021 570.876 489.352C571.089 489.672 571.399 489.928 571.804 490.12C572.22 490.312 572.732 490.408 573.34 490.408ZM593.106 493.48C591.516 493.48 590.13 493.08 588.946 492.28C587.762 491.48 586.844 490.392 586.194 489.016C585.543 487.64 585.218 486.088 585.218 484.36C585.218 482.611 585.543 481.053 586.194 479.688C586.855 478.312 587.788 477.229 588.994 476.44C590.199 475.64 591.618 475.24 593.25 475.24C594.892 475.24 596.268 475.64 597.378 476.44C598.498 477.229 599.346 478.312 599.922 479.688C600.498 481.064 600.786 482.621 600.786 484.36C600.786 486.077 600.498 487.629 599.922 489.016C599.346 490.392 598.487 491.48 597.346 492.28C596.204 493.08 594.791 493.48 593.106 493.48ZM593.698 490.024C594.732 490.024 595.564 489.789 596.194 489.32C596.834 488.84 597.298 488.173 597.586 487.32C597.884 486.467 598.034 485.48 598.034 484.36C598.034 483.229 597.884 482.243 597.586 481.4C597.298 480.547 596.844 479.885 596.226 479.416C595.607 478.936 594.807 478.696 593.826 478.696C592.791 478.696 591.938 478.952 591.266 479.464C590.594 479.965 590.098 480.648 589.778 481.512C589.458 482.365 589.298 483.315 589.298 484.36C589.298 485.416 589.452 486.376 589.762 487.24C590.082 488.093 590.567 488.771 591.218 489.272C591.868 489.773 592.695 490.024 593.698 490.024ZM598.034 493V480.872H597.554V469.96H601.442V493H598.034ZM606.248 473.096V469.56H610.104V473.096H606.248ZM606.248 493V475.72H610.104V493H606.248ZM626.848 493V484.68C626.848 484.136 626.811 483.533 626.736 482.872C626.662 482.211 626.486 481.576 626.208 480.968C625.942 480.349 625.536 479.843 624.992 479.448C624.459 479.053 623.734 478.856 622.816 478.856C622.326 478.856 621.84 478.936 621.36 479.096C620.88 479.256 620.443 479.533 620.048 479.928C619.664 480.312 619.355 480.845 619.12 481.528C618.886 482.2 618.768 483.064 618.768 484.12L616.48 483.144C616.48 481.672 616.763 480.339 617.328 479.144C617.904 477.949 618.747 477 619.856 476.296C620.966 475.581 622.331 475.224 623.952 475.224C625.232 475.224 626.288 475.437 627.12 475.864C627.952 476.291 628.614 476.835 629.104 477.496C629.595 478.157 629.958 478.861 630.192 479.608C630.427 480.355 630.576 481.064 630.64 481.736C630.715 482.397 630.752 482.936 630.752 483.352V493H626.848ZM614.864 493V475.72H618.304V481.08H618.768V493H614.864ZM642.192 501.16C641.232 501.16 640.309 501.011 639.424 500.712C638.549 500.413 637.76 499.981 637.056 499.416C636.352 498.861 635.776 498.189 635.328 497.4L638.88 495.64C639.21 496.269 639.674 496.733 640.272 497.032C640.88 497.341 641.525 497.496 642.208 497.496C643.008 497.496 643.722 497.352 644.352 497.064C644.981 496.787 645.466 496.371 645.808 495.816C646.16 495.272 646.325 494.589 646.304 493.768V488.856H646.784V475.72H650.16V493.832C650.16 494.269 650.138 494.685 650.096 495.08C650.064 495.485 650.005 495.88 649.92 496.264C649.664 497.384 649.173 498.301 648.448 499.016C647.722 499.741 646.821 500.28 645.744 500.632C644.677 500.984 643.493 501.16 642.192 501.16ZM641.856 493.48C640.266 493.48 638.88 493.08 637.696 492.28C636.512 491.48 635.594 490.392 634.944 489.016C634.293 487.64 633.968 486.088 633.968 484.36C633.968 482.611 634.293 481.053 634.944 479.688C635.605 478.312 636.538 477.229 637.744 476.44C638.949 475.64 640.368 475.24 642 475.24C643.642 475.24 645.018 475.64 646.128 476.44C647.248 477.229 648.096 478.312 648.672 479.688C649.248 481.064 649.536 482.621 649.536 484.36C649.536 486.077 649.248 487.629 648.672 489.016C648.096 490.392 647.237 491.48 646.096 492.28C644.954 493.08 643.541 493.48 641.856 493.48ZM642.448 490.024C643.482 490.024 644.314 489.789 644.944 489.32C645.584 488.84 646.048 488.173 646.336 487.32C646.634 486.467 646.784 485.48 646.784 484.36C646.784 483.229 646.634 482.243 646.336 481.4C646.048 480.547 645.594 479.885 644.976 479.416C644.357 478.936 643.557 478.696 642.576 478.696C641.541 478.696 640.688 478.952 640.016 479.464C639.344 479.965 638.848 480.648 638.528 481.512C638.208 482.365 638.048 483.315 638.048 484.36C638.048 485.416 638.202 486.376 638.512 487.24C638.832 488.093 639.317 488.771 639.968 489.272C640.618 489.773 641.445 490.024 642.448 490.024ZM662.557 493V475.448C662.557 475.011 662.573 474.531 662.605 474.008C662.637 473.475 662.727 472.947 662.877 472.424C663.026 471.901 663.298 471.427 663.693 471C664.183 470.456 664.711 470.083 665.277 469.88C665.853 469.667 666.418 469.549 666.973 469.528C667.527 469.496 668.013 469.48 668.429 469.48H670.589V472.616H668.589C667.853 472.616 667.303 472.803 666.941 473.176C666.589 473.539 666.413 474.019 666.413 474.616V493H662.557ZM659.773 478.744V475.72H670.589V478.744H659.773ZM673.949 473.096V469.56H677.805V473.096H673.949ZM673.949 493V475.72H677.805V493H673.949ZM682.935 493V469.48H686.791V493H682.935ZM699.44 493.48C697.69 493.48 696.154 493.101 694.832 492.344C693.509 491.587 692.474 490.536 691.728 489.192C690.992 487.848 690.624 486.301 690.624 484.552C690.624 482.664 690.986 481.027 691.712 479.64C692.437 478.243 693.445 477.16 694.736 476.392C696.026 475.624 697.52 475.24 699.216 475.24C701.008 475.24 702.528 475.661 703.776 476.504C705.034 477.336 705.968 478.515 706.576 480.04C707.184 481.565 707.413 483.363 707.264 485.432H703.44V484.024C703.429 482.147 703.098 480.776 702.448 479.912C701.797 479.048 700.773 478.616 699.376 478.616C697.797 478.616 696.624 479.107 695.856 480.088C695.088 481.059 694.704 482.483 694.704 484.36C694.704 486.109 695.088 487.464 695.856 488.424C696.624 489.384 697.744 489.864 699.216 489.864C700.165 489.864 700.981 489.656 701.664 489.24C702.357 488.813 702.89 488.2 703.264 487.4L707.072 488.552C706.41 490.109 705.386 491.32 704 492.184C702.624 493.048 701.104 493.48 699.44 493.48ZM693.488 485.432V482.52H705.376V485.432H693.488Z" fill="#353534"/>
<rect x="167" y="244" width="868" height="536" rx="25" stroke="#372092" stroke-linecap="round"/>
<path d="M452.24 126V102.96H461.76C461.984 102.96 462.272 102.971 462.624 102.992C462.976 103.003 463.301 103.035 463.6 103.088C464.933 103.291 466.032 103.733 466.896 104.416C467.771 105.099 468.416 105.963 468.832 107.008C469.259 108.043 469.472 109.195 469.472 110.464C469.472 111.723 469.259 112.875 468.832 113.92C468.405 114.955 467.755 115.813 466.88 116.496C466.016 117.179 464.923 117.621 463.6 117.824C463.301 117.867 462.971 117.899 462.608 117.92C462.256 117.941 461.973 117.952 461.76 117.952H456.096V126H452.24ZM456.096 114.352H461.6C461.813 114.352 462.053 114.341 462.32 114.32C462.587 114.299 462.832 114.256 463.056 114.192C463.696 114.032 464.197 113.749 464.56 113.344C464.933 112.939 465.195 112.48 465.344 111.968C465.504 111.456 465.584 110.955 465.584 110.464C465.584 109.973 465.504 109.472 465.344 108.96C465.195 108.437 464.933 107.973 464.56 107.568C464.197 107.163 463.696 106.88 463.056 106.72C462.832 106.656 462.587 106.619 462.32 106.608C462.053 106.587 461.813 106.576 461.6 106.576H456.096V114.352ZM472.678 126V108.72H476.086V112.928L475.67 112.384C475.883 111.808 476.166 111.285 476.518 110.816C476.88 110.336 477.312 109.941 477.814 109.632C478.24 109.344 478.71 109.12 479.222 108.96C479.744 108.789 480.278 108.688 480.822 108.656C481.366 108.613 481.894 108.635 482.406 108.72V112.32C481.894 112.171 481.302 112.123 480.63 112.176C479.968 112.229 479.371 112.416 478.838 112.736C478.304 113.024 477.867 113.392 477.526 113.84C477.195 114.288 476.95 114.8 476.79 115.376C476.63 115.941 476.55 116.555 476.55 117.216V126H472.678ZM493.002 126.48C491.253 126.48 489.717 126.101 488.394 125.344C487.072 124.587 486.037 123.536 485.29 122.192C484.554 120.848 484.186 119.301 484.186 117.552C484.186 115.664 484.549 114.027 485.274 112.64C486 111.243 487.008 110.16 488.298 109.392C489.589 108.624 491.082 108.24 492.778 108.24C494.57 108.24 496.09 108.661 497.338 109.504C498.597 110.336 499.53 111.515 500.138 113.04C500.746 114.565 500.976 116.363 500.826 118.432H497.002V117.024C496.992 115.147 496.661 113.776 496.01 112.912C495.36 112.048 494.336 111.616 492.938 111.616C491.36 111.616 490.186 112.107 489.418 113.088C488.65 114.059 488.266 115.483 488.266 117.36C488.266 119.109 488.65 120.464 489.418 121.424C490.186 122.384 491.306 122.864 492.778 122.864C493.728 122.864 494.544 122.656 495.226 122.24C495.92 121.813 496.453 121.2 496.826 120.4L500.634 121.552C499.973 123.109 498.949 124.32 497.562 125.184C496.186 126.048 494.666 126.48 493.002 126.48ZM487.05 118.432V115.52H498.938V118.432H487.05ZM512.232 126.48C510.546 126.48 509.133 126.08 507.992 125.28C506.85 124.48 505.992 123.392 505.416 122.016C504.84 120.629 504.552 119.077 504.552 117.36C504.552 115.621 504.84 114.064 505.416 112.688C505.992 111.312 506.834 110.229 507.944 109.44C509.064 108.64 510.445 108.24 512.088 108.24C513.72 108.24 515.133 108.64 516.328 109.44C517.533 110.229 518.466 111.312 519.128 112.688C519.789 114.053 520.12 115.611 520.12 117.36C520.12 119.088 519.794 120.64 519.144 122.016C518.493 123.392 517.576 124.48 516.392 125.28C515.208 126.08 513.821 126.48 512.232 126.48ZM503.896 133.68V108.72H507.304V120.848H507.784V133.68H503.896ZM511.64 123.024C512.642 123.024 513.469 122.773 514.12 122.272C514.77 121.771 515.25 121.093 515.56 120.24C515.88 119.376 516.04 118.416 516.04 117.36C516.04 116.315 515.88 115.365 515.56 114.512C515.24 113.648 514.744 112.965 514.072 112.464C513.4 111.952 512.546 111.696 511.512 111.696C510.53 111.696 509.73 111.936 509.112 112.416C508.493 112.885 508.034 113.547 507.736 114.4C507.448 115.243 507.304 116.229 507.304 117.36C507.304 118.48 507.448 119.467 507.736 120.32C508.034 121.173 508.498 121.84 509.128 122.32C509.768 122.789 510.605 123.024 511.64 123.024ZM528.478 126.48C527.23 126.48 526.174 126.245 525.31 125.776C524.446 125.296 523.79 124.661 523.342 123.872C522.905 123.083 522.686 122.213 522.686 121.264C522.686 120.432 522.825 119.685 523.102 119.024C523.38 118.352 523.806 117.776 524.382 117.296C524.958 116.805 525.705 116.405 526.622 116.096C527.316 115.872 528.126 115.669 529.054 115.488C529.993 115.307 531.006 115.141 532.094 114.992C533.193 114.832 534.34 114.661 535.534 114.48L534.158 115.264C534.169 114.069 533.902 113.189 533.358 112.624C532.814 112.059 531.897 111.776 530.606 111.776C529.828 111.776 529.076 111.957 528.35 112.32C527.625 112.683 527.118 113.307 526.83 114.192L523.31 113.088C523.737 111.627 524.548 110.453 525.742 109.568C526.948 108.683 528.569 108.24 530.606 108.24C532.142 108.24 533.492 108.491 534.654 108.992C535.828 109.493 536.697 110.315 537.262 111.456C537.572 112.064 537.758 112.688 537.822 113.328C537.886 113.957 537.918 114.645 537.918 115.392V126H534.542V122.256L535.102 122.864C534.324 124.112 533.412 125.029 532.366 125.616C531.332 126.192 530.036 126.48 528.478 126.48ZM529.246 123.408C530.121 123.408 530.868 123.253 531.486 122.944C532.105 122.635 532.596 122.256 532.958 121.808C533.332 121.36 533.582 120.939 533.71 120.544C533.913 120.053 534.025 119.493 534.046 118.864C534.078 118.224 534.094 117.707 534.094 117.312L535.278 117.664C534.116 117.845 533.118 118.005 532.286 118.144C531.454 118.283 530.74 118.416 530.142 118.544C529.545 118.661 529.017 118.795 528.558 118.944C528.11 119.104 527.732 119.291 527.422 119.504C527.113 119.717 526.873 119.963 526.702 120.24C526.542 120.517 526.462 120.843 526.462 121.216C526.462 121.643 526.569 122.021 526.782 122.352C526.996 122.672 527.305 122.928 527.71 123.12C528.126 123.312 528.638 123.408 529.246 123.408ZM542.084 126V108.72H545.492V112.928L545.076 112.384C545.289 111.808 545.572 111.285 545.924 110.816C546.286 110.336 546.718 109.941 547.22 109.632C547.646 109.344 548.116 109.12 548.628 108.96C549.15 108.789 549.684 108.688 550.228 108.656C550.772 108.613 551.3 108.635 551.812 108.72V112.32C551.3 112.171 550.708 112.123 550.036 112.176C549.374 112.229 548.777 112.416 548.244 112.736C547.71 113.024 547.273 113.392 546.932 113.84C546.601 114.288 546.356 114.8 546.196 115.376C546.036 115.941 545.956 116.555 545.956 117.216V126H542.084ZM555.185 106.096V102.56H559.041V106.096H555.185ZM555.185 126V108.72H559.041V126H555.185ZM575.786 126V117.68C575.786 117.136 575.748 116.533 575.674 115.872C575.599 115.211 575.423 114.576 575.146 113.968C574.879 113.349 574.474 112.843 573.93 112.448C573.396 112.053 572.671 111.856 571.754 111.856C571.263 111.856 570.778 111.936 570.298 112.096C569.818 112.256 569.38 112.533 568.986 112.928C568.602 113.312 568.292 113.845 568.058 114.528C567.823 115.2 567.706 116.064 567.706 117.12L565.418 116.144C565.418 114.672 565.7 113.339 566.266 112.144C566.842 110.949 567.684 110 568.794 109.296C569.903 108.581 571.268 108.224 572.89 108.224C574.17 108.224 575.226 108.437 576.058 108.864C576.89 109.291 577.551 109.835 578.042 110.496C578.532 111.157 578.895 111.861 579.13 112.608C579.364 113.355 579.514 114.064 579.578 114.736C579.652 115.397 579.69 115.936 579.69 116.352V126H575.786ZM563.802 126V108.72H567.242V114.08H567.706V126H563.802ZM591.129 134.16C590.169 134.16 589.246 134.011 588.361 133.712C587.486 133.413 586.697 132.981 585.993 132.416C585.289 131.861 584.713 131.189 584.265 130.4L587.817 128.64C588.148 129.269 588.612 129.733 589.209 130.032C589.817 130.341 590.462 130.496 591.145 130.496C591.945 130.496 592.66 130.352 593.289 130.064C593.918 129.787 594.404 129.371 594.745 128.816C595.097 128.272 595.262 127.589 595.241 126.768V121.856H595.721V108.72H599.097V126.832C599.097 127.269 599.076 127.685 599.033 128.08C599.001 128.485 598.942 128.88 598.857 129.264C598.601 130.384 598.11 131.301 597.385 132.016C596.66 132.741 595.758 133.28 594.681 133.632C593.614 133.984 592.43 134.16 591.129 134.16ZM590.793 126.48C589.204 126.48 587.817 126.08 586.633 125.28C585.449 124.48 584.532 123.392 583.881 122.016C583.23 120.64 582.905 119.088 582.905 117.36C582.905 115.611 583.23 114.053 583.881 112.688C584.542 111.312 585.476 110.229 586.681 109.44C587.886 108.64 589.305 108.24 590.937 108.24C592.58 108.24 593.956 108.64 595.065 109.44C596.185 110.229 597.033 111.312 597.609 112.688C598.185 114.064 598.473 115.621 598.473 117.36C598.473 119.077 598.185 120.629 597.609 122.016C597.033 123.392 596.174 124.48 595.033 125.28C593.892 126.08 592.478 126.48 590.793 126.48ZM591.385 123.024C592.42 123.024 593.252 122.789 593.881 122.32C594.521 121.84 594.985 121.173 595.273 120.32C595.572 119.467 595.721 118.48 595.721 117.36C595.721 116.229 595.572 115.243 595.273 114.4C594.985 113.547 594.532 112.885 593.913 112.416C593.294 111.936 592.494 111.696 591.513 111.696C590.478 111.696 589.625 111.952 588.953 112.464C588.281 112.965 587.785 113.648 587.465 114.512C587.145 115.365 586.985 116.315 586.985 117.36C586.985 118.416 587.14 119.376 587.449 120.24C587.769 121.093 588.254 121.771 588.905 122.272C589.556 122.773 590.382 123.024 591.385 123.024ZM612.262 133.68L615.59 124.544L615.654 127.232L608.118 108.72H612.134L617.478 122.416H616.454L621.654 108.72H625.51L615.878 133.68H612.262ZM634.903 126.48C633.175 126.48 631.666 126.091 630.375 125.312C629.085 124.533 628.082 123.461 627.367 122.096C626.663 120.72 626.311 119.141 626.311 117.36C626.311 115.547 626.674 113.957 627.399 112.592C628.125 111.227 629.133 110.16 630.423 109.392C631.714 108.624 633.207 108.24 634.903 108.24C636.642 108.24 638.157 108.629 639.447 109.408C640.738 110.187 641.741 111.264 642.455 112.64C643.17 114.005 643.527 115.579 643.527 117.36C643.527 119.152 643.165 120.736 642.439 122.112C641.725 123.477 640.722 124.549 639.431 125.328C638.141 126.096 636.631 126.48 634.903 126.48ZM634.903 122.864C636.439 122.864 637.581 122.352 638.327 121.328C639.074 120.304 639.447 118.981 639.447 117.36C639.447 115.685 639.069 114.352 638.311 113.36C637.554 112.357 636.418 111.856 634.903 111.856C633.869 111.856 633.015 112.091 632.343 112.56C631.682 113.019 631.191 113.664 630.871 114.496C630.551 115.317 630.391 116.272 630.391 117.36C630.391 119.035 630.77 120.373 631.527 121.376C632.295 122.368 633.421 122.864 634.903 122.864ZM653.533 126.496C652.253 126.496 651.197 126.283 650.365 125.856C649.533 125.429 648.871 124.885 648.381 124.224C647.89 123.563 647.527 122.859 647.293 122.112C647.058 121.365 646.903 120.661 646.829 120C646.765 119.328 646.733 118.784 646.733 118.368V108.72H650.637V117.04C650.637 117.573 650.674 118.176 650.749 118.848C650.823 119.509 650.994 120.149 651.261 120.768C651.538 121.376 651.943 121.877 652.477 122.272C653.021 122.667 653.751 122.864 654.669 122.864C655.159 122.864 655.645 122.784 656.125 122.624C656.605 122.464 657.037 122.192 657.421 121.808C657.815 121.413 658.13 120.875 658.365 120.192C658.599 119.509 658.717 118.645 658.717 117.6L661.005 118.576C661.005 120.048 660.717 121.381 660.141 122.576C659.575 123.771 658.738 124.725 657.629 125.44C656.519 126.144 655.154 126.496 653.533 126.496ZM659.181 126V120.64H658.717V108.72H662.589V126H659.181ZM667.084 126V108.72H670.492V112.928L670.076 112.384C670.289 111.808 670.572 111.285 670.924 110.816C671.286 110.336 671.718 109.941 672.22 109.632C672.646 109.344 673.116 109.12 673.628 108.96C674.15 108.789 674.684 108.688 675.228 108.656C675.772 108.613 676.3 108.635 676.812 108.72V112.32C676.3 112.171 675.708 112.123 675.036 112.176C674.374 112.229 673.777 112.416 673.244 112.736C672.71 113.024 672.273 113.392 671.932 113.84C671.601 114.288 671.356 114.8 671.196 115.376C671.036 115.941 670.956 116.555 670.956 117.216V126H667.084ZM687.775 126V108.448C687.775 108.011 687.791 107.531 687.823 107.008C687.855 106.475 687.946 105.947 688.095 105.424C688.245 104.901 688.517 104.427 688.911 104C689.402 103.456 689.93 103.083 690.495 102.88C691.071 102.667 691.637 102.549 692.191 102.528C692.746 102.496 693.231 102.48 693.647 102.48H695.807V105.616H693.807C693.071 105.616 692.522 105.803 692.159 106.176C691.807 106.539 691.631 107.019 691.631 107.616V126H687.775ZM684.991 111.744V108.72H695.807V111.744H684.991ZM699.167 106.096V102.56H703.023V106.096H699.167ZM699.167 126V108.72H703.023V126H699.167ZM708.154 126V102.48H712.01V126H708.154ZM724.659 126.48C722.909 126.48 721.373 126.101 720.051 125.344C718.728 124.587 717.693 123.536 716.947 122.192C716.211 120.848 715.843 119.301 715.843 117.552C715.843 115.664 716.205 114.027 716.931 112.64C717.656 111.243 718.664 110.16 719.955 109.392C721.245 108.624 722.739 108.24 724.435 108.24C726.227 108.24 727.747 108.661 728.995 109.504C730.253 110.336 731.187 111.515 731.795 113.04C732.403 114.565 732.632 116.363 732.483 118.432H728.659V117.024C728.648 115.147 728.317 113.776 727.667 112.912C727.016 112.048 725.992 111.616 724.595 111.616C723.016 111.616 721.843 112.107 721.075 113.088C720.307 114.059 719.923 115.483 719.923 117.36C719.923 119.109 720.307 120.464 721.075 121.424C721.843 122.384 722.963 122.864 724.435 122.864C725.384 122.864 726.2 122.656 726.883 122.24C727.576 121.813 728.109 121.2 728.483 120.4L732.291 121.552C731.629 123.109 730.605 124.32 729.219 125.184C727.843 126.048 726.323 126.48 724.659 126.48ZM718.707 118.432V115.52H730.595V118.432H718.707ZM742.725 126.48C740.591 126.48 738.858 126 737.525 125.04C736.191 124.08 735.381 122.731 735.093 120.992L739.029 120.384C739.231 121.237 739.679 121.909 740.373 122.4C741.066 122.891 741.941 123.136 742.997 123.136C743.925 123.136 744.639 122.955 745.141 122.592C745.653 122.219 745.909 121.712 745.909 121.072C745.909 120.677 745.813 120.363 745.621 120.128C745.439 119.883 745.034 119.648 744.405 119.424C743.775 119.2 742.81 118.917 741.509 118.576C740.058 118.192 738.906 117.781 738.053 117.344C737.199 116.896 736.586 116.368 736.213 115.76C735.839 115.152 735.653 114.416 735.653 113.552C735.653 112.475 735.935 111.536 736.501 110.736C737.066 109.936 737.855 109.323 738.869 108.896C739.882 108.459 741.077 108.24 742.453 108.24C743.797 108.24 744.986 108.448 746.021 108.864C747.066 109.28 747.909 109.872 748.549 110.64C749.189 111.408 749.583 112.309 749.733 113.344L745.797 114.048C745.701 113.312 745.365 112.731 744.789 112.304C744.223 111.877 743.466 111.637 742.517 111.584C741.61 111.531 740.879 111.669 740.325 112C739.77 112.32 739.493 112.773 739.493 113.36C739.493 113.691 739.605 113.973 739.829 114.208C740.053 114.443 740.501 114.677 741.173 114.912C741.855 115.147 742.869 115.435 744.213 115.776C745.589 116.128 746.687 116.533 747.509 116.992C748.341 117.44 748.938 117.979 749.301 118.608C749.674 119.237 749.861 120 749.861 120.896C749.861 122.635 749.226 124 747.957 124.992C746.698 125.984 744.954 126.48 742.725 126.48Z" fill="#353534"/>
</svg>
