<svg width="1201" height="1024" viewBox="0 0 1201 1024" fill="none" xmlns="http://www.w3.org/2000/svg">
<rect width="1201" height="1024" fill="white"/>
<rect x="167" y="161" width="868" height="702" rx="25" fill="white"/>
<circle cx="602" cy="292" r="94" fill="#0FA958"/>
<path d="M565 291.522L589.903 314.044L639.798 269" stroke="white" stroke-width="15" stroke-linecap="round" stroke-linejoin="round"/>
<path d="M448.984 428.48C446.68 428.48 444.707 427.979 443.064 426.976C441.421 425.963 440.157 424.555 439.272 422.752C438.397 420.949 437.96 418.859 437.96 416.48C437.96 414.101 438.397 412.011 439.272 410.208C440.157 408.405 441.421 407.003 443.064 406C444.707 404.987 446.68 404.48 448.984 404.48C451.64 404.48 453.853 405.147 455.624 406.48C457.395 407.803 458.637 409.589 459.352 411.84L455.464 412.912C455.016 411.408 454.253 410.235 453.176 409.392C452.099 408.539 450.701 408.112 448.984 408.112C447.437 408.112 446.147 408.459 445.112 409.152C444.088 409.845 443.315 410.821 442.792 412.08C442.28 413.328 442.019 414.795 442.008 416.48C442.008 418.165 442.264 419.637 442.776 420.896C443.299 422.144 444.077 423.115 445.112 423.808C446.147 424.501 447.437 424.848 448.984 424.848C450.701 424.848 452.099 424.421 453.176 423.568C454.253 422.715 455.016 421.541 455.464 420.048L459.352 421.12C458.637 423.371 457.395 425.163 455.624 426.496C453.853 427.819 451.64 428.48 448.984 428.48ZM474.817 428V419.68C474.817 419.136 474.78 418.533 474.705 417.872C474.63 417.211 474.454 416.576 474.177 415.968C473.91 415.349 473.505 414.843 472.961 414.448C472.428 414.053 471.702 413.856 470.785 413.856C470.294 413.856 469.809 413.936 469.329 414.096C468.849 414.256 468.412 414.533 468.017 414.928C467.633 415.312 467.324 415.845 467.089 416.528C466.854 417.2 466.737 418.064 466.737 419.12L464.449 418.144C464.449 416.672 464.732 415.339 465.297 414.144C465.873 412.949 466.716 412 467.825 411.296C468.934 410.581 470.3 410.224 471.921 410.224C473.201 410.224 474.257 410.437 475.089 410.864C475.921 411.291 476.582 411.835 477.073 412.496C477.564 413.157 477.926 413.861 478.161 414.608C478.396 415.355 478.545 416.064 478.609 416.736C478.684 417.397 478.721 417.936 478.721 418.352V428H474.817ZM462.833 428V404.96H466.273V417.088H466.737V428H462.833ZM489.376 428.496C488.096 428.496 487.04 428.283 486.208 427.856C485.376 427.429 484.715 426.885 484.224 426.224C483.734 425.563 483.371 424.859 483.136 424.112C482.902 423.365 482.747 422.661 482.672 422C482.608 421.328 482.576 420.784 482.576 420.368V410.72H486.48V419.04C486.48 419.573 486.518 420.176 486.592 420.848C486.667 421.509 486.838 422.149 487.104 422.768C487.382 423.376 487.787 423.877 488.32 424.272C488.864 424.667 489.595 424.864 490.512 424.864C491.003 424.864 491.488 424.784 491.968 424.624C492.448 424.464 492.88 424.192 493.264 423.808C493.659 423.413 493.974 422.875 494.208 422.192C494.443 421.509 494.56 420.645 494.56 419.6L496.848 420.576C496.848 422.048 496.56 423.381 495.984 424.576C495.419 425.771 494.582 426.725 493.472 427.44C492.363 428.144 490.998 428.496 489.376 428.496ZM495.024 428V422.64H494.56V410.72H498.432V428H495.024ZM514.88 428V419.68C514.88 419.136 514.842 418.533 514.768 417.872C514.693 417.211 514.517 416.576 514.24 415.968C513.973 415.349 513.568 414.843 513.024 414.448C512.49 414.053 511.765 413.856 510.848 413.856C510.357 413.856 509.872 413.936 509.392 414.096C508.912 414.256 508.474 414.533 508.08 414.928C507.696 415.312 507.386 415.845 507.152 416.528C506.917 417.2 506.8 418.064 506.8 419.12L504.512 418.144C504.512 416.672 504.794 415.339 505.36 414.144C505.936 412.949 506.778 412 507.888 411.296C508.997 410.581 510.362 410.224 511.984 410.224C513.264 410.224 514.32 410.437 515.152 410.864C515.984 411.291 516.645 411.835 517.135 412.496C517.626 413.157 517.989 413.861 518.224 414.608C518.458 415.355 518.608 416.064 518.672 416.736C518.746 417.397 518.784 417.936 518.784 418.352V428H514.88ZM502.896 428V410.72H506.336V416.08H506.8V428H502.896ZM522.927 428L522.959 404.96H526.863V419.04L533.183 410.72H537.999L531.295 419.36L538.575 428H533.471L526.863 419.68V428H522.927ZM540.498 408.096V404.56H544.354V408.096H540.498ZM540.498 428V410.72H544.354V428H540.498ZM561.098 428V419.68C561.098 419.136 561.061 418.533 560.986 417.872C560.912 417.211 560.736 416.576 560.458 415.968C560.192 415.349 559.786 414.843 559.242 414.448C558.709 414.053 557.984 413.856 557.066 413.856C556.576 413.856 556.09 413.936 555.61 414.096C555.13 414.256 554.693 414.533 554.298 414.928C553.914 415.312 553.605 415.845 553.37 416.528C553.136 417.2 553.018 418.064 553.018 419.12L550.73 418.144C550.73 416.672 551.013 415.339 551.578 414.144C552.154 412.949 552.997 412 554.106 411.296C555.216 410.581 556.581 410.224 558.202 410.224C559.482 410.224 560.538 410.437 561.37 410.864C562.202 411.291 562.864 411.835 563.354 412.496C563.845 413.157 564.208 413.861 564.442 414.608C564.677 415.355 564.826 416.064 564.89 416.736C564.965 417.397 565.002 417.936 565.002 418.352V428H561.098ZM549.114 428V410.72H552.554V416.08H553.018V428H549.114ZM576.442 436.16C575.482 436.16 574.559 436.011 573.674 435.712C572.799 435.413 572.01 434.981 571.306 434.416C570.602 433.861 570.026 433.189 569.578 432.4L573.13 430.64C573.46 431.269 573.924 431.733 574.522 432.032C575.13 432.341 575.775 432.496 576.458 432.496C577.258 432.496 577.972 432.352 578.602 432.064C579.231 431.787 579.716 431.371 580.058 430.816C580.41 430.272 580.575 429.589 580.554 428.768V423.856H581.034V410.72H584.41V428.832C584.41 429.269 584.388 429.685 584.346 430.08C584.314 430.485 584.255 430.88 584.17 431.264C583.914 432.384 583.423 433.301 582.698 434.016C581.972 434.741 581.071 435.28 579.994 435.632C578.927 435.984 577.743 436.16 576.442 436.16ZM576.106 428.48C574.516 428.48 573.13 428.08 571.946 427.28C570.762 426.48 569.844 425.392 569.194 424.016C568.543 422.64 568.218 421.088 568.218 419.36C568.218 417.611 568.543 416.053 569.194 414.688C569.855 413.312 570.788 412.229 571.994 411.44C573.199 410.64 574.618 410.24 576.25 410.24C577.892 410.24 579.268 410.64 580.378 411.44C581.498 412.229 582.346 413.312 582.922 414.688C583.498 416.064 583.786 417.621 583.786 419.36C583.786 421.077 583.498 422.629 582.922 424.016C582.346 425.392 581.487 426.48 580.346 427.28C579.204 428.08 577.791 428.48 576.106 428.48ZM576.698 425.024C577.732 425.024 578.564 424.789 579.194 424.32C579.834 423.84 580.298 423.173 580.586 422.32C580.884 421.467 581.034 420.48 581.034 419.36C581.034 418.229 580.884 417.243 580.586 416.4C580.298 415.547 579.844 414.885 579.226 414.416C578.607 413.936 577.807 413.696 576.826 413.696C575.791 413.696 574.938 413.952 574.266 414.464C573.594 414.965 573.098 415.648 572.778 416.512C572.458 417.365 572.298 418.315 572.298 419.36C572.298 420.416 572.452 421.376 572.762 422.24C573.082 423.093 573.567 423.771 574.218 424.272C574.868 424.773 575.695 425.024 576.698 425.024ZM603.831 428.48C602.145 428.48 600.625 428.187 599.271 427.6C597.927 427.013 596.817 426.176 595.943 425.088C595.079 423.989 594.529 422.688 594.295 421.184L598.295 420.576C598.636 421.941 599.335 422.997 600.391 423.744C601.457 424.491 602.684 424.864 604.071 424.864C604.892 424.864 605.665 424.736 606.391 424.48C607.116 424.224 607.703 423.851 608.151 423.36C608.609 422.869 608.839 422.267 608.839 421.552C608.839 421.232 608.785 420.939 608.679 420.672C608.572 420.395 608.412 420.149 608.199 419.936C607.996 419.723 607.729 419.531 607.399 419.36C607.079 419.179 606.705 419.024 606.279 418.896L600.327 417.136C599.815 416.987 599.26 416.789 598.663 416.544C598.076 416.288 597.516 415.941 596.983 415.504C596.46 415.056 596.028 414.491 595.687 413.808C595.356 413.115 595.191 412.261 595.191 411.248C595.191 409.765 595.564 408.523 596.311 407.52C597.068 406.507 598.081 405.749 599.351 405.248C600.631 404.747 602.049 404.501 603.607 404.512C605.185 404.523 606.593 404.795 607.831 405.328C609.068 405.851 610.103 406.613 610.935 407.616C611.767 408.619 612.353 409.829 612.695 411.248L608.551 411.968C608.38 411.157 608.049 410.469 607.559 409.904C607.079 409.328 606.487 408.891 605.783 408.592C605.089 408.293 604.348 408.133 603.559 408.112C602.791 408.101 602.076 408.219 601.415 408.464C600.764 408.699 600.236 409.04 599.831 409.488C599.436 409.936 599.239 410.459 599.239 411.056C599.239 411.621 599.409 412.085 599.751 412.448C600.092 412.8 600.513 413.083 601.015 413.296C601.527 413.499 602.044 413.669 602.567 413.808L606.695 414.96C607.26 415.109 607.895 415.312 608.599 415.568C609.303 415.824 609.98 416.181 610.631 416.64C611.281 417.099 611.815 417.701 612.231 418.448C612.657 419.195 612.871 420.144 612.871 421.296C612.871 422.491 612.62 423.541 612.119 424.448C611.628 425.344 610.961 426.091 610.119 426.688C609.276 427.285 608.311 427.733 607.223 428.032C606.145 428.331 605.015 428.48 603.831 428.48ZM622.814 428.496C621.534 428.496 620.478 428.283 619.646 427.856C618.814 427.429 618.152 426.885 617.662 426.224C617.171 425.563 616.808 424.859 616.574 424.112C616.339 423.365 616.184 422.661 616.11 422C616.046 421.328 616.014 420.784 616.014 420.368V410.72H619.918V419.04C619.918 419.573 619.955 420.176 620.03 420.848C620.104 421.509 620.275 422.149 620.542 422.768C620.819 423.376 621.224 423.877 621.758 424.272C622.302 424.667 623.032 424.864 623.95 424.864C624.44 424.864 624.926 424.784 625.406 424.624C625.886 424.464 626.318 424.192 626.702 423.808C627.096 423.413 627.411 422.875 627.646 422.192C627.88 421.509 627.998 420.645 627.998 419.6L630.286 420.576C630.286 422.048 629.998 423.381 629.422 424.576C628.856 425.771 628.019 426.725 626.91 427.44C625.8 428.144 624.435 428.496 622.814 428.496ZM628.462 428V422.64H627.998V410.72H631.87V428H628.462ZM643.869 428.48C642.088 428.48 640.568 428.085 639.309 427.296C638.05 426.496 637.085 425.408 636.413 424.032C635.752 422.656 635.416 421.099 635.405 419.36C635.416 417.589 635.762 416.021 636.445 414.656C637.138 413.28 638.12 412.203 639.389 411.424C640.658 410.635 642.168 410.24 643.917 410.24C645.88 410.24 647.538 410.736 648.893 411.728C650.258 412.709 651.149 414.053 651.565 415.76L647.725 416.8C647.426 415.872 646.93 415.152 646.237 414.64C645.544 414.117 644.754 413.856 643.869 413.856C642.866 413.856 642.04 414.096 641.389 414.576C640.738 415.045 640.258 415.696 639.949 416.528C639.64 417.36 639.485 418.304 639.485 419.36C639.485 421.003 639.853 422.331 640.589 423.344C641.325 424.357 642.418 424.864 643.869 424.864C644.893 424.864 645.698 424.629 646.285 424.16C646.882 423.691 647.33 423.013 647.629 422.128L651.565 423.008C651.032 424.768 650.098 426.123 648.765 427.072C647.432 428.011 645.8 428.48 643.869 428.48ZM661.807 428.48C660.025 428.48 658.505 428.085 657.247 427.296C655.988 426.496 655.023 425.408 654.351 424.032C653.689 422.656 653.353 421.099 653.343 419.36C653.353 417.589 653.7 416.021 654.383 414.656C655.076 413.28 656.057 412.203 657.327 411.424C658.596 410.635 660.105 410.24 661.855 410.24C663.817 410.24 665.476 410.736 666.831 411.728C668.196 412.709 669.087 414.053 669.503 415.76L665.663 416.8C665.364 415.872 664.868 415.152 664.175 414.64C663.481 414.117 662.692 413.856 661.807 413.856C660.804 413.856 659.977 414.096 659.327 414.576C658.676 415.045 658.196 415.696 657.887 416.528C657.577 417.36 657.423 418.304 657.423 419.36C657.423 421.003 657.791 422.331 658.527 423.344C659.263 424.357 660.356 424.864 661.807 424.864C662.831 424.864 663.636 424.629 664.223 424.16C664.82 423.691 665.268 423.013 665.567 422.128L669.503 423.008C668.969 424.768 668.036 426.123 666.703 427.072C665.369 428.011 663.737 428.48 661.807 428.48ZM680.096 428.48C678.347 428.48 676.811 428.101 675.488 427.344C674.165 426.587 673.131 425.536 672.384 424.192C671.648 422.848 671.28 421.301 671.28 419.552C671.28 417.664 671.643 416.027 672.368 414.64C673.093 413.243 674.101 412.16 675.392 411.392C676.683 410.624 678.176 410.24 679.872 410.24C681.664 410.24 683.184 410.661 684.432 411.504C685.691 412.336 686.624 413.515 687.232 415.04C687.84 416.565 688.069 418.363 687.92 420.432H684.096V419.024C684.085 417.147 683.755 415.776 683.104 414.912C682.453 414.048 681.429 413.616 680.032 413.616C678.453 413.616 677.28 414.107 676.512 415.088C675.744 416.059 675.36 417.483 675.36 419.36C675.36 421.109 675.744 422.464 676.512 423.424C677.28 424.384 678.4 424.864 679.872 424.864C680.821 424.864 681.637 424.656 682.32 424.24C683.013 423.813 683.547 423.2 683.92 422.4L687.728 423.552C687.067 425.109 686.043 426.32 684.656 427.184C683.28 428.048 681.76 428.48 680.096 428.48ZM674.144 420.432V417.52H686.032V420.432H674.144ZM698.162 428.48C696.029 428.48 694.295 428 692.962 427.04C691.629 426.08 690.818 424.731 690.53 422.992L694.466 422.384C694.669 423.237 695.117 423.909 695.81 424.4C696.503 424.891 697.378 425.136 698.434 425.136C699.362 425.136 700.077 424.955 700.578 424.592C701.09 424.219 701.346 423.712 701.346 423.072C701.346 422.677 701.25 422.363 701.058 422.128C700.877 421.883 700.471 421.648 699.842 421.424C699.213 421.2 698.247 420.917 696.946 420.576C695.495 420.192 694.343 419.781 693.49 419.344C692.637 418.896 692.023 418.368 691.65 417.76C691.277 417.152 691.09 416.416 691.09 415.552C691.09 414.475 691.373 413.536 691.938 412.736C692.503 411.936 693.293 411.323 694.306 410.896C695.319 410.459 696.514 410.24 697.89 410.24C699.234 410.24 700.423 410.448 701.458 410.864C702.503 411.28 703.346 411.872 703.986 412.64C704.626 413.408 705.021 414.309 705.17 415.344L701.234 416.048C701.138 415.312 700.802 414.731 700.226 414.304C699.661 413.877 698.903 413.637 697.954 413.584C697.047 413.531 696.317 413.669 695.762 414C695.207 414.32 694.93 414.773 694.93 415.36C694.93 415.691 695.042 415.973 695.266 416.208C695.49 416.443 695.938 416.677 696.61 416.912C697.293 417.147 698.306 417.435 699.65 417.776C701.026 418.128 702.125 418.533 702.946 418.992C703.778 419.44 704.375 419.979 704.738 420.608C705.111 421.237 705.298 422 705.298 422.896C705.298 424.635 704.663 426 703.394 426.992C702.135 427.984 700.391 428.48 698.162 428.48ZM715.475 428.48C713.341 428.48 711.608 428 710.275 427.04C708.941 426.08 708.131 424.731 707.843 422.992L711.779 422.384C711.981 423.237 712.429 423.909 713.123 424.4C713.816 424.891 714.691 425.136 715.747 425.136C716.675 425.136 717.389 424.955 717.891 424.592C718.403 424.219 718.659 423.712 718.659 423.072C718.659 422.677 718.563 422.363 718.371 422.128C718.189 421.883 717.784 421.648 717.155 421.424C716.525 421.2 715.56 420.917 714.259 420.576C712.808 420.192 711.656 419.781 710.803 419.344C709.949 418.896 709.336 418.368 708.963 417.76C708.589 417.152 708.403 416.416 708.403 415.552C708.403 414.475 708.685 413.536 709.251 412.736C709.816 411.936 710.605 411.323 711.619 410.896C712.632 410.459 713.827 410.24 715.203 410.24C716.547 410.24 717.736 410.448 718.771 410.864C719.816 411.28 720.659 411.872 721.299 412.64C721.939 413.408 722.333 414.309 722.483 415.344L718.547 416.048C718.451 415.312 718.115 414.731 717.539 414.304C716.973 413.877 716.216 413.637 715.267 413.584C714.36 413.531 713.629 413.669 713.075 414C712.52 414.32 712.243 414.773 712.243 415.36C712.243 415.691 712.355 415.973 712.579 416.208C712.803 416.443 713.251 416.677 713.923 416.912C714.605 417.147 715.619 417.435 716.963 417.776C718.339 418.128 719.437 418.533 720.259 418.992C721.091 419.44 721.688 419.979 722.051 420.608C722.424 421.237 722.611 422 722.611 422.896C722.611 424.635 721.976 426 720.707 426.992C719.448 427.984 717.704 428.48 715.475 428.48ZM727.619 428V410.448C727.619 410.011 727.635 409.531 727.667 409.008C727.699 408.475 727.79 407.947 727.939 407.424C728.088 406.901 728.36 406.427 728.755 406C729.246 405.456 729.774 405.083 730.339 404.88C730.915 404.667 731.48 404.549 732.035 404.528C732.59 404.496 733.075 404.48 733.491 404.48H735.651V407.616H733.651C732.915 407.616 732.366 407.803 732.003 408.176C731.651 408.539 731.475 409.019 731.475 409.616V428H727.619ZM724.835 413.744V410.72H735.651V413.744H724.835ZM744.689 428.496C743.409 428.496 742.353 428.283 741.521 427.856C740.689 427.429 740.027 426.885 739.537 426.224C739.046 425.563 738.683 424.859 738.449 424.112C738.214 423.365 738.059 422.661 737.985 422C737.921 421.328 737.889 420.784 737.889 420.368V410.72H741.793V419.04C741.793 419.573 741.83 420.176 741.905 420.848C741.979 421.509 742.15 422.149 742.417 422.768C742.694 423.376 743.099 423.877 743.633 424.272C744.177 424.667 744.907 424.864 745.825 424.864C746.315 424.864 746.801 424.784 747.281 424.624C747.761 424.464 748.193 424.192 748.577 423.808C748.971 423.413 749.286 422.875 749.521 422.192C749.755 421.509 749.873 420.645 749.873 419.6L752.161 420.576C752.161 422.048 751.873 423.381 751.297 424.576C750.731 425.771 749.894 426.725 748.785 427.44C747.675 428.144 746.31 428.496 744.689 428.496ZM750.337 428V422.64H749.873V410.72H753.745V428H750.337ZM758.56 428V404.48H762.416V428H758.56Z" fill="#353534"/>
<path d="M486.4 542V527.6H494.8V529.38H488.18V533.91H493.6V535.69H488.18V542H486.4ZM496.795 529.29V527.45H498.575V529.29H496.795ZM496.795 542V531.2H498.575V542H496.795ZM501.776 542V527.3H503.556V542H501.776ZM511.236 542.3C510.176 542.3 509.25 542.067 508.456 541.6C507.67 541.127 507.056 540.47 506.616 539.63C506.176 538.783 505.956 537.797 505.956 536.67C505.956 535.49 506.173 534.47 506.606 533.61C507.04 532.743 507.643 532.077 508.416 531.61C509.196 531.137 510.11 530.9 511.156 530.9C512.243 530.9 513.166 531.15 513.926 531.65C514.693 532.15 515.266 532.863 515.646 533.79C516.033 534.717 516.2 535.82 516.146 537.1H514.346V536.46C514.326 535.133 514.056 534.143 513.536 533.49C513.016 532.83 512.243 532.5 511.216 532.5C510.116 532.5 509.28 532.853 508.706 533.56C508.133 534.267 507.846 535.28 507.846 536.6C507.846 537.873 508.133 538.86 508.706 539.56C509.28 540.26 510.096 540.61 511.156 540.61C511.87 540.61 512.49 540.447 513.016 540.12C513.543 539.793 513.956 539.323 514.256 538.71L515.966 539.3C515.546 540.253 514.913 540.993 514.066 541.52C513.226 542.04 512.283 542.3 511.236 542.3ZM507.246 537.1V535.67H515.226V537.1H507.246ZM522.377 542V527.6H524.177L531.687 538.85V527.6H533.487V542H531.687L524.177 530.74V542H522.377ZM539.353 542.3C538.546 542.3 537.869 542.153 537.323 541.86C536.783 541.56 536.373 541.167 536.093 540.68C535.819 540.193 535.683 539.66 535.683 539.08C535.683 538.513 535.789 538.023 536.003 537.61C536.223 537.19 536.529 536.843 536.923 536.57C537.316 536.29 537.786 536.07 538.333 535.91C538.846 535.77 539.419 535.65 540.053 535.55C540.693 535.443 541.339 535.347 541.993 535.26C542.646 535.173 543.256 535.09 543.823 535.01L543.183 535.38C543.203 534.42 543.009 533.71 542.603 533.25C542.203 532.79 541.509 532.56 540.523 532.56C539.869 532.56 539.296 532.71 538.803 533.01C538.316 533.303 537.973 533.783 537.773 534.45L536.083 533.94C536.343 532.993 536.846 532.25 537.593 531.71C538.339 531.17 539.323 530.9 540.543 530.9C541.523 530.9 542.363 531.077 543.063 531.43C543.769 531.777 544.276 532.303 544.583 533.01C544.736 533.343 544.833 533.707 544.873 534.1C544.913 534.487 544.933 534.893 544.933 535.32V542H543.353V539.41L543.723 539.65C543.316 540.523 542.746 541.183 542.013 541.63C541.286 542.077 540.399 542.3 539.353 542.3ZM539.623 540.81C540.263 540.81 540.816 540.697 541.283 540.47C541.756 540.237 542.136 539.933 542.423 539.56C542.709 539.18 542.896 538.767 542.983 538.32C543.083 537.987 543.136 537.617 543.143 537.21C543.156 536.797 543.163 536.48 543.163 536.26L543.783 536.53C543.203 536.61 542.633 536.687 542.073 536.76C541.513 536.833 540.983 536.913 540.483 537C539.983 537.08 539.533 537.177 539.133 537.29C538.839 537.383 538.563 537.503 538.303 537.65C538.049 537.797 537.843 537.987 537.683 538.22C537.529 538.447 537.453 538.73 537.453 539.07C537.453 539.363 537.526 539.643 537.673 539.91C537.826 540.177 538.059 540.393 538.373 540.56C538.693 540.727 539.109 540.81 539.623 540.81ZM560.443 542L560.453 535.09C560.453 534.283 560.236 533.653 559.803 533.2C559.376 532.74 558.819 532.51 558.133 532.51C557.733 532.51 557.353 532.603 556.993 532.79C556.633 532.97 556.339 533.257 556.113 533.65C555.886 534.037 555.773 534.533 555.773 535.14L554.833 534.76C554.819 533.993 554.976 533.323 555.303 532.75C555.636 532.17 556.089 531.72 556.663 531.4C557.236 531.08 557.883 530.92 558.603 530.92C559.729 530.92 560.616 531.263 561.263 531.95C561.909 532.63 562.233 533.547 562.233 534.7L562.223 542H560.443ZM547.523 542V531.2H549.113V534.09H549.313V542H547.523ZM553.993 542L554.003 535.16C554.003 534.333 553.789 533.687 553.363 533.22C552.936 532.747 552.369 532.51 551.663 532.51C550.963 532.51 550.396 532.75 549.963 533.23C549.529 533.71 549.313 534.347 549.313 535.14L548.373 534.58C548.373 533.88 548.539 533.253 548.873 532.7C549.206 532.147 549.659 531.713 550.233 531.4C550.806 531.08 551.456 530.92 552.183 530.92C552.909 530.92 553.543 531.073 554.083 531.38C554.623 531.687 555.039 532.127 555.333 532.7C555.626 533.267 555.773 533.943 555.773 534.73L555.763 542H553.993ZM569.42 542.3C568.36 542.3 567.433 542.067 566.64 541.6C565.853 541.127 565.24 540.47 564.8 539.63C564.36 538.783 564.14 537.797 564.14 536.67C564.14 535.49 564.357 534.47 564.79 533.61C565.223 532.743 565.827 532.077 566.6 531.61C567.38 531.137 568.293 530.9 569.34 530.9C570.427 530.9 571.35 531.15 572.11 531.65C572.877 532.15 573.45 532.863 573.83 533.79C574.217 534.717 574.383 535.82 574.33 537.1H572.53V536.46C572.51 535.133 572.24 534.143 571.72 533.49C571.2 532.83 570.427 532.5 569.4 532.5C568.3 532.5 567.463 532.853 566.89 533.56C566.317 534.267 566.03 535.28 566.03 536.6C566.03 537.873 566.317 538.86 566.89 539.56C567.463 540.26 568.28 540.61 569.34 540.61C570.053 540.61 570.673 540.447 571.2 540.12C571.727 539.793 572.14 539.323 572.44 538.71L574.15 539.3C573.73 540.253 573.097 540.993 572.25 541.52C571.41 542.04 570.467 542.3 569.42 542.3ZM565.43 537.1V535.67H573.41V537.1H565.43Z" fill="#353534"/>
<path d="M590.32 542.3C588.887 542.3 587.67 541.983 586.67 541.35C585.67 540.717 584.907 539.837 584.38 538.71C583.86 537.583 583.6 536.28 583.6 534.8C583.6 533.32 583.86 532.017 584.38 530.89C584.907 529.763 585.67 528.883 586.67 528.25C587.67 527.617 588.887 527.3 590.32 527.3C591.987 527.3 593.357 527.723 594.43 528.57C595.51 529.417 596.253 530.557 596.66 531.99L594.85 532.47C594.557 531.397 594.033 530.55 593.28 529.93C592.527 529.31 591.54 529 590.32 529C589.247 529 588.353 529.243 587.64 529.73C586.927 530.217 586.39 530.897 586.03 531.77C585.67 532.637 585.487 533.647 585.48 534.8C585.473 535.947 585.65 536.957 586.01 537.83C586.37 538.697 586.91 539.377 587.63 539.87C588.35 540.357 589.247 540.6 590.32 540.6C591.54 540.6 592.527 540.29 593.28 539.67C594.033 539.043 594.557 538.197 594.85 537.13L596.66 537.61C596.253 539.037 595.51 540.177 594.43 541.03C593.357 541.877 591.987 542.3 590.32 542.3ZM606.543 542V536.59C606.543 536.077 606.496 535.583 606.403 535.11C606.316 534.637 606.16 534.213 605.933 533.84C605.713 533.46 605.413 533.16 605.033 532.94C604.66 532.72 604.186 532.61 603.613 532.61C603.166 532.61 602.76 532.687 602.393 532.84C602.033 532.987 601.723 533.213 601.463 533.52C601.203 533.827 601 534.213 600.853 534.68C600.713 535.14 600.643 535.683 600.643 536.31L599.473 535.95C599.473 534.903 599.66 534.007 600.033 533.26C600.413 532.507 600.943 531.93 601.623 531.53C602.31 531.123 603.116 530.92 604.043 530.92C604.743 530.92 605.34 531.03 605.833 531.25C606.326 531.47 606.736 531.763 607.063 532.13C607.39 532.49 607.646 532.897 607.833 533.35C608.02 533.797 608.15 534.253 608.223 534.72C608.303 535.18 608.343 535.617 608.343 536.03V542H606.543ZM598.843 542V527.6H600.443V535.55H600.643V542H598.843ZM615.043 542.28C614.35 542.28 613.753 542.17 613.253 541.95C612.76 541.73 612.35 541.437 612.023 541.07C611.696 540.703 611.44 540.297 611.253 539.85C611.066 539.403 610.933 538.947 610.853 538.48C610.78 538.013 610.743 537.577 610.743 537.17V531.2H612.543V536.61C612.543 537.117 612.59 537.607 612.683 538.08C612.776 538.553 612.933 538.98 613.153 539.36C613.38 539.74 613.68 540.04 614.053 540.26C614.433 540.48 614.906 540.59 615.473 540.59C615.92 540.59 616.326 540.513 616.693 540.36C617.06 540.207 617.373 539.98 617.633 539.68C617.893 539.373 618.093 538.987 618.233 538.52C618.373 538.053 618.443 537.51 618.443 536.89L619.613 537.25C619.613 538.29 619.423 539.187 619.043 539.94C618.67 540.693 618.14 541.273 617.453 541.68C616.773 542.08 615.97 542.28 615.043 542.28ZM618.643 542V539.11H618.443V531.2H620.233V542H618.643ZM630.723 542V536.59C630.723 536.077 630.676 535.583 630.583 535.11C630.496 534.637 630.339 534.213 630.113 533.84C629.893 533.46 629.593 533.16 629.213 532.94C628.839 532.72 628.366 532.61 627.793 532.61C627.346 532.61 626.939 532.687 626.573 532.84C626.213 532.987 625.903 533.213 625.643 533.52C625.383 533.827 625.179 534.213 625.033 534.68C624.893 535.14 624.823 535.683 624.823 536.31L623.653 535.95C623.653 534.903 623.839 534.007 624.213 533.26C624.593 532.507 625.123 531.93 625.803 531.53C626.489 531.123 627.296 530.92 628.223 530.92C628.923 530.92 629.519 531.03 630.013 531.25C630.506 531.47 630.916 531.763 631.243 532.13C631.569 532.49 631.826 532.897 632.013 533.35C632.199 533.797 632.329 534.253 632.403 534.72C632.483 535.18 632.523 535.617 632.523 536.03V542H630.723ZM623.023 542V531.2H624.623V534.09H624.823V542H623.023ZM635.113 542L635.123 527.6H636.923V536.4L641.453 531.2H643.763L638.993 536.6L644.323 542H641.833L636.923 536.8V542H635.113ZM643.918 544.23V542.76H657.118V544.23H643.918ZM663.381 542.3C662.448 542.3 661.614 542.09 660.881 541.67C660.154 541.243 659.578 540.667 659.151 539.94C658.731 539.207 658.521 538.373 658.521 537.44V532.16C658.521 531.227 658.731 530.393 659.151 529.66C659.578 528.927 660.154 528.35 660.881 527.93C661.614 527.51 662.448 527.3 663.381 527.3C664.314 527.3 665.148 527.51 665.881 527.93C666.614 528.35 667.191 528.927 667.611 529.66C668.031 530.393 668.241 531.227 668.241 532.16V537.44C668.241 538.373 668.031 539.207 667.611 539.94C667.191 540.667 666.614 541.243 665.881 541.67C665.148 542.09 664.314 542.3 663.381 542.3ZM663.381 540.59C663.948 540.59 664.461 540.453 664.921 540.18C665.381 539.907 665.748 539.54 666.021 539.08C666.294 538.613 666.431 538.1 666.431 537.54V532.05C666.431 531.483 666.294 530.97 666.021 530.51C665.748 530.05 665.381 529.683 664.921 529.41C664.461 529.137 663.948 529 663.381 529C662.821 529 662.308 529.137 661.841 529.41C661.381 529.683 661.014 530.05 660.741 530.51C660.468 530.97 660.331 531.483 660.331 532.05V537.54C660.331 538.1 660.468 538.613 660.741 539.08C661.014 539.54 661.381 539.907 661.841 540.18C662.308 540.453 662.821 540.59 663.381 540.59ZM675.901 542.3C674.967 542.3 674.134 542.09 673.401 541.67C672.674 541.243 672.097 540.667 671.671 539.94C671.251 539.207 671.041 538.373 671.041 537.44V532.16C671.041 531.227 671.251 530.393 671.671 529.66C672.097 528.927 672.674 528.35 673.401 527.93C674.134 527.51 674.967 527.3 675.901 527.3C676.834 527.3 677.667 527.51 678.401 527.93C679.134 528.35 679.711 528.927 680.131 529.66C680.551 530.393 680.761 531.227 680.761 532.16V537.44C680.761 538.373 680.551 539.207 680.131 539.94C679.711 540.667 679.134 541.243 678.401 541.67C677.667 542.09 676.834 542.3 675.901 542.3ZM675.901 540.59C676.467 540.59 676.981 540.453 677.441 540.18C677.901 539.907 678.267 539.54 678.541 539.08C678.814 538.613 678.951 538.1 678.951 537.54V532.05C678.951 531.483 678.814 530.97 678.541 530.51C678.267 530.05 677.901 529.683 677.441 529.41C676.981 529.137 676.467 529 675.901 529C675.341 529 674.827 529.137 674.361 529.41C673.901 529.683 673.534 530.05 673.261 530.51C672.987 530.97 672.851 531.483 672.851 532.05V537.54C672.851 538.1 672.987 538.613 673.261 539.08C673.534 539.54 673.901 539.907 674.361 540.18C674.827 540.453 675.341 540.59 675.901 540.59ZM683.16 541.99L683.17 540.39L689.56 534.64C690.093 534.16 690.45 533.707 690.63 533.28C690.817 532.847 690.91 532.403 690.91 531.95C690.91 531.397 690.783 530.897 690.53 530.45C690.277 530.003 689.93 529.65 689.49 529.39C689.057 529.13 688.563 529 688.01 529C687.437 529 686.927 529.137 686.48 529.41C686.033 529.677 685.68 530.033 685.42 530.48C685.167 530.927 685.043 531.413 685.05 531.94H683.23C683.23 531.033 683.44 530.233 683.86 529.54C684.28 528.84 684.85 528.293 685.57 527.9C686.297 527.5 687.12 527.3 688.04 527.3C688.933 527.3 689.733 527.507 690.44 527.92C691.147 528.327 691.703 528.883 692.11 529.59C692.523 530.29 692.73 531.083 692.73 531.97C692.73 532.597 692.65 533.14 692.49 533.6C692.337 534.06 692.097 534.487 691.77 534.88C691.443 535.267 691.033 535.68 690.54 536.12L685.23 540.89L685 540.29H692.73V541.99H683.16ZM694.723 541.99L694.733 540.39L701.123 534.64C701.656 534.16 702.013 533.707 702.193 533.28C702.379 532.847 702.473 532.403 702.473 531.95C702.473 531.397 702.346 530.897 702.093 530.45C701.839 530.003 701.493 529.65 701.053 529.39C700.619 529.13 700.126 529 699.573 529C698.999 529 698.489 529.137 698.043 529.41C697.596 529.677 697.243 530.033 696.983 530.48C696.729 530.927 696.606 531.413 696.613 531.94H694.793C694.793 531.033 695.003 530.233 695.423 529.54C695.843 528.84 696.413 528.293 697.133 527.9C697.859 527.5 698.683 527.3 699.603 527.3C700.496 527.3 701.296 527.507 702.003 527.92C702.709 528.327 703.266 528.883 703.673 529.59C704.086 530.29 704.293 531.083 704.293 531.97C704.293 532.597 704.213 533.14 704.053 533.6C703.899 534.06 703.659 534.487 703.333 534.88C703.006 535.267 702.596 535.68 702.103 536.12L696.793 540.89L696.563 540.29H704.293V541.99H694.723ZM712.515 542V539.35H705.895V537.66L710.645 527.6H712.665L707.915 537.66H712.515V533.61H714.315V537.66H715.815V539.35H714.315V542H712.515Z" fill="#353534"/>
<path d="M552.01 606.3C550.99 606.3 550.07 606.127 549.25 605.78C548.437 605.433 547.763 604.94 547.23 604.3C546.703 603.653 546.36 602.89 546.2 602.01L548.04 601.72C548.273 602.627 548.757 603.337 549.49 603.85C550.23 604.357 551.1 604.61 552.1 604.61C552.747 604.61 553.33 604.51 553.85 604.31C554.377 604.103 554.793 603.81 555.1 603.43C555.407 603.05 555.56 602.6 555.56 602.08C555.56 601.76 555.503 601.487 555.39 601.26C555.283 601.027 555.133 600.83 554.94 600.67C554.753 600.503 554.54 600.363 554.3 600.25C554.06 600.137 553.81 600.043 553.55 599.97L549.88 598.88C549.48 598.76 549.093 598.61 548.72 598.43C548.347 598.243 548.013 598.013 547.72 597.74C547.427 597.46 547.193 597.127 547.02 596.74C546.847 596.347 546.76 595.883 546.76 595.35C546.76 594.497 546.98 593.77 547.42 593.17C547.867 592.563 548.47 592.1 549.23 591.78C549.99 591.46 550.847 591.303 551.8 591.31C552.767 591.317 553.63 591.49 554.39 591.83C555.157 592.163 555.79 592.643 556.29 593.27C556.797 593.897 557.137 594.647 557.31 595.52L555.42 595.85C555.32 595.263 555.097 594.76 554.75 594.34C554.41 593.913 553.983 593.587 553.47 593.36C552.957 593.127 552.393 593.007 551.78 593C551.193 592.993 550.663 593.087 550.19 593.28C549.717 593.473 549.34 593.743 549.06 594.09C548.78 594.43 548.64 594.823 548.64 595.27C548.64 595.71 548.767 596.067 549.02 596.34C549.273 596.607 549.583 596.82 549.95 596.98C550.323 597.133 550.687 597.26 551.04 597.36L553.78 598.15C554.093 598.237 554.453 598.357 554.86 598.51C555.273 598.663 555.673 598.88 556.06 599.16C556.447 599.433 556.767 599.8 557.02 600.26C557.273 600.713 557.4 601.287 557.4 601.98C557.4 602.673 557.26 603.29 556.98 603.83C556.707 604.37 556.323 604.823 555.83 605.19C555.337 605.55 554.763 605.823 554.11 606.01C553.457 606.203 552.757 606.3 552.01 606.3ZM559.698 593.29V591.45H561.478V593.29H559.698ZM559.698 606V595.2H561.478V606H559.698ZM563.478 606V605.68L570.028 596.82H564.018V595.2H572.898V595.54L566.358 604.38H572.558V606H563.478ZM578.982 606.3C577.922 606.3 576.996 606.067 576.202 605.6C575.416 605.127 574.802 604.47 574.362 603.63C573.922 602.783 573.702 601.797 573.702 600.67C573.702 599.49 573.919 598.47 574.352 597.61C574.786 596.743 575.389 596.077 576.162 595.61C576.942 595.137 577.856 594.9 578.902 594.9C579.989 594.9 580.912 595.15 581.672 595.65C582.439 596.15 583.012 596.863 583.392 597.79C583.779 598.717 583.946 599.82 583.892 601.1H582.092V600.46C582.072 599.133 581.802 598.143 581.282 597.49C580.762 596.83 579.989 596.5 578.962 596.5C577.862 596.5 577.026 596.853 576.452 597.56C575.879 598.267 575.592 599.28 575.592 600.6C575.592 601.873 575.879 602.86 576.452 603.56C577.026 604.26 577.842 604.61 578.902 604.61C579.616 604.61 580.236 604.447 580.762 604.12C581.289 603.793 581.702 603.323 582.002 602.71L583.712 603.3C583.292 604.253 582.659 604.993 581.812 605.52C580.972 606.04 580.029 606.3 578.982 606.3ZM574.992 601.1V599.67H582.972V601.1H574.992ZM586.919 604.5V602.54H588.879V604.5H586.919ZM586.929 598.66V596.7H588.889V598.66H586.929Z" fill="#353534"/>
<path d="M604.16 606.3C603.42 606.3 602.73 606.147 602.09 605.84C601.457 605.533 600.913 605.113 600.46 604.58C600.013 604.04 599.693 603.42 599.5 602.72L601.21 602.26C601.33 602.733 601.543 603.143 601.85 603.49C602.157 603.83 602.513 604.097 602.92 604.29C603.333 604.477 603.763 604.57 604.21 604.57C604.797 604.57 605.323 604.43 605.79 604.15C606.263 603.863 606.637 603.487 606.91 603.02C607.183 602.547 607.32 602.03 607.32 601.47C607.32 600.89 607.177 600.367 606.89 599.9C606.61 599.427 606.233 599.053 605.76 598.78C605.287 598.507 604.77 598.37 604.21 598.37C603.577 598.37 603.033 598.503 602.58 598.77C602.133 599.03 601.78 599.35 601.52 599.73L599.94 599.13L600.38 591.6H608.11V593.29H601.24L602.03 592.55L601.66 598.58L601.27 598.07C601.67 597.643 602.147 597.313 602.7 597.08C603.26 596.847 603.83 596.73 604.41 596.73C605.303 596.73 606.103 596.94 606.81 597.36C607.517 597.773 608.077 598.34 608.49 599.06C608.903 599.773 609.11 600.577 609.11 601.47C609.11 602.357 608.883 603.167 608.43 603.9C607.977 604.627 607.373 605.21 606.62 605.65C605.873 606.083 605.053 606.3 604.16 606.3ZM616.412 606.3C615.498 606.3 614.668 606.08 613.922 605.64C613.182 605.2 612.592 604.6 612.152 603.84C611.718 603.073 611.502 602.21 611.502 601.25V596.46C611.502 595.453 611.718 594.563 612.152 593.79C612.592 593.01 613.192 592.403 613.952 591.97C614.718 591.53 615.592 591.31 616.572 591.31C617.365 591.31 618.102 591.473 618.782 591.8C619.468 592.12 620.045 592.583 620.512 593.19L619.182 594.37C618.895 593.95 618.522 593.617 618.062 593.37C617.602 593.123 617.105 593 616.572 593C615.938 593 615.375 593.153 614.882 593.46C614.395 593.76 614.012 594.16 613.732 594.66C613.452 595.153 613.312 595.687 613.312 596.26V599.15L612.922 598.71C613.342 598.11 613.875 597.63 614.522 597.27C615.168 596.91 615.868 596.73 616.622 596.73C617.515 596.73 618.315 596.94 619.022 597.36C619.735 597.78 620.295 598.35 620.702 599.07C621.115 599.783 621.322 600.587 621.322 601.48C621.322 602.373 621.098 603.183 620.652 603.91C620.205 604.637 619.608 605.217 618.862 605.65C618.122 606.083 617.305 606.3 616.412 606.3ZM616.412 604.58C616.985 604.58 617.508 604.443 617.982 604.17C618.455 603.89 618.828 603.517 619.102 603.05C619.382 602.577 619.522 602.053 619.522 601.48C619.522 600.907 619.382 600.383 619.102 599.91C618.828 599.437 618.455 599.063 617.982 598.79C617.515 598.51 616.995 598.37 616.422 598.37C615.848 598.37 615.325 598.51 614.852 598.79C614.385 599.063 614.012 599.437 613.732 599.91C613.452 600.383 613.312 600.907 613.312 601.48C613.312 602.047 613.448 602.567 613.722 603.04C614.002 603.507 614.375 603.88 614.842 604.16C615.315 604.44 615.838 604.58 616.412 604.58ZM640.837 606L640.847 599.09C640.847 598.283 640.631 597.653 640.197 597.2C639.771 596.74 639.214 596.51 638.527 596.51C638.127 596.51 637.747 596.603 637.387 596.79C637.027 596.97 636.734 597.257 636.507 597.65C636.281 598.037 636.167 598.533 636.167 599.14L635.227 598.76C635.214 597.993 635.371 597.323 635.697 596.75C636.031 596.17 636.484 595.72 637.057 595.4C637.631 595.08 638.277 594.92 638.997 594.92C640.124 594.92 641.011 595.263 641.657 595.95C642.304 596.63 642.627 597.547 642.627 598.7L642.617 606H640.837ZM627.917 606V595.2H629.507V598.09H629.707V606H627.917ZM634.387 606L634.397 599.16C634.397 598.333 634.184 597.687 633.757 597.22C633.331 596.747 632.764 596.51 632.057 596.51C631.357 596.51 630.791 596.75 630.357 597.23C629.924 597.71 629.707 598.347 629.707 599.14L628.767 598.58C628.767 597.88 628.934 597.253 629.267 596.7C629.601 596.147 630.054 595.713 630.627 595.4C631.201 595.08 631.851 594.92 632.577 594.92C633.304 594.92 633.937 595.073 634.477 595.38C635.017 595.687 635.434 596.127 635.727 596.7C636.021 597.267 636.167 597.943 636.167 598.73L636.157 606H634.387ZM650.192 606.3C649.179 606.3 648.325 606.05 647.632 605.55C646.939 605.043 646.412 604.36 646.052 603.5C645.699 602.633 645.522 601.663 645.522 600.59C645.522 599.503 645.699 598.53 646.052 597.67C646.412 596.81 646.939 596.133 647.632 595.64C648.332 595.147 649.189 594.9 650.202 594.9C651.202 594.9 652.062 595.15 652.782 595.65C653.509 596.143 654.065 596.82 654.452 597.68C654.839 598.54 655.032 599.51 655.032 600.59C655.032 601.67 654.839 602.64 654.452 603.5C654.065 604.36 653.509 605.043 652.782 605.55C652.062 606.05 651.199 606.3 650.192 606.3ZM645.222 606V591.6H647.012V598.05H646.812V606H645.222ZM649.972 604.67C650.685 604.67 651.275 604.49 651.742 604.13C652.209 603.77 652.559 603.283 652.792 602.67C653.025 602.05 653.142 601.357 653.142 600.59C653.142 599.83 653.025 599.143 652.792 598.53C652.565 597.917 652.212 597.43 651.732 597.07C651.259 596.71 650.655 596.53 649.922 596.53C649.222 596.53 648.642 596.703 648.182 597.05C647.722 597.39 647.379 597.867 647.152 598.48C646.925 599.087 646.812 599.79 646.812 600.59C646.812 601.377 646.922 602.08 647.142 602.7C647.369 603.313 647.715 603.797 648.182 604.15C648.649 604.497 649.245 604.67 649.972 604.67Z" fill="#353534"/>
<path d="M460.31 476V471.208L456.43 464.48H458.086L461.03 469.576L463.966 464.48H465.622L461.75 471.208V476H460.31ZM469.136 476.24C468.277 476.24 467.536 476.045 466.912 475.656C466.293 475.267 465.816 474.728 465.48 474.04C465.144 473.352 464.976 472.563 464.976 471.672C464.976 470.765 465.147 469.971 465.488 469.288C465.829 468.605 466.312 468.075 466.936 467.696C467.56 467.312 468.293 467.12 469.136 467.12C470 467.12 470.744 467.315 471.368 467.704C471.992 468.088 472.469 468.624 472.8 469.312C473.136 469.995 473.304 470.781 473.304 471.672C473.304 472.573 473.136 473.368 472.8 474.056C472.464 474.739 471.984 475.275 471.36 475.664C470.736 476.048 469.995 476.24 469.136 476.24ZM469.136 474.888C470.032 474.888 470.699 474.589 471.136 473.992C471.573 473.395 471.792 472.621 471.792 471.672C471.792 470.696 471.571 469.92 471.128 469.344C470.685 468.763 470.021 468.472 469.136 468.472C468.533 468.472 468.037 468.608 467.648 468.88C467.259 469.152 466.968 469.528 466.776 470.008C466.584 470.488 466.488 471.043 466.488 471.672C466.488 472.643 466.712 473.421 467.16 474.008C467.608 474.595 468.267 474.888 469.136 474.888ZM478.345 476.224C477.791 476.224 477.313 476.136 476.913 475.96C476.519 475.784 476.191 475.549 475.929 475.256C475.668 474.963 475.463 474.637 475.313 474.28C475.164 473.923 475.057 473.557 474.993 473.184C474.935 472.811 474.905 472.461 474.905 472.136V467.36H476.345V471.688C476.345 472.093 476.383 472.485 476.457 472.864C476.532 473.243 476.657 473.584 476.833 473.888C477.015 474.192 477.255 474.432 477.553 474.608C477.857 474.784 478.236 474.872 478.689 474.872C479.047 474.872 479.372 474.811 479.665 474.688C479.959 474.565 480.209 474.384 480.417 474.144C480.625 473.899 480.785 473.589 480.897 473.216C481.009 472.843 481.065 472.408 481.065 471.912L482.001 472.2C482.001 473.032 481.849 473.749 481.545 474.352C481.247 474.955 480.823 475.419 480.273 475.744C479.729 476.064 479.087 476.224 478.345 476.224ZM481.225 476V473.688H481.065V467.36H482.497V476H481.225ZM484.737 476V467.36H486.009V469.448L485.801 469.176C485.903 468.909 486.033 468.664 486.193 468.44C486.359 468.216 486.543 468.032 486.745 467.888C486.969 467.707 487.223 467.568 487.505 467.472C487.788 467.376 488.076 467.32 488.369 467.304C488.663 467.283 488.937 467.301 489.193 467.36V468.696C488.895 468.616 488.567 468.595 488.209 468.632C487.852 468.669 487.521 468.8 487.217 469.024C486.94 469.221 486.724 469.461 486.569 469.744C486.42 470.027 486.316 470.333 486.257 470.664C486.199 470.989 486.169 471.323 486.169 471.664V476H484.737ZM494.733 476V466.888C494.733 466.664 494.744 466.437 494.765 466.208C494.786 465.973 494.834 465.747 494.909 465.528C494.984 465.304 495.106 465.099 495.277 464.912C495.474 464.693 495.69 464.539 495.925 464.448C496.16 464.352 496.397 464.293 496.637 464.272C496.882 464.251 497.114 464.24 497.333 464.24H498.429V465.424H497.413C496.992 465.424 496.677 465.528 496.469 465.736C496.261 465.939 496.157 466.248 496.157 466.664V476H494.733ZM493.269 468.536V467.36H498.429V468.536H493.269ZM500.109 465.832V464.36H501.533V465.832H500.109ZM500.109 476V467.36H501.533V476H500.109ZM504.1 476V464.24H505.524V476H504.1ZM511.669 476.24C510.821 476.24 510.079 476.053 509.445 475.68C508.815 475.301 508.325 474.776 507.973 474.104C507.621 473.427 507.445 472.637 507.445 471.736C507.445 470.792 507.618 469.976 507.965 469.288C508.311 468.595 508.794 468.061 509.413 467.688C510.037 467.309 510.767 467.12 511.605 467.12C512.474 467.12 513.213 467.32 513.821 467.72C514.434 468.12 514.893 468.691 515.197 469.432C515.506 470.173 515.639 471.056 515.597 472.08H514.157V471.568C514.141 470.507 513.925 469.715 513.509 469.192C513.093 468.664 512.474 468.4 511.653 468.4C510.773 468.4 510.103 468.683 509.645 469.248C509.186 469.813 508.957 470.624 508.957 471.68C508.957 472.699 509.186 473.488 509.645 474.048C510.103 474.608 510.757 474.888 511.605 474.888C512.175 474.888 512.671 474.757 513.093 474.496C513.514 474.235 513.845 473.859 514.085 473.368L515.453 473.84C515.117 474.603 514.61 475.195 513.933 475.616C513.261 476.032 512.506 476.24 511.669 476.24ZM508.477 472.08V470.936H514.861V472.08H508.477ZM526.733 476V471.672C526.733 471.261 526.696 470.867 526.621 470.488C526.552 470.109 526.426 469.771 526.245 469.472C526.069 469.168 525.829 468.928 525.525 468.752C525.226 468.576 524.848 468.488 524.389 468.488C524.032 468.488 523.706 468.549 523.413 468.672C523.125 468.789 522.877 468.971 522.669 469.216C522.461 469.461 522.298 469.771 522.181 470.144C522.069 470.512 522.013 470.947 522.013 471.448L521.077 471.16C521.077 470.323 521.226 469.605 521.525 469.008C521.829 468.405 522.253 467.944 522.797 467.624C523.346 467.299 523.992 467.136 524.733 467.136C525.293 467.136 525.77 467.224 526.165 467.4C526.56 467.576 526.888 467.811 527.149 468.104C527.41 468.392 527.616 468.717 527.765 469.08C527.914 469.437 528.018 469.803 528.077 470.176C528.141 470.544 528.173 470.893 528.173 471.224V476H526.733ZM520.573 476V464.48H521.853V470.84H522.013V476H520.573ZM532.709 476.24C532.063 476.24 531.522 476.123 531.085 475.888C530.653 475.648 530.325 475.333 530.101 474.944C529.882 474.555 529.773 474.128 529.773 473.664C529.773 473.211 529.858 472.819 530.029 472.488C530.205 472.152 530.45 471.875 530.765 471.656C531.079 471.432 531.455 471.256 531.893 471.128C532.303 471.016 532.762 470.92 533.269 470.84C533.781 470.755 534.298 470.677 534.821 470.608C535.343 470.539 535.831 470.472 536.285 470.408L535.773 470.704C535.789 469.936 535.634 469.368 535.309 469C534.989 468.632 534.434 468.448 533.645 468.448C533.122 468.448 532.663 468.568 532.269 468.808C531.879 469.043 531.605 469.427 531.445 469.96L530.093 469.552C530.301 468.795 530.703 468.2 531.301 467.768C531.898 467.336 532.685 467.12 533.661 467.12C534.445 467.12 535.117 467.261 535.677 467.544C536.242 467.821 536.647 468.243 536.893 468.808C537.015 469.075 537.093 469.365 537.125 469.68C537.157 469.989 537.173 470.315 537.173 470.656V476H535.909V473.928L536.205 474.12C535.879 474.819 535.423 475.347 534.837 475.704C534.255 476.061 533.546 476.24 532.709 476.24ZM532.925 475.048C533.437 475.048 533.879 474.957 534.253 474.776C534.631 474.589 534.935 474.347 535.165 474.048C535.394 473.744 535.543 473.413 535.613 473.056C535.693 472.789 535.735 472.493 535.741 472.168C535.751 471.837 535.757 471.584 535.757 471.408L536.253 471.624C535.789 471.688 535.333 471.749 534.885 471.808C534.437 471.867 534.013 471.931 533.613 472C533.213 472.064 532.853 472.141 532.533 472.232C532.298 472.307 532.077 472.403 531.869 472.52C531.666 472.637 531.501 472.789 531.373 472.976C531.25 473.157 531.189 473.384 531.189 473.656C531.189 473.891 531.247 474.115 531.365 474.328C531.487 474.541 531.674 474.715 531.925 474.848C532.181 474.981 532.514 475.048 532.925 475.048ZM542.517 476.232C541.487 476.232 540.642 476.008 539.981 475.56C539.325 475.107 538.922 474.475 538.773 473.664L540.229 473.432C540.346 473.901 540.615 474.275 541.037 474.552C541.458 474.824 541.981 474.96 542.605 474.96C543.197 474.96 543.661 474.837 543.997 474.592C544.333 474.347 544.501 474.013 544.501 473.592C544.501 473.347 544.445 473.149 544.333 473C544.221 472.845 543.989 472.701 543.637 472.568C543.29 472.435 542.765 472.275 542.061 472.088C541.298 471.885 540.698 471.675 540.261 471.456C539.823 471.237 539.511 470.984 539.325 470.696C539.138 470.408 539.045 470.059 539.045 469.648C539.045 469.141 539.183 468.699 539.461 468.32C539.738 467.936 540.125 467.64 540.621 467.432C541.122 467.224 541.703 467.12 542.365 467.12C543.021 467.12 543.607 467.224 544.125 467.432C544.642 467.64 545.058 467.936 545.373 468.32C545.693 468.699 545.882 469.141 545.941 469.648L544.485 469.912C544.415 469.448 544.191 469.083 543.813 468.816C543.439 468.549 542.957 468.408 542.365 468.392C541.805 468.371 541.349 468.469 540.997 468.688C540.65 468.907 540.477 469.203 540.477 469.576C540.477 469.784 540.541 469.963 540.669 470.112C540.802 470.261 541.045 470.403 541.397 470.536C541.754 470.669 542.271 470.821 542.949 470.992C543.711 471.184 544.311 471.395 544.749 471.624C545.191 471.848 545.506 472.115 545.693 472.424C545.879 472.728 545.973 473.104 545.973 473.552C545.973 474.384 545.666 475.04 545.053 475.52C544.439 475.995 543.594 476.232 542.517 476.232ZM554.204 476.232C553.175 476.232 552.33 476.008 551.668 475.56C551.012 475.107 550.61 474.475 550.46 473.664L551.916 473.432C552.034 473.901 552.303 474.275 552.724 474.552C553.146 474.824 553.668 474.96 554.292 474.96C554.884 474.96 555.348 474.837 555.684 474.592C556.02 474.347 556.188 474.013 556.188 473.592C556.188 473.347 556.132 473.149 556.02 473C555.908 472.845 555.676 472.701 555.324 472.568C554.978 472.435 554.452 472.275 553.748 472.088C552.986 471.885 552.386 471.675 551.948 471.456C551.511 471.237 551.199 470.984 551.012 470.696C550.826 470.408 550.732 470.059 550.732 469.648C550.732 469.141 550.871 468.699 551.148 468.32C551.426 467.936 551.812 467.64 552.308 467.432C552.81 467.224 553.391 467.12 554.052 467.12C554.708 467.12 555.295 467.224 555.812 467.432C556.33 467.64 556.746 467.936 557.06 468.32C557.38 468.699 557.57 469.141 557.628 469.648L556.172 469.912C556.103 469.448 555.879 469.083 555.5 468.816C555.127 468.549 554.644 468.408 554.052 468.392C553.492 468.371 553.036 468.469 552.684 468.688C552.338 468.907 552.164 469.203 552.164 469.576C552.164 469.784 552.228 469.963 552.356 470.112C552.49 470.261 552.732 470.403 553.084 470.536C553.442 470.669 553.959 470.821 554.636 470.992C555.399 471.184 555.999 471.395 556.436 471.624C556.879 471.848 557.194 472.115 557.38 472.424C557.567 472.728 557.66 473.104 557.66 473.552C557.66 474.384 557.354 475.04 556.74 475.52C556.127 475.995 555.282 476.232 554.204 476.232ZM562.705 476.224C562.15 476.224 561.673 476.136 561.273 475.96C560.878 475.784 560.55 475.549 560.289 475.256C560.027 474.963 559.822 474.637 559.673 474.28C559.523 473.923 559.417 473.557 559.353 473.184C559.294 472.811 559.265 472.461 559.265 472.136V467.36H560.705V471.688C560.705 472.093 560.742 472.485 560.817 472.864C560.891 473.243 561.017 473.584 561.193 473.888C561.374 474.192 561.614 474.432 561.913 474.608C562.217 474.784 562.595 474.872 563.049 474.872C563.406 474.872 563.731 474.811 564.025 474.688C564.318 474.565 564.569 474.384 564.777 474.144C564.985 473.899 565.145 473.589 565.257 473.216C565.369 472.843 565.425 472.408 565.425 471.912L566.361 472.2C566.361 473.032 566.209 473.749 565.905 474.352C565.606 474.955 565.182 475.419 564.633 475.744C564.089 476.064 563.446 476.224 562.705 476.224ZM565.585 476V473.688H565.425V467.36H566.857V476H565.585ZM572.737 476.24C571.862 476.24 571.118 476.045 570.505 475.656C569.897 475.261 569.433 474.72 569.113 474.032C568.793 473.344 568.627 472.56 568.617 471.68C568.627 470.779 568.795 469.987 569.121 469.304C569.451 468.616 569.923 468.08 570.537 467.696C571.15 467.312 571.889 467.12 572.753 467.12C573.665 467.12 574.449 467.344 575.105 467.792C575.766 468.24 576.209 468.853 576.433 469.632L575.025 470.056C574.843 469.555 574.547 469.165 574.137 468.888C573.731 468.611 573.265 468.472 572.737 468.472C572.145 468.472 571.657 468.611 571.273 468.888C570.889 469.16 570.603 469.539 570.417 470.024C570.23 470.504 570.134 471.056 570.129 471.68C570.139 472.64 570.361 473.416 570.793 474.008C571.23 474.595 571.878 474.888 572.737 474.888C573.302 474.888 573.771 474.76 574.145 474.504C574.518 474.243 574.801 473.867 574.993 473.376L576.433 473.752C576.134 474.557 575.667 475.173 575.033 475.6C574.398 476.027 573.633 476.24 572.737 476.24ZM581.471 476.24C580.596 476.24 579.852 476.045 579.239 475.656C578.631 475.261 578.167 474.72 577.847 474.032C577.527 473.344 577.362 472.56 577.351 471.68C577.362 470.779 577.53 469.987 577.855 469.304C578.186 468.616 578.658 468.08 579.271 467.696C579.884 467.312 580.623 467.12 581.487 467.12C582.399 467.12 583.183 467.344 583.839 467.792C584.5 468.24 584.943 468.853 585.167 469.632L583.759 470.056C583.578 469.555 583.282 469.165 582.871 468.888C582.466 468.611 581.999 468.472 581.471 468.472C580.879 468.472 580.391 468.611 580.007 468.888C579.623 469.16 579.338 469.539 579.151 470.024C578.964 470.504 578.868 471.056 578.863 471.68C578.874 472.64 579.095 473.416 579.527 474.008C579.964 474.595 580.612 474.888 581.471 474.888C582.036 474.888 582.506 474.76 582.879 474.504C583.252 474.243 583.535 473.867 583.727 473.376L585.167 473.752C584.868 474.557 584.402 475.173 583.767 475.6C583.132 476.027 582.367 476.24 581.471 476.24ZM590.309 476.24C589.461 476.24 588.72 476.053 588.085 475.68C587.456 475.301 586.965 474.776 586.613 474.104C586.261 473.427 586.085 472.637 586.085 471.736C586.085 470.792 586.259 469.976 586.605 469.288C586.952 468.595 587.435 468.061 588.053 467.688C588.677 467.309 589.408 467.12 590.245 467.12C591.115 467.12 591.853 467.32 592.461 467.72C593.075 468.12 593.533 468.691 593.837 469.432C594.147 470.173 594.28 471.056 594.237 472.08H592.797V471.568C592.781 470.507 592.565 469.715 592.149 469.192C591.733 468.664 591.115 468.4 590.293 468.4C589.413 468.4 588.744 468.683 588.285 469.248C587.827 469.813 587.597 470.624 587.597 471.68C587.597 472.699 587.827 473.488 588.285 474.048C588.744 474.608 589.397 474.888 590.245 474.888C590.816 474.888 591.312 474.757 591.733 474.496C592.155 474.235 592.485 473.859 592.725 473.368L594.093 473.84C593.757 474.603 593.251 475.195 592.573 475.616C591.901 476.032 591.147 476.24 590.309 476.24ZM587.117 472.08V470.936H593.501V472.08H587.117ZM599.282 476.232C598.253 476.232 597.408 476.008 596.746 475.56C596.09 475.107 595.688 474.475 595.538 473.664L596.994 473.432C597.112 473.901 597.381 474.275 597.802 474.552C598.224 474.824 598.746 474.96 599.37 474.96C599.962 474.96 600.426 474.837 600.762 474.592C601.098 474.347 601.266 474.013 601.266 473.592C601.266 473.347 601.21 473.149 601.098 473C600.986 472.845 600.754 472.701 600.402 472.568C600.056 472.435 599.53 472.275 598.826 472.088C598.064 471.885 597.464 471.675 597.026 471.456C596.589 471.237 596.277 470.984 596.09 470.696C595.904 470.408 595.81 470.059 595.81 469.648C595.81 469.141 595.949 468.699 596.226 468.32C596.504 467.936 596.89 467.64 597.386 467.432C597.888 467.224 598.469 467.12 599.13 467.12C599.786 467.12 600.373 467.224 600.89 467.432C601.408 467.64 601.824 467.936 602.138 468.32C602.458 468.699 602.648 469.141 602.706 469.648L601.25 469.912C601.181 469.448 600.957 469.083 600.578 468.816C600.205 468.549 599.722 468.408 599.13 468.392C598.57 468.371 598.114 468.469 597.762 468.688C597.416 468.907 597.242 469.203 597.242 469.576C597.242 469.784 597.306 469.963 597.434 470.112C597.568 470.261 597.81 470.403 598.162 470.536C598.52 470.669 599.037 470.821 599.714 470.992C600.477 471.184 601.077 471.395 601.514 471.624C601.957 471.848 602.272 472.115 602.458 472.424C602.645 472.728 602.738 473.104 602.738 473.552C602.738 474.384 602.432 475.04 601.818 475.52C601.205 475.995 600.36 476.232 599.282 476.232ZM607.767 476.232C606.737 476.232 605.892 476.008 605.231 475.56C604.575 475.107 604.172 474.475 604.023 473.664L605.479 473.432C605.596 473.901 605.865 474.275 606.287 474.552C606.708 474.824 607.231 474.96 607.855 474.96C608.447 474.96 608.911 474.837 609.247 474.592C609.583 474.347 609.751 474.013 609.751 473.592C609.751 473.347 609.695 473.149 609.583 473C609.471 472.845 609.239 472.701 608.887 472.568C608.54 472.435 608.015 472.275 607.311 472.088C606.548 471.885 605.948 471.675 605.511 471.456C605.073 471.237 604.761 470.984 604.575 470.696C604.388 470.408 604.295 470.059 604.295 469.648C604.295 469.141 604.433 468.699 604.711 468.32C604.988 467.936 605.375 467.64 605.871 467.432C606.372 467.224 606.953 467.12 607.615 467.12C608.271 467.12 608.857 467.224 609.375 467.432C609.892 467.64 610.308 467.936 610.623 468.32C610.943 468.699 611.132 469.141 611.191 469.648L609.735 469.912C609.665 469.448 609.441 469.083 609.063 468.816C608.689 468.549 608.207 468.408 607.615 468.392C607.055 468.371 606.599 468.469 606.247 468.688C605.9 468.907 605.727 469.203 605.727 469.576C605.727 469.784 605.791 469.963 605.919 470.112C606.052 470.261 606.295 470.403 606.647 470.536C607.004 470.669 607.521 470.821 608.199 470.992C608.961 471.184 609.561 471.395 609.999 471.624C610.441 471.848 610.756 472.115 610.943 472.424C611.129 472.728 611.223 473.104 611.223 473.552C611.223 474.384 610.916 475.04 610.303 475.52C609.689 475.995 608.844 476.232 607.767 476.232ZM613.811 476V466.888C613.811 466.664 613.822 466.437 613.843 466.208C613.865 465.973 613.913 465.747 613.987 465.528C614.062 465.304 614.185 465.099 614.355 464.912C614.553 464.693 614.769 464.539 615.003 464.448C615.238 464.352 615.475 464.293 615.715 464.272C615.961 464.251 616.193 464.24 616.411 464.24H617.507V465.424H616.491C616.07 465.424 615.755 465.528 615.547 465.736C615.339 465.939 615.235 466.248 615.235 466.664V476H613.811ZM612.347 468.536V467.36H617.507V468.536H612.347ZM622.064 476.224C621.509 476.224 621.032 476.136 620.632 475.96C620.237 475.784 619.909 475.549 619.648 475.256C619.387 474.963 619.181 474.637 619.032 474.28C618.883 473.923 618.776 473.557 618.712 473.184C618.653 472.811 618.624 472.461 618.624 472.136V467.36H620.064V471.688C620.064 472.093 620.101 472.485 620.176 472.864C620.251 473.243 620.376 473.584 620.552 473.888C620.733 474.192 620.973 474.432 621.272 474.608C621.576 474.784 621.955 474.872 622.408 474.872C622.765 474.872 623.091 474.811 623.384 474.688C623.677 474.565 623.928 474.384 624.136 474.144C624.344 473.899 624.504 473.589 624.616 473.216C624.728 472.843 624.784 472.408 624.784 471.912L625.72 472.2C625.72 473.032 625.568 473.749 625.264 474.352C624.965 474.955 624.541 475.419 623.992 475.744C623.448 476.064 622.805 476.224 622.064 476.224ZM624.944 476V473.688H624.784V467.36H626.216V476H624.944ZM628.616 476V464.24H630.04V476H628.616ZM632.6 476V464.24H634.024V476H632.6ZM637.625 479.84L639.297 475.296L639.321 476.64L635.545 467.36H637.041L640.001 474.824H639.489L642.265 467.36H643.713L639.009 479.84H637.625ZM652.205 476.24C651.395 476.24 650.712 476.04 650.157 475.64C649.603 475.235 649.181 474.688 648.893 474C648.611 473.307 648.469 472.531 648.469 471.672C648.469 470.803 648.611 470.024 648.893 469.336C649.181 468.648 649.603 468.107 650.157 467.712C650.717 467.317 651.403 467.12 652.213 467.12C653.013 467.12 653.701 467.32 654.277 467.72C654.859 468.115 655.304 468.656 655.613 469.344C655.923 470.032 656.077 470.808 656.077 471.672C656.077 472.536 655.923 473.312 655.613 474C655.304 474.688 654.859 475.235 654.277 475.64C653.701 476.04 653.011 476.24 652.205 476.24ZM648.229 476V464.48H649.661V469.64H649.501V476H648.229ZM652.029 474.936C652.6 474.936 653.072 474.792 653.445 474.504C653.819 474.216 654.099 473.827 654.285 473.336C654.472 472.84 654.565 472.285 654.565 471.672C654.565 471.064 654.472 470.515 654.285 470.024C654.104 469.533 653.821 469.144 653.437 468.856C653.059 468.568 652.576 468.424 651.989 468.424C651.429 468.424 650.965 468.563 650.597 468.84C650.229 469.112 649.955 469.493 649.773 469.984C649.592 470.469 649.501 471.032 649.501 471.672C649.501 472.301 649.589 472.864 649.765 473.36C649.947 473.851 650.224 474.237 650.597 474.52C650.971 474.797 651.448 474.936 652.029 474.936ZM661.575 476.24C660.727 476.24 659.986 476.053 659.351 475.68C658.722 475.301 658.231 474.776 657.879 474.104C657.527 473.427 657.351 472.637 657.351 471.736C657.351 470.792 657.524 469.976 657.871 469.288C658.218 468.595 658.7 468.061 659.319 467.688C659.943 467.309 660.674 467.12 661.511 467.12C662.38 467.12 663.119 467.32 663.727 467.72C664.34 468.12 664.799 468.691 665.103 469.432C665.412 470.173 665.546 471.056 665.503 472.08H664.063V471.568C664.047 470.507 663.831 469.715 663.415 469.192C662.999 468.664 662.38 468.4 661.559 468.4C660.679 468.4 660.01 468.683 659.551 469.248C659.092 469.813 658.863 470.624 658.863 471.68C658.863 472.699 659.092 473.488 659.551 474.048C660.01 474.608 660.663 474.888 661.511 474.888C662.082 474.888 662.578 474.757 662.999 474.496C663.42 474.235 663.751 473.859 663.991 473.368L665.359 473.84C665.023 474.603 664.516 475.195 663.839 475.616C663.167 476.032 662.412 476.24 661.575 476.24ZM658.383 472.08V470.936H664.767V472.08H658.383ZM671.028 476.24C670.18 476.24 669.439 476.053 668.804 475.68C668.175 475.301 667.684 474.776 667.332 474.104C666.98 473.427 666.804 472.637 666.804 471.736C666.804 470.792 666.977 469.976 667.324 469.288C667.671 468.595 668.153 468.061 668.772 467.688C669.396 467.309 670.127 467.12 670.964 467.12C671.833 467.12 672.572 467.32 673.18 467.72C673.793 468.12 674.252 468.691 674.556 469.432C674.865 470.173 674.999 471.056 674.956 472.08H673.516V471.568C673.5 470.507 673.284 469.715 672.868 469.192C672.452 468.664 671.833 468.4 671.012 468.4C670.132 468.4 669.463 468.683 669.004 469.248C668.545 469.813 668.316 470.624 668.316 471.68C668.316 472.699 668.545 473.488 669.004 474.048C669.463 474.608 670.116 474.888 670.964 474.888C671.535 474.888 672.031 474.757 672.452 474.496C672.873 474.235 673.204 473.859 673.444 473.368L674.812 473.84C674.476 474.603 673.969 475.195 673.292 475.616C672.62 476.032 671.865 476.24 671.028 476.24ZM667.836 472.08V470.936H674.22V472.08H667.836ZM682.655 476V471.672C682.655 471.261 682.617 470.867 682.543 470.488C682.473 470.109 682.348 469.771 682.167 469.472C681.991 469.168 681.751 468.928 681.447 468.752C681.148 468.576 680.769 468.488 680.311 468.488C679.953 468.488 679.628 468.549 679.335 468.672C679.047 468.789 678.799 468.971 678.591 469.216C678.383 469.461 678.22 469.771 678.103 470.144C677.991 470.512 677.935 470.947 677.935 471.448L676.999 471.16C676.999 470.323 677.148 469.605 677.447 469.008C677.751 468.405 678.175 467.944 678.719 467.624C679.268 467.299 679.913 467.136 680.655 467.136C681.215 467.136 681.692 467.224 682.087 467.4C682.481 467.576 682.809 467.811 683.071 468.104C683.332 468.392 683.537 468.717 683.687 469.08C683.836 469.437 683.94 469.803 683.999 470.176C684.063 470.544 684.095 470.893 684.095 471.224V476H682.655ZM676.495 476V467.36H677.775V469.672H677.935V476H676.495ZM692.642 476.232C691.612 476.232 690.767 476.008 690.106 475.56C689.45 475.107 689.047 474.475 688.898 473.664L690.354 473.432C690.471 473.901 690.74 474.275 691.162 474.552C691.583 474.824 692.106 474.96 692.73 474.96C693.322 474.96 693.786 474.837 694.122 474.592C694.458 474.347 694.626 474.013 694.626 473.592C694.626 473.347 694.57 473.149 694.458 473C694.346 472.845 694.114 472.701 693.762 472.568C693.415 472.435 692.89 472.275 692.186 472.088C691.423 471.885 690.823 471.675 690.386 471.456C689.948 471.237 689.636 470.984 689.45 470.696C689.263 470.408 689.17 470.059 689.17 469.648C689.17 469.141 689.308 468.699 689.586 468.32C689.863 467.936 690.25 467.64 690.746 467.432C691.247 467.224 691.828 467.12 692.49 467.12C693.146 467.12 693.732 467.224 694.25 467.432C694.767 467.64 695.183 467.936 695.498 468.32C695.818 468.699 696.007 469.141 696.066 469.648L694.61 469.912C694.54 469.448 694.316 469.083 693.938 468.816C693.564 468.549 693.082 468.408 692.49 468.392C691.93 468.371 691.474 468.469 691.122 468.688C690.775 468.907 690.602 469.203 690.602 469.576C690.602 469.784 690.666 469.963 690.794 470.112C690.927 470.261 691.17 470.403 691.522 470.536C691.879 470.669 692.396 470.821 693.074 470.992C693.836 471.184 694.436 471.395 694.874 471.624C695.316 471.848 695.631 472.115 695.818 472.424C696.004 472.728 696.098 473.104 696.098 473.552C696.098 474.384 695.791 475.04 695.178 475.52C694.564 475.995 693.719 476.232 692.642 476.232ZM701.83 476.24C701.02 476.24 700.337 476.04 699.782 475.64C699.228 475.235 698.806 474.688 698.518 474C698.236 473.307 698.094 472.531 698.094 471.672C698.094 470.803 698.236 470.024 698.518 469.336C698.806 468.648 699.228 468.107 699.782 467.712C700.342 467.317 701.028 467.12 701.838 467.12C702.638 467.12 703.326 467.32 703.902 467.72C704.484 468.115 704.929 468.656 705.238 469.344C705.548 470.032 705.702 470.808 705.702 471.672C705.702 472.536 705.548 473.312 705.238 474C704.929 474.688 704.484 475.235 703.902 475.64C703.326 476.04 702.636 476.24 701.83 476.24ZM697.854 479.84V467.36H699.126V473.72H699.286V479.84H697.854ZM701.654 474.936C702.225 474.936 702.697 474.792 703.07 474.504C703.444 474.216 703.724 473.827 703.91 473.336C704.097 472.84 704.19 472.285 704.19 471.672C704.19 471.064 704.097 470.515 703.91 470.024C703.729 469.533 703.446 469.144 703.062 468.856C702.684 468.568 702.201 468.424 701.614 468.424C701.054 468.424 700.59 468.563 700.222 468.84C699.854 469.112 699.58 469.493 699.398 469.984C699.217 470.469 699.126 471.032 699.126 471.672C699.126 472.301 699.214 472.864 699.39 473.36C699.572 473.851 699.849 474.237 700.222 474.52C700.596 474.797 701.073 474.936 701.654 474.936ZM707.616 476V464.24H709.04V476H707.616ZM711.6 465.832V464.36H713.024V465.832H711.6ZM711.6 476V467.36H713.024V476H711.6ZM720.249 476C719.737 476.101 719.23 476.141 718.729 476.12C718.233 476.104 717.79 476.005 717.401 475.824C717.011 475.637 716.715 475.349 716.513 474.96C716.342 474.619 716.249 474.275 716.233 473.928C716.222 473.576 716.217 473.179 716.217 472.736V464.96H717.641V472.672C717.641 473.024 717.643 473.325 717.649 473.576C717.659 473.827 717.715 474.043 717.817 474.224C718.009 474.565 718.313 474.765 718.729 474.824C719.15 474.883 719.657 474.867 720.249 474.776V476ZM714.465 468.536V467.36H720.249V468.536H714.465ZM725.873 476C725.361 476.101 724.854 476.141 724.353 476.12C723.857 476.104 723.414 476.005 723.025 475.824C722.635 475.637 722.339 475.349 722.137 474.96C721.966 474.619 721.873 474.275 721.857 473.928C721.846 473.576 721.841 473.179 721.841 472.736V464.96H723.265V472.672C723.265 473.024 723.267 473.325 723.273 473.576C723.283 473.827 723.339 474.043 723.441 474.224C723.633 474.565 723.937 474.765 724.353 474.824C724.774 474.883 725.281 474.867 725.873 474.776V476ZM720.089 468.536V467.36H725.873V468.536H720.089ZM731.372 476.24C730.524 476.24 729.782 476.053 729.148 475.68C728.518 475.301 728.028 474.776 727.676 474.104C727.324 473.427 727.148 472.637 727.148 471.736C727.148 470.792 727.321 469.976 727.668 469.288C728.014 468.595 728.497 468.061 729.116 467.688C729.74 467.309 730.47 467.12 731.308 467.12C732.177 467.12 732.916 467.32 733.524 467.72C734.137 468.12 734.596 468.691 734.9 469.432C735.209 470.173 735.342 471.056 735.3 472.08H733.86V471.568C733.844 470.507 733.628 469.715 733.212 469.192C732.796 468.664 732.177 468.4 731.356 468.4C730.476 468.4 729.806 468.683 729.348 469.248C728.889 469.813 728.66 470.624 728.66 471.68C728.66 472.699 728.889 473.488 729.348 474.048C729.806 474.608 730.46 474.888 731.308 474.888C731.878 474.888 732.374 474.757 732.796 474.496C733.217 474.235 733.548 473.859 733.788 473.368L735.156 473.84C734.82 474.603 734.313 475.195 733.636 475.616C732.964 476.032 732.209 476.24 731.372 476.24ZM728.18 472.08V470.936H734.564V472.08H728.18ZM740.473 476.24C739.668 476.24 738.977 476.04 738.401 475.64C737.825 475.235 737.38 474.688 737.065 474C736.756 473.312 736.601 472.536 736.601 471.672C736.601 470.808 736.756 470.032 737.065 469.344C737.38 468.656 737.825 468.115 738.401 467.72C738.977 467.32 739.665 467.12 740.465 467.12C741.281 467.12 741.966 467.317 742.521 467.712C743.076 468.107 743.494 468.648 743.777 469.336C744.065 470.024 744.209 470.803 744.209 471.672C744.209 472.531 744.065 473.307 743.777 474C743.494 474.688 743.076 475.235 742.521 475.64C741.966 476.04 741.284 476.24 740.473 476.24ZM740.649 474.936C741.23 474.936 741.708 474.797 742.081 474.52C742.454 474.237 742.729 473.851 742.905 473.36C743.086 472.864 743.177 472.301 743.177 471.672C743.177 471.032 743.086 470.469 742.905 469.984C742.729 469.493 742.457 469.112 742.089 468.84C741.721 468.563 741.254 468.424 740.689 468.424C740.102 468.424 739.617 468.568 739.233 468.856C738.854 469.144 738.572 469.533 738.385 470.024C738.204 470.515 738.113 471.064 738.113 471.672C738.113 472.285 738.206 472.84 738.393 473.336C738.58 473.827 738.86 474.216 739.233 474.504C739.612 474.792 740.084 474.936 740.649 474.936ZM743.177 476V469.64H743.017V464.48H744.449V476H743.177Z" fill="#6A6A67"/>
<path d="M378.384 729.74C377.541 729.74 376.781 729.593 376.104 729.3C375.432 729.007 374.877 728.588 374.44 728.044C374.008 727.495 373.733 726.844 373.616 726.092L375.616 725.788C375.787 726.471 376.136 726.999 376.664 727.372C377.197 727.745 377.811 727.932 378.504 727.932C378.915 727.932 379.301 727.868 379.664 727.74C380.027 727.612 380.32 727.425 380.544 727.18C380.773 726.935 380.888 726.633 380.888 726.276C380.888 726.116 380.861 725.969 380.808 725.836C380.755 725.697 380.675 725.575 380.568 725.468C380.467 725.361 380.333 725.265 380.168 725.18C380.008 725.089 379.821 725.012 379.608 724.948L376.632 724.068C376.376 723.993 376.099 723.895 375.8 723.772C375.507 723.644 375.227 723.471 374.96 723.252C374.699 723.028 374.483 722.745 374.312 722.404C374.147 722.057 374.064 721.631 374.064 721.124C374.064 720.383 374.251 719.761 374.624 719.26C375.003 718.753 375.509 718.375 376.144 718.124C376.784 717.873 377.493 717.751 378.272 717.756C379.061 717.761 379.765 717.897 380.384 718.164C381.003 718.425 381.52 718.807 381.936 719.308C382.352 719.809 382.645 720.415 382.816 721.124L380.744 721.484C380.659 721.079 380.493 720.735 380.248 720.452C380.008 720.164 379.712 719.945 379.36 719.796C379.013 719.647 378.643 719.567 378.248 719.556C377.864 719.551 377.507 719.609 377.176 719.732C376.851 719.849 376.587 720.02 376.384 720.244C376.187 720.468 376.088 720.729 376.088 721.028C376.088 721.311 376.173 721.543 376.344 721.724C376.515 721.9 376.725 722.041 376.976 722.148C377.232 722.249 377.491 722.335 377.752 722.404L379.816 722.98C380.099 723.055 380.416 723.156 380.768 723.284C381.12 723.412 381.459 723.591 381.784 723.82C382.109 724.049 382.376 724.351 382.584 724.724C382.797 725.097 382.904 725.572 382.904 726.148C382.904 726.745 382.779 727.271 382.528 727.724C382.283 728.172 381.949 728.545 381.528 728.844C381.107 729.143 380.624 729.367 380.08 729.516C379.541 729.665 378.976 729.74 378.384 729.74ZM387.052 729.74C386.428 729.74 385.9 729.623 385.468 729.388C385.036 729.148 384.708 728.831 384.484 728.436C384.265 728.041 384.156 727.607 384.156 727.132C384.156 726.716 384.225 726.343 384.364 726.012C384.502 725.676 384.716 725.388 385.004 725.148C385.292 724.903 385.665 724.703 386.124 724.548C386.47 724.436 386.876 724.335 387.34 724.244C387.809 724.153 388.316 724.071 388.86 723.996C389.409 723.916 389.982 723.831 390.58 723.74L389.892 724.132C389.897 723.535 389.764 723.095 389.492 722.812C389.22 722.529 388.761 722.388 388.116 722.388C387.726 722.388 387.35 722.479 386.988 722.66C386.625 722.841 386.372 723.153 386.228 723.596L384.468 723.044C384.681 722.313 385.086 721.727 385.684 721.284C386.286 720.841 387.097 720.62 388.116 720.62C388.884 720.62 389.558 720.745 390.14 720.996C390.726 721.247 391.161 721.657 391.444 722.228C391.598 722.532 391.692 722.844 391.724 723.164C391.756 723.479 391.772 723.823 391.772 724.196V729.5H390.084V727.628L390.364 727.932C389.974 728.556 389.518 729.015 388.996 729.308C388.478 729.596 387.83 729.74 387.052 729.74ZM387.436 728.204C387.873 728.204 388.246 728.127 388.556 727.972C388.865 727.817 389.11 727.628 389.292 727.404C389.478 727.18 389.604 726.969 389.668 726.772C389.769 726.527 389.825 726.247 389.836 725.932C389.852 725.612 389.86 725.353 389.86 725.156L390.452 725.332C389.87 725.423 389.372 725.503 388.956 725.572C388.54 725.641 388.182 725.708 387.884 725.772C387.585 725.831 387.321 725.897 387.092 725.972C386.868 726.052 386.678 726.145 386.524 726.252C386.369 726.359 386.249 726.481 386.164 726.62C386.084 726.759 386.044 726.921 386.044 727.108C386.044 727.321 386.097 727.511 386.204 727.676C386.31 727.836 386.465 727.964 386.668 728.06C386.876 728.156 387.132 728.204 387.436 728.204ZM395.878 729.5L392.742 720.86H394.67L396.846 727.124L399.014 720.86H400.95L397.814 729.5H395.878ZM406.001 729.74C405.126 729.74 404.358 729.551 403.697 729.172C403.036 728.793 402.518 728.268 402.145 727.596C401.777 726.924 401.593 726.151 401.593 725.276C401.593 724.332 401.774 723.513 402.137 722.82C402.5 722.121 403.004 721.58 403.649 721.196C404.294 720.812 405.041 720.62 405.889 720.62C406.785 720.62 407.545 720.831 408.169 721.252C408.798 721.668 409.265 722.257 409.569 723.02C409.873 723.783 409.988 724.681 409.913 725.716H408.001V725.012C407.996 724.073 407.83 723.388 407.505 722.956C407.18 722.524 406.668 722.308 405.969 722.308C405.18 722.308 404.593 722.553 404.209 723.044C403.825 723.529 403.633 724.241 403.633 725.18C403.633 726.055 403.825 726.732 404.209 727.212C404.593 727.692 405.153 727.932 405.889 727.932C406.364 727.932 406.772 727.828 407.113 727.62C407.46 727.407 407.726 727.1 407.913 726.7L409.817 727.276C409.486 728.055 408.974 728.66 408.281 729.092C407.593 729.524 406.833 729.74 406.001 729.74ZM403.025 725.716V724.26H408.969V725.716H403.025ZM415.653 729.5V720.724C415.653 720.505 415.661 720.265 415.677 720.004C415.693 719.737 415.739 719.473 415.813 719.212C415.888 718.951 416.024 718.713 416.221 718.5C416.467 718.228 416.731 718.041 417.013 717.94C417.301 717.833 417.584 717.775 417.861 717.764C418.139 717.748 418.381 717.74 418.589 717.74H419.669V719.308H418.669C418.301 719.308 418.027 719.401 417.845 719.588C417.669 719.769 417.581 720.009 417.581 720.308V729.5H415.653ZM414.261 722.372V720.86H419.669V722.372H414.261ZM421.349 719.548V717.78H423.277V719.548H421.349ZM421.349 729.5V720.86H423.277V729.5H421.349ZM425.843 729.5V717.74H427.771V729.5H425.843ZM434.095 729.74C433.22 729.74 432.452 729.551 431.791 729.172C431.13 728.793 430.612 728.268 430.239 727.596C429.871 726.924 429.687 726.151 429.687 725.276C429.687 724.332 429.868 723.513 430.231 722.82C430.594 722.121 431.098 721.58 431.743 721.196C432.388 720.812 433.135 720.62 433.983 720.62C434.879 720.62 435.639 720.831 436.263 721.252C436.892 721.668 437.359 722.257 437.663 723.02C437.967 723.783 438.082 724.681 438.007 725.716H436.095V725.012C436.09 724.073 435.924 723.388 435.599 722.956C435.274 722.524 434.762 722.308 434.063 722.308C433.274 722.308 432.687 722.553 432.303 723.044C431.919 723.529 431.727 724.241 431.727 725.18C431.727 726.055 431.919 726.732 432.303 727.212C432.687 727.692 433.247 727.932 433.983 727.932C434.458 727.932 434.866 727.828 435.207 727.62C435.554 727.407 435.82 727.1 436.007 726.7L437.911 727.276C437.58 728.055 437.068 728.66 436.375 729.092C435.687 729.524 434.927 729.74 434.095 729.74ZM431.119 725.716V724.26H437.063V725.716H431.119ZM446.811 729.74C445.947 729.74 445.192 729.545 444.547 729.156C443.902 728.767 443.4 728.231 443.043 727.548C442.691 726.86 442.515 726.071 442.515 725.18C442.515 724.273 442.696 723.479 443.059 722.796C443.422 722.113 443.926 721.58 444.571 721.196C445.216 720.812 445.963 720.62 446.811 720.62C447.68 720.62 448.438 720.815 449.083 721.204C449.728 721.593 450.23 722.132 450.587 722.82C450.944 723.503 451.123 724.289 451.123 725.18C451.123 726.076 450.942 726.868 450.579 727.556C450.222 728.239 449.72 728.775 449.075 729.164C448.43 729.548 447.675 729.74 446.811 729.74ZM446.811 727.932C447.579 727.932 448.15 727.676 448.523 727.164C448.896 726.652 449.083 725.991 449.083 725.18C449.083 724.343 448.894 723.676 448.515 723.18C448.136 722.679 447.568 722.428 446.811 722.428C446.294 722.428 445.867 722.545 445.531 722.78C445.2 723.009 444.955 723.332 444.795 723.748C444.635 724.159 444.555 724.636 444.555 725.18C444.555 726.017 444.744 726.687 445.123 727.188C445.507 727.684 446.07 727.932 446.811 727.932ZM458.862 729.5V725.34C458.862 725.068 458.843 724.767 458.806 724.436C458.768 724.105 458.68 723.788 458.542 723.484C458.408 723.175 458.206 722.921 457.934 722.724C457.667 722.527 457.304 722.428 456.846 722.428C456.6 722.428 456.358 722.468 456.118 722.548C455.878 722.628 455.659 722.767 455.462 722.964C455.27 723.156 455.115 723.423 454.998 723.764C454.88 724.1 454.822 724.532 454.822 725.06L453.678 724.572C453.678 723.836 453.819 723.169 454.102 722.572C454.39 721.975 454.811 721.5 455.366 721.148C455.92 720.791 456.603 720.612 457.414 720.612C458.054 720.612 458.582 720.719 458.998 720.932C459.414 721.145 459.744 721.417 459.99 721.748C460.235 722.079 460.416 722.431 460.534 722.804C460.651 723.177 460.726 723.532 460.758 723.868C460.795 724.199 460.814 724.468 460.814 724.676V729.5H458.862ZM452.87 729.5V720.86H454.59V723.54H454.822V729.5H452.87ZM469.44 729.74C468.374 729.74 467.507 729.5 466.84 729.02C466.174 728.54 465.768 727.865 465.624 726.996L467.592 726.692C467.694 727.119 467.918 727.455 468.264 727.7C468.611 727.945 469.048 728.068 469.576 728.068C470.04 728.068 470.398 727.977 470.648 727.796C470.904 727.609 471.032 727.356 471.032 727.036C471.032 726.839 470.984 726.681 470.888 726.564C470.798 726.441 470.595 726.324 470.28 726.212C469.966 726.1 469.483 725.959 468.832 725.788C468.107 725.596 467.531 725.391 467.104 725.172C466.678 724.948 466.371 724.684 466.184 724.38C465.998 724.076 465.904 723.708 465.904 723.276C465.904 722.737 466.046 722.268 466.328 721.868C466.611 721.468 467.006 721.161 467.512 720.948C468.019 720.729 468.616 720.62 469.304 720.62C469.976 720.62 470.571 720.724 471.088 720.932C471.611 721.14 472.032 721.436 472.352 721.82C472.672 722.204 472.87 722.655 472.944 723.172L470.976 723.524C470.928 723.156 470.76 722.865 470.472 722.652C470.19 722.439 469.811 722.319 469.336 722.292C468.883 722.265 468.518 722.335 468.24 722.5C467.963 722.66 467.824 722.887 467.824 723.18C467.824 723.345 467.88 723.487 467.992 723.604C468.104 723.721 468.328 723.839 468.664 723.956C469.006 724.073 469.512 724.217 470.184 724.388C470.872 724.564 471.422 724.767 471.832 724.996C472.248 725.22 472.547 725.489 472.728 725.804C472.915 726.119 473.008 726.5 473.008 726.948C473.008 727.817 472.691 728.5 472.056 728.996C471.427 729.492 470.555 729.74 469.44 729.74ZM478.689 729.74C477.814 729.74 477.046 729.551 476.385 729.172C475.723 728.793 475.206 728.268 474.833 727.596C474.465 726.924 474.281 726.151 474.281 725.276C474.281 724.332 474.462 723.513 474.825 722.82C475.187 722.121 475.691 721.58 476.337 721.196C476.982 720.812 477.729 720.62 478.577 720.62C479.473 720.62 480.233 720.831 480.857 721.252C481.486 721.668 481.953 722.257 482.257 723.02C482.561 723.783 482.675 724.681 482.601 725.716H480.689V725.012C480.683 724.073 480.518 723.388 480.193 722.956C479.867 722.524 479.355 722.308 478.657 722.308C477.867 722.308 477.281 722.553 476.897 723.044C476.513 723.529 476.321 724.241 476.321 725.18C476.321 726.055 476.513 726.732 476.897 727.212C477.281 727.692 477.841 727.932 478.577 727.932C479.051 727.932 479.459 727.828 479.801 727.62C480.147 727.407 480.414 727.1 480.601 726.7L482.505 727.276C482.174 728.055 481.662 728.66 480.969 729.092C480.281 729.524 479.521 729.74 478.689 729.74ZM475.713 725.716V724.26H481.657V725.716H475.713ZM484.386 729.5V720.86H486.09V722.964L485.882 722.692C485.988 722.404 486.13 722.143 486.306 721.908C486.487 721.668 486.703 721.471 486.954 721.316C487.167 721.172 487.402 721.06 487.658 720.98C487.919 720.895 488.186 720.844 488.458 720.828C488.73 720.807 488.994 720.817 489.25 720.86V722.66C488.994 722.585 488.698 722.561 488.362 722.588C488.031 722.615 487.732 722.708 487.466 722.868C487.199 723.012 486.98 723.196 486.81 723.42C486.644 723.644 486.522 723.9 486.442 724.188C486.362 724.471 486.322 724.777 486.322 725.108V729.5H484.386ZM493.112 729.5L489.976 720.86H491.904L494.08 727.124L496.248 720.86H498.184L495.048 729.5H493.112ZM503.236 729.74C502.361 729.74 501.593 729.551 500.932 729.172C500.27 728.793 499.753 728.268 499.38 727.596C499.012 726.924 498.828 726.151 498.828 725.276C498.828 724.332 499.009 723.513 499.372 722.82C499.734 722.121 500.238 721.58 500.884 721.196C501.529 720.812 502.276 720.62 503.124 720.62C504.02 720.62 504.78 720.831 505.404 721.252C506.033 721.668 506.5 722.257 506.804 723.02C507.108 723.783 507.222 724.681 507.148 725.716H505.236V725.012C505.23 724.073 505.065 723.388 504.74 722.956C504.414 722.524 503.902 722.308 503.204 722.308C502.414 722.308 501.828 722.553 501.444 723.044C501.06 723.529 500.868 724.241 500.868 725.18C500.868 726.055 501.06 726.732 501.444 727.212C501.828 727.692 502.388 727.932 503.124 727.932C503.598 727.932 504.006 727.828 504.348 727.62C504.694 727.407 504.961 727.1 505.148 726.7L507.052 727.276C506.721 728.055 506.209 728.66 505.516 729.092C504.828 729.524 504.068 729.74 503.236 729.74ZM500.26 725.716V724.26H506.204V725.716H500.26ZM508.933 729.5V720.86H510.637V722.964L510.429 722.692C510.535 722.404 510.677 722.143 510.853 721.908C511.034 721.668 511.25 721.471 511.501 721.316C511.714 721.172 511.949 721.06 512.205 720.98C512.466 720.895 512.733 720.844 513.005 720.828C513.277 720.807 513.541 720.817 513.797 720.86V722.66C513.541 722.585 513.245 722.561 512.909 722.588C512.578 722.615 512.279 722.708 512.013 722.868C511.746 723.012 511.527 723.196 511.357 723.42C511.191 723.644 511.069 723.9 510.989 724.188C510.909 724.471 510.869 724.777 510.869 725.108V729.5H508.933Z" fill="#353534"/>
<path d="M529.801 715.5C529.801 713.732 531.233 712.3 533.001 712.3H546.407C547.255 712.3 548.069 712.637 548.669 713.237L551.264 715.831C551.864 716.431 552.201 717.245 552.201 718.094V731.5C552.201 733.267 550.768 734.7 549.001 734.7H533.001C531.233 734.7 529.801 733.267 529.801 731.5V715.5ZM533.001 713.9C532.117 713.9 531.401 714.616 531.401 715.5V731.5C531.401 732.383 532.117 733.1 533.001 733.1L533.001 725.9C533.001 724.574 534.075 723.5 535.401 723.5H546.601C547.926 723.5 549.001 724.574 549.001 725.9V733.1C549.884 733.1 550.601 732.383 550.601 731.5V718.094C550.601 717.67 550.432 717.263 550.132 716.963L547.538 714.368C547.238 714.068 546.831 713.9 546.407 713.9L545.801 713.9V717.9C545.801 719.225 544.726 720.3 543.401 720.3L537.001 720.3C535.675 720.3 534.601 719.225 534.601 717.9L534.601 713.9H533.001ZM536.201 713.9L536.201 717.9C536.201 718.342 536.559 718.7 537.001 718.7L543.401 718.7C543.843 718.7 544.201 718.342 544.201 717.9V713.9L536.201 713.9ZM547.401 733.1V725.9C547.401 725.458 547.043 725.1 546.601 725.1H535.401C534.959 725.1 534.601 725.458 534.601 725.9V733.1H547.401Z" fill="#333333"/>
<rect x="350" y="699" width="230" height="49" rx="7" stroke="#FCC6C6" stroke-width="2"/>
<g filter="url(#filter0_d_1343_4634)">
<rect x="621" y="698" width="232" height="51" rx="8" fill="#372092" shape-rendering="crispEdges"/>
<path d="M663.12 729.5V717.98H666.792C666.888 717.98 667.077 717.983 667.36 717.988C667.648 717.993 667.925 718.012 668.192 718.044C669.104 718.161 669.875 718.487 670.504 719.02C671.139 719.548 671.619 720.223 671.944 721.044C672.269 721.865 672.432 722.764 672.432 723.74C672.432 724.716 672.269 725.615 671.944 726.436C671.619 727.257 671.139 727.935 670.504 728.468C669.875 728.996 669.104 729.319 668.192 729.436C667.931 729.468 667.656 729.487 667.368 729.492C667.08 729.497 666.888 729.5 666.792 729.5H663.12ZM665.08 727.684H666.792C666.952 727.684 667.155 727.679 667.4 727.668C667.651 727.657 667.872 727.633 668.064 727.596C668.608 727.495 669.051 727.252 669.392 726.868C669.733 726.484 669.984 726.017 670.144 725.468C670.309 724.919 670.392 724.343 670.392 723.74C670.392 723.116 670.309 722.529 670.144 721.98C669.979 721.431 669.723 720.969 669.376 720.596C669.035 720.223 668.597 719.985 668.064 719.884C667.872 719.841 667.651 719.817 667.4 719.812C667.155 719.801 666.952 719.796 666.792 719.796H665.08V727.684ZM678.139 729.74C677.275 729.74 676.52 729.545 675.875 729.156C675.23 728.767 674.728 728.231 674.371 727.548C674.019 726.86 673.843 726.071 673.843 725.18C673.843 724.273 674.024 723.479 674.387 722.796C674.75 722.113 675.254 721.58 675.899 721.196C676.544 720.812 677.291 720.62 678.139 720.62C679.008 720.62 679.766 720.815 680.411 721.204C681.056 721.593 681.558 722.132 681.915 722.82C682.272 723.503 682.451 724.289 682.451 725.18C682.451 726.076 682.27 726.868 681.907 727.556C681.55 728.239 681.048 728.775 680.403 729.164C679.758 729.548 679.003 729.74 678.139 729.74ZM678.139 727.932C678.907 727.932 679.478 727.676 679.851 727.164C680.224 726.652 680.411 725.991 680.411 725.18C680.411 724.343 680.222 723.676 679.843 723.18C679.464 722.679 678.896 722.428 678.139 722.428C677.622 722.428 677.195 722.545 676.859 722.78C676.528 723.009 676.283 723.332 676.123 723.748C675.963 724.159 675.883 724.636 675.883 725.18C675.883 726.017 676.072 726.687 676.451 727.188C676.835 727.684 677.398 727.932 678.139 727.932ZM685.741 729.5L683.101 720.844L684.989 720.86L686.677 726.404L688.389 720.86H690.013L691.717 726.404L693.413 720.86H695.301L692.661 729.5H691.157L689.197 723.556L687.245 729.5H685.741ZM702.721 729.5V725.34C702.721 725.068 702.702 724.767 702.665 724.436C702.628 724.105 702.54 723.788 702.401 723.484C702.268 723.175 702.065 722.921 701.793 722.724C701.526 722.527 701.164 722.428 700.705 722.428C700.46 722.428 700.217 722.468 699.977 722.548C699.737 722.628 699.518 722.767 699.321 722.964C699.129 723.156 698.974 723.423 698.857 723.764C698.74 724.1 698.681 724.532 698.681 725.06L697.537 724.572C697.537 723.836 697.678 723.169 697.961 722.572C698.249 721.975 698.67 721.5 699.225 721.148C699.78 720.791 700.462 720.612 701.273 720.612C701.913 720.612 702.441 720.719 702.857 720.932C703.273 721.145 703.604 721.417 703.849 721.748C704.094 722.079 704.276 722.431 704.393 722.804C704.51 723.177 704.585 723.532 704.617 723.868C704.654 724.199 704.673 724.468 704.673 724.676V729.5H702.721ZM696.729 729.5V720.86H698.449V723.54H698.681V729.5H696.729ZM706.921 729.5V717.74H708.849V729.5H706.921ZM715.061 729.74C714.197 729.74 713.442 729.545 712.797 729.156C712.152 728.767 711.65 728.231 711.293 727.548C710.941 726.86 710.765 726.071 710.765 725.18C710.765 724.273 710.946 723.479 711.309 722.796C711.672 722.113 712.176 721.58 712.821 721.196C713.466 720.812 714.213 720.62 715.061 720.62C715.93 720.62 716.688 720.815 717.333 721.204C717.978 721.593 718.48 722.132 718.837 722.82C719.194 723.503 719.373 724.289 719.373 725.18C719.373 726.076 719.192 726.868 718.829 727.556C718.472 728.239 717.97 728.775 717.325 729.164C716.68 729.548 715.925 729.74 715.061 729.74ZM715.061 727.932C715.829 727.932 716.4 727.676 716.773 727.164C717.146 726.652 717.333 725.991 717.333 725.18C717.333 724.343 717.144 723.676 716.765 723.18C716.386 722.679 715.818 722.428 715.061 722.428C714.544 722.428 714.117 722.545 713.781 722.78C713.45 723.009 713.205 723.332 713.045 723.748C712.885 724.159 712.805 724.636 712.805 725.18C712.805 726.017 712.994 726.687 713.373 727.188C713.757 727.684 714.32 727.932 715.061 727.932ZM723.552 729.74C722.928 729.74 722.4 729.623 721.968 729.388C721.536 729.148 721.208 728.831 720.984 728.436C720.765 728.041 720.656 727.607 720.656 727.132C720.656 726.716 720.725 726.343 720.864 726.012C721.002 725.676 721.216 725.388 721.504 725.148C721.792 724.903 722.165 724.703 722.624 724.548C722.97 724.436 723.376 724.335 723.84 724.244C724.309 724.153 724.816 724.071 725.36 723.996C725.909 723.916 726.482 723.831 727.08 723.74L726.392 724.132C726.397 723.535 726.264 723.095 725.992 722.812C725.72 722.529 725.261 722.388 724.616 722.388C724.226 722.388 723.85 722.479 723.488 722.66C723.125 722.841 722.872 723.153 722.728 723.596L720.968 723.044C721.181 722.313 721.586 721.727 722.184 721.284C722.786 720.841 723.597 720.62 724.616 720.62C725.384 720.62 726.058 720.745 726.64 720.996C727.226 721.247 727.661 721.657 727.944 722.228C728.098 722.532 728.192 722.844 728.224 723.164C728.256 723.479 728.272 723.823 728.272 724.196V729.5H726.584V727.628L726.864 727.932C726.474 728.556 726.018 729.015 725.496 729.308C724.978 729.596 724.33 729.74 723.552 729.74ZM723.936 728.204C724.373 728.204 724.746 728.127 725.056 727.972C725.365 727.817 725.61 727.628 725.792 727.404C725.978 727.18 726.104 726.969 726.168 726.772C726.269 726.527 726.325 726.247 726.336 725.932C726.352 725.612 726.36 725.353 726.36 725.156L726.952 725.332C726.37 725.423 725.872 725.503 725.456 725.572C725.04 725.641 724.682 725.708 724.384 725.772C724.085 725.831 723.821 725.897 723.592 725.972C723.368 726.052 723.178 726.145 723.024 726.252C722.869 726.359 722.749 726.481 722.664 726.62C722.584 726.759 722.544 726.921 722.544 727.108C722.544 727.321 722.597 727.511 722.704 727.676C722.81 727.836 722.965 727.964 723.168 728.06C723.376 728.156 723.632 728.204 723.936 728.204ZM733.818 729.74C733.024 729.74 732.33 729.54 731.738 729.14C731.146 728.74 730.688 728.196 730.362 727.508C730.037 726.82 729.874 726.044 729.874 725.18C729.874 724.305 730.037 723.527 730.362 722.844C730.693 722.156 731.16 721.615 731.762 721.22C732.365 720.82 733.074 720.62 733.89 720.62C734.712 720.62 735.4 720.82 735.954 721.22C736.514 721.615 736.938 722.156 737.226 722.844C737.514 723.532 737.658 724.311 737.658 725.18C737.658 726.039 737.514 726.815 737.226 727.508C736.938 728.196 736.509 728.74 735.938 729.14C735.368 729.54 734.661 729.74 733.818 729.74ZM734.114 728.012C734.632 728.012 735.048 727.895 735.362 727.66C735.682 727.42 735.914 727.087 736.058 726.66C736.208 726.233 736.282 725.74 736.282 725.18C736.282 724.615 736.208 724.121 736.058 723.7C735.914 723.273 735.688 722.943 735.378 722.708C735.069 722.468 734.669 722.348 734.178 722.348C733.661 722.348 733.234 722.476 732.898 722.732C732.562 722.983 732.314 723.324 732.154 723.756C731.994 724.183 731.914 724.657 731.914 725.18C731.914 725.708 731.992 726.188 732.146 726.62C732.306 727.047 732.549 727.385 732.874 727.636C733.2 727.887 733.613 728.012 734.114 728.012ZM736.282 729.5V723.436H736.042V717.98H737.986V729.5H736.282ZM743.433 729.5V717.98H750.369V719.908H745.361V722.78H749.409V724.7H745.361V729.5H743.433ZM751.968 719.548V717.78H753.896V719.548H751.968ZM751.968 729.5V720.86H753.896V729.5H751.968ZM756.452 729.5V717.74H758.38V729.5H756.452ZM764.704 729.74C763.83 729.74 763.062 729.551 762.4 729.172C761.739 728.793 761.222 728.268 760.848 727.596C760.48 726.924 760.296 726.151 760.296 725.276C760.296 724.332 760.478 723.513 760.84 722.82C761.203 722.121 761.707 721.58 762.352 721.196C762.998 720.812 763.744 720.62 764.592 720.62C765.488 720.62 766.248 720.831 766.872 721.252C767.502 721.668 767.968 722.257 768.272 723.02C768.576 723.783 768.691 724.681 768.616 725.716H766.704V725.012C766.699 724.073 766.534 723.388 766.208 722.956C765.883 722.524 765.371 722.308 764.672 722.308C763.883 722.308 763.296 722.553 762.912 723.044C762.528 723.529 762.336 724.241 762.336 725.18C762.336 726.055 762.528 726.732 762.912 727.212C763.296 727.692 763.856 727.932 764.592 727.932C765.067 727.932 765.475 727.828 765.816 727.62C766.163 727.407 766.43 727.1 766.616 726.7L768.52 727.276C768.19 728.055 767.678 728.66 766.984 729.092C766.296 729.524 765.536 729.74 764.704 729.74ZM761.728 725.716V724.26H767.672V725.716H761.728Z" fill="white"/>
<path d="M789.6 710.7C787.832 710.7 786.4 712.133 786.4 713.9V722.231C786.915 722.086 787.45 721.986 788 721.936V713.9C788 713.017 788.716 712.3 789.6 712.3H796V717.9C796 719.226 797.074 720.3 798.4 720.3H804V733.1C804 733.984 803.283 734.7 802.4 734.7H796.64C796.347 735.273 795.994 735.809 795.588 736.3H802.4C804.167 736.3 805.6 734.868 805.6 733.1V719.363C805.6 718.726 805.347 718.116 804.897 717.666L798.634 711.403C798.184 710.953 797.573 710.7 796.937 710.7H789.6ZM803.668 718.7H798.4C797.958 718.7 797.6 718.342 797.6 717.9V712.632L803.668 718.7ZM788.8 737.9C792.776 737.9 796 734.677 796 730.7C796 726.724 792.776 723.5 788.8 723.5C784.823 723.5 781.6 726.724 781.6 730.7C781.6 734.677 784.823 737.9 788.8 737.9ZM785.034 731.266C784.722 730.953 784.722 730.447 785.034 730.135C785.346 729.822 785.853 729.822 786.165 730.135L788 731.969L788 727.5C788 727.058 788.358 726.7 788.8 726.7C789.241 726.7 789.6 727.058 789.6 727.5V731.969L791.434 730.135C791.746 729.822 792.253 729.822 792.565 730.135C792.878 730.447 792.878 730.953 792.565 731.266L789.365 734.466C789.289 734.543 789.2 734.6 789.106 734.639C789.013 734.678 788.911 734.7 788.804 734.7L788.8 734.7L788.795 734.7C788.688 734.7 788.586 734.678 788.493 734.639C788.4 734.601 788.313 734.544 788.237 734.469L788.233 734.465L785.034 731.266Z" fill="white"/>
</g>
<rect x="167" y="161" width="868" height="702" rx="25" stroke="#372092"/>
<defs>
<filter id="filter0_d_1343_4634" x="601" y="690" width="272" height="91" filterUnits="userSpaceOnUse" color-interpolation-filters="sRGB">
<feFlood flood-opacity="0" result="BackgroundImageFix"/>
<feColorMatrix in="SourceAlpha" type="matrix" values="0 0 0 0 0 0 0 0 0 0 0 0 0 0 0 0 0 0 127 0" result="hardAlpha"/>
<feOffset dy="12"/>
<feGaussianBlur stdDeviation="10"/>
<feComposite in2="hardAlpha" operator="out"/>
<feColorMatrix type="matrix" values="0 0 0 0 0 0 0 0 0 0 0 0 0 0 0 0 0 0 0.15 0"/>
<feBlend mode="normal" in2="BackgroundImageFix" result="effect1_dropShadow_1343_4634"/>
<feBlend mode="normal" in="SourceGraphic" in2="effect1_dropShadow_1343_4634" result="shape"/>
</filter>
</defs>
</svg>
