<svg width="1201" height="1024" viewBox="0 0 1201 1024" fill="none" xmlns="http://www.w3.org/2000/svg">
<rect width="1201" height="1024" fill="white"/>
<rect x="167" y="244" width="868" height="536" rx="25" fill="white"/>
<path d="M394.583 413V386.43H397.904L411.761 407.188V386.43H415.083V413H411.761L397.904 392.224V413H394.583ZM427.807 413.517C426.528 413.517 425.427 413.314 424.504 412.908C423.594 412.502 422.837 411.961 422.235 411.284C421.632 410.607 421.158 409.857 420.814 409.033C420.47 408.209 420.223 407.366 420.076 406.505C419.941 405.644 419.873 404.838 419.873 404.088V393.073H423.194V403.055C423.194 403.99 423.28 404.894 423.452 405.767C423.625 406.64 423.914 407.428 424.32 408.129C424.738 408.83 425.291 409.384 425.98 409.789C426.681 410.195 427.555 410.398 428.6 410.398C429.425 410.398 430.175 410.257 430.851 409.974C431.528 409.691 432.106 409.273 432.586 408.719C433.066 408.153 433.435 407.44 433.693 406.579C433.951 405.718 434.08 404.715 434.08 403.571L436.239 404.236C436.239 406.155 435.889 407.809 435.187 409.199C434.499 410.589 433.521 411.659 432.254 412.41C430.999 413.148 429.517 413.517 427.807 413.517ZM434.449 413V407.668H434.08V393.073H437.383V413H434.449ZM466.37 413L466.388 400.25C466.388 398.762 465.988 397.599 465.189 396.763C464.402 395.914 463.375 395.49 462.108 395.49C461.369 395.49 460.668 395.662 460.004 396.006C459.34 396.339 458.799 396.867 458.38 397.593C457.962 398.307 457.753 399.223 457.753 400.342L456.019 399.641C455.994 398.227 456.283 396.99 456.886 395.933C457.501 394.862 458.337 394.032 459.395 393.442C460.453 392.851 461.646 392.556 462.975 392.556C465.054 392.556 466.69 393.19 467.883 394.456C469.076 395.711 469.673 397.403 469.673 399.531L469.654 413H466.37ZM442.531 413V393.073H445.464V398.405H445.834V413H442.531ZM454.469 413L454.487 400.379C454.487 398.854 454.094 397.661 453.306 396.8C452.519 395.926 451.473 395.49 450.17 395.49C448.878 395.49 447.832 395.933 447.033 396.818C446.233 397.704 445.834 398.879 445.834 400.342L444.099 399.309C444.099 398.018 444.407 396.861 445.022 395.84C445.637 394.819 446.473 394.02 447.531 393.442C448.589 392.851 449.788 392.556 451.129 392.556C452.47 392.556 453.638 392.839 454.635 393.405C455.631 393.971 456.4 394.782 456.941 395.84C457.482 396.886 457.753 398.134 457.753 399.586L457.735 413H454.469ZM483.63 413.554C481.761 413.554 480.186 413.092 478.907 412.17C477.628 411.235 476.656 409.974 475.992 408.387C475.34 406.788 475.014 404.998 475.014 403.018C475.014 401.013 475.34 399.217 475.992 397.63C476.656 396.043 477.628 394.795 478.907 393.885C480.198 392.974 481.779 392.519 483.649 392.519C485.494 392.519 487.081 392.98 488.409 393.903C489.75 394.813 490.777 396.062 491.491 397.649C492.204 399.235 492.561 401.025 492.561 403.018C492.561 405.011 492.204 406.8 491.491 408.387C490.777 409.974 489.75 411.235 488.409 412.17C487.081 413.092 485.488 413.554 483.63 413.554ZM474.46 413V386.43H477.763V398.331H477.394V413H474.46ZM483.224 410.546C484.541 410.546 485.629 410.214 486.49 409.55C487.351 408.885 487.997 407.987 488.428 406.856C488.858 405.712 489.073 404.432 489.073 403.018C489.073 401.616 488.858 400.349 488.428 399.217C488.009 398.085 487.357 397.187 486.472 396.523C485.598 395.859 484.485 395.527 483.132 395.527C481.841 395.527 480.77 395.846 479.922 396.486C479.073 397.113 478.439 397.993 478.021 399.125C477.603 400.244 477.394 401.542 477.394 403.018C477.394 404.469 477.597 405.767 478.003 406.911C478.421 408.043 479.061 408.935 479.922 409.587C480.783 410.226 481.884 410.546 483.224 410.546ZM505.241 413.554C503.285 413.554 501.575 413.123 500.111 412.262C498.66 411.389 497.528 410.177 496.716 408.627C495.904 407.065 495.499 405.244 495.499 403.165C495.499 400.988 495.898 399.106 496.698 397.519C497.497 395.92 498.611 394.69 500.038 393.829C501.477 392.956 503.162 392.519 505.093 392.519C507.098 392.519 508.802 392.98 510.204 393.903C511.619 394.826 512.677 396.142 513.378 397.852C514.091 399.561 514.399 401.597 514.3 403.959H510.979V402.778C510.942 400.33 510.444 398.503 509.485 397.298C508.525 396.08 507.098 395.471 505.204 395.471C503.174 395.471 501.63 396.123 500.573 397.427C499.515 398.731 498.986 400.601 498.986 403.036C498.986 405.386 499.515 407.206 500.573 408.498C501.63 409.789 503.137 410.435 505.093 410.435C506.409 410.435 507.553 410.134 508.525 409.531C509.497 408.928 510.26 408.061 510.813 406.93L513.968 408.018C513.193 409.777 512.025 411.143 510.462 412.114C508.913 413.074 507.172 413.554 505.241 413.554ZM497.879 403.959V401.32H512.603V403.959H497.879ZM518.408 413V393.073H521.342V397.888L520.862 397.261C521.096 396.646 521.397 396.08 521.766 395.564C522.148 395.047 522.572 394.623 523.04 394.29C523.556 393.872 524.141 393.552 524.792 393.331C525.444 393.11 526.109 392.98 526.785 392.943C527.462 392.894 528.095 392.937 528.686 393.073V396.154C527.997 395.97 527.24 395.92 526.416 396.006C525.592 396.093 524.829 396.394 524.128 396.911C523.489 397.366 522.99 397.919 522.634 398.571C522.289 399.223 522.049 399.93 521.914 400.693C521.779 401.443 521.711 402.212 521.711 402.999V413H518.408ZM548.05 413.554C546.07 413.554 544.36 413.105 542.921 412.207C541.494 411.309 540.393 410.066 539.618 408.479C538.843 406.893 538.455 405.072 538.455 403.018C538.455 400.927 538.849 399.094 539.636 397.519C540.423 395.945 541.537 394.721 542.976 393.848C544.415 392.962 546.106 392.519 548.05 392.519C550.043 392.519 551.759 392.968 553.198 393.866C554.637 394.752 555.738 395.988 556.501 397.575C557.276 399.149 557.663 400.964 557.663 403.018C557.663 405.097 557.276 406.93 556.501 408.516C555.726 410.091 554.619 411.327 553.179 412.225C551.74 413.111 550.03 413.554 548.05 413.554ZM548.05 410.435C550.117 410.435 551.654 409.746 552.663 408.369C553.671 406.991 554.176 405.207 554.176 403.018C554.176 400.767 553.665 398.977 552.644 397.649C551.623 396.308 550.092 395.637 548.05 395.637C546.66 395.637 545.516 395.951 544.618 396.578C543.72 397.206 543.05 398.073 542.607 399.18C542.164 400.287 541.943 401.566 541.943 403.018C541.943 405.257 542.459 407.053 543.493 408.406C544.526 409.759 546.045 410.435 548.05 410.435ZM563.626 413V391.984C563.626 391.467 563.651 390.945 563.7 390.416C563.749 389.874 563.86 389.352 564.032 388.847C564.204 388.331 564.487 387.857 564.881 387.427C565.336 386.922 565.834 386.566 566.375 386.356C566.916 386.135 567.464 386 568.017 385.95C568.583 385.901 569.118 385.877 569.623 385.877H572.15V388.607H569.807C568.835 388.607 568.11 388.847 567.63 389.327C567.15 389.794 566.91 390.508 566.91 391.467V413H563.626ZM560.249 395.785V393.073H572.15V395.785H560.249ZM582.852 413V385.877H586.136V413H582.852ZM592.042 389.548V386.153H595.326V389.548H592.042ZM592.042 413V393.073H595.326V413H592.042ZM615.051 413V403.018C615.051 402.071 614.965 401.16 614.793 400.287C614.633 399.414 614.344 398.633 613.926 397.944C613.52 397.243 612.966 396.689 612.265 396.283C611.576 395.877 610.703 395.674 609.645 395.674C608.821 395.674 608.071 395.816 607.394 396.099C606.73 396.369 606.158 396.788 605.678 397.353C605.198 397.919 604.823 398.633 604.553 399.494C604.294 400.342 604.165 401.345 604.165 402.501L602.006 401.837C602.006 399.906 602.351 398.251 603.04 396.874C603.741 395.484 604.719 394.42 605.973 393.682C607.24 392.931 608.729 392.556 610.439 392.556C611.73 392.556 612.831 392.759 613.741 393.165C614.652 393.571 615.408 394.112 616.011 394.789C616.614 395.453 617.087 396.203 617.432 397.04C617.776 397.864 618.016 398.706 618.151 399.567C618.299 400.416 618.373 401.222 618.373 401.985V413H615.051ZM600.844 413V393.073H603.796V398.405H604.165V413H600.844ZM631.625 413.554C629.669 413.554 627.959 413.123 626.495 412.262C625.044 411.389 623.912 410.177 623.1 408.627C622.288 407.065 621.882 405.244 621.882 403.165C621.882 400.988 622.282 399.106 623.082 397.519C623.881 395.92 624.994 394.69 626.421 393.829C627.861 392.956 629.546 392.519 631.477 392.519C633.482 392.519 635.186 392.98 636.588 393.903C638.003 394.826 639.06 396.142 639.762 397.852C640.475 399.561 640.783 401.597 640.684 403.959H637.363V402.778C637.326 400.33 636.828 398.503 635.868 397.298C634.909 396.08 633.482 395.471 631.588 395.471C629.558 395.471 628.014 396.123 626.956 397.427C625.899 398.731 625.37 400.601 625.37 403.036C625.37 405.386 625.899 407.206 626.956 408.498C628.014 409.789 629.521 410.435 631.477 410.435C632.793 410.435 633.937 410.134 634.909 409.531C635.881 408.928 636.643 408.061 637.197 406.93L640.352 408.018C639.577 409.777 638.408 411.143 636.846 412.114C635.296 413.074 633.556 413.554 631.625 413.554ZM624.263 403.959V401.32H638.987V403.959H624.263ZM652.32 413.535C649.946 413.535 647.997 413.018 646.471 411.985C644.958 410.94 644.029 409.482 643.685 407.612L647.043 407.077C647.314 408.16 647.935 409.021 648.907 409.66C649.879 410.288 651.084 410.601 652.523 410.601C653.889 410.601 654.959 410.318 655.734 409.753C656.509 409.187 656.896 408.418 656.896 407.446C656.896 406.88 656.767 406.425 656.509 406.081C656.25 405.724 655.715 405.392 654.903 405.084C654.104 404.777 652.892 404.408 651.269 403.977C649.51 403.51 648.126 403.024 647.117 402.52C646.108 402.015 645.389 401.431 644.958 400.767C644.528 400.103 644.312 399.297 644.312 398.35C644.312 397.181 644.632 396.16 645.272 395.287C645.912 394.401 646.803 393.718 647.947 393.239C649.104 392.759 650.444 392.519 651.97 392.519C653.483 392.519 654.836 392.759 656.029 393.239C657.222 393.718 658.182 394.401 658.907 395.287C659.645 396.16 660.082 397.181 660.217 398.35L656.859 398.959C656.699 397.888 656.183 397.046 655.309 396.431C654.448 395.816 653.335 395.49 651.97 395.453C650.678 395.404 649.626 395.631 648.815 396.136C648.015 396.64 647.615 397.323 647.615 398.184C647.615 398.663 647.763 399.075 648.058 399.42C648.366 399.764 648.925 400.09 649.737 400.398C650.561 400.705 651.754 401.056 653.317 401.45C655.076 401.892 656.459 402.378 657.468 402.907C658.489 403.424 659.215 404.039 659.645 404.752C660.076 405.453 660.291 406.321 660.291 407.354C660.291 409.273 659.584 410.786 658.169 411.893C656.755 412.988 654.805 413.535 652.32 413.535ZM680.9 413.554C679.03 413.554 677.456 413.092 676.177 412.17C674.897 411.235 673.925 409.974 673.261 408.387C672.609 406.788 672.283 404.998 672.283 403.018C672.283 401.013 672.609 399.217 673.261 397.63C673.925 396.043 674.897 394.795 676.177 393.885C677.468 392.974 679.049 392.519 680.919 392.519C682.764 392.519 684.35 392.98 685.679 393.903C687.02 394.813 688.047 396.062 688.76 397.649C689.474 399.235 689.83 401.025 689.83 403.018C689.83 405.011 689.474 406.8 688.76 408.387C688.047 409.974 687.02 411.235 685.679 412.17C684.35 413.092 682.757 413.554 680.9 413.554ZM671.73 421.857V393.073H674.664V407.741H675.033V421.857H671.73ZM680.494 410.546C681.81 410.546 682.899 410.214 683.76 409.55C684.621 408.885 685.267 407.987 685.697 406.856C686.128 405.712 686.343 404.432 686.343 403.018C686.343 401.616 686.128 400.349 685.697 399.217C685.279 398.085 684.627 397.187 683.742 396.523C682.868 395.859 681.755 395.527 680.402 395.527C679.11 395.527 678.04 395.846 677.191 396.486C676.343 397.113 675.709 397.993 675.291 399.125C674.873 400.244 674.664 401.542 674.664 403.018C674.664 404.469 674.867 405.767 675.272 406.911C675.691 408.043 676.33 408.935 677.191 409.587C678.052 410.226 679.153 410.546 680.494 410.546ZM702.511 413.554C700.555 413.554 698.845 413.123 697.381 412.262C695.93 411.389 694.798 410.177 693.986 408.627C693.174 407.065 692.768 405.244 692.768 403.165C692.768 400.988 693.168 399.106 693.968 397.519C694.767 395.92 695.88 394.69 697.307 393.829C698.746 392.956 700.432 392.519 702.363 392.519C704.368 392.519 706.072 392.98 707.474 393.903C708.889 394.826 709.946 396.142 710.648 397.852C711.361 399.561 711.668 401.597 711.57 403.959H708.249V402.778C708.212 400.33 707.714 398.503 706.754 397.298C705.795 396.08 704.368 395.471 702.474 395.471C700.444 395.471 698.9 396.123 697.842 397.427C696.784 398.731 696.256 400.601 696.256 403.036C696.256 405.386 696.784 407.206 697.842 408.498C698.9 409.789 700.407 410.435 702.363 410.435C703.679 410.435 704.823 410.134 705.795 409.531C706.767 408.928 707.529 408.061 708.083 406.93L711.238 408.018C710.463 409.777 709.294 411.143 707.732 412.114C706.182 413.074 704.442 413.554 702.511 413.554ZM695.148 403.959V401.32H709.873V403.959H695.148ZM715.678 413V393.073H718.612V397.888L718.132 397.261C718.366 396.646 718.667 396.08 719.036 395.564C719.418 395.047 719.842 394.623 720.309 394.29C720.826 393.872 721.41 393.552 722.062 393.331C722.714 393.11 723.378 392.98 724.055 392.943C724.731 392.894 725.365 392.937 725.955 393.073V396.154C725.267 395.97 724.51 395.92 723.686 396.006C722.862 396.093 722.099 396.394 721.398 396.911C720.758 397.366 720.26 397.919 719.903 398.571C719.559 399.223 719.319 399.93 719.184 400.693C719.049 401.443 718.981 402.212 718.981 402.999V413H715.678ZM744.36 413.535C741.986 413.535 740.037 413.018 738.511 411.985C736.998 410.94 736.069 409.482 735.725 407.612L739.083 407.077C739.354 408.16 739.975 409.021 740.947 409.66C741.919 410.288 743.124 410.601 744.563 410.601C745.929 410.601 746.999 410.318 747.774 409.753C748.549 409.187 748.936 408.418 748.936 407.446C748.936 406.88 748.807 406.425 748.549 406.081C748.29 405.724 747.755 405.392 746.943 405.084C746.144 404.777 744.932 404.408 743.309 403.977C741.55 403.51 740.166 403.024 739.157 402.52C738.148 402.015 737.429 401.431 736.998 400.767C736.568 400.103 736.352 399.297 736.352 398.35C736.352 397.181 736.672 396.16 737.312 395.287C737.952 394.401 738.843 393.718 739.987 393.239C741.144 392.759 742.484 392.519 744.01 392.519C745.523 392.519 746.876 392.759 748.069 393.239C749.262 393.718 750.222 394.401 750.947 395.287C751.685 396.16 752.122 397.181 752.257 398.35L748.899 398.959C748.739 397.888 748.223 397.046 747.349 396.431C746.488 395.816 745.375 395.49 744.01 395.453C742.718 395.404 741.666 395.631 740.855 396.136C740.055 396.64 739.655 397.323 739.655 398.184C739.655 398.663 739.803 399.075 740.098 399.42C740.406 399.764 740.965 400.09 741.777 400.398C742.601 400.705 743.794 401.056 745.357 401.45C747.116 401.892 748.499 402.378 749.508 402.907C750.529 403.424 751.255 404.039 751.685 404.752C752.116 405.453 752.331 406.321 752.331 407.354C752.331 409.273 751.624 410.786 750.209 411.893C748.795 412.988 746.845 413.535 744.36 413.535ZM765.552 413.554C763.683 413.554 762.108 413.092 760.829 412.17C759.55 411.235 758.578 409.974 757.914 408.387C757.262 406.788 756.936 404.998 756.936 403.018C756.936 401.013 757.262 399.217 757.914 397.63C758.578 396.043 759.55 394.795 760.829 393.885C762.12 392.974 763.701 392.519 765.571 392.519C767.416 392.519 769.003 392.98 770.331 393.903C771.672 394.813 772.699 396.062 773.413 397.649C774.126 399.235 774.483 401.025 774.483 403.018C774.483 405.011 774.126 406.8 773.413 408.387C772.699 409.974 771.672 411.235 770.331 412.17C769.003 413.092 767.41 413.554 765.552 413.554ZM756.382 421.857V393.073H759.316V407.741H759.685V421.857H756.382ZM765.146 410.546C766.463 410.546 767.551 410.214 768.412 409.55C769.273 408.885 769.919 407.987 770.35 406.856C770.78 405.712 770.995 404.432 770.995 403.018C770.995 401.616 770.78 400.349 770.35 399.217C769.931 398.085 769.28 397.187 768.394 396.523C767.521 395.859 766.407 395.527 765.054 395.527C763.763 395.527 762.692 395.846 761.844 396.486C760.995 397.113 760.361 397.993 759.943 399.125C759.525 400.244 759.316 401.542 759.316 403.018C759.316 404.469 759.519 405.767 759.925 406.911C760.343 408.043 760.983 408.935 761.844 409.587C762.705 410.226 763.806 410.546 765.146 410.546ZM778.897 413V385.877H782.181V413H778.897ZM788.086 389.548V386.153H791.371V389.548H788.086ZM788.086 413V393.073H791.371V413H788.086ZM808.033 413C806.852 413.234 805.683 413.326 804.527 413.277C803.383 413.24 802.362 413.012 801.464 412.594C800.566 412.164 799.884 411.499 799.416 410.601C799.023 409.814 798.807 409.021 798.77 408.221C798.746 407.409 798.733 406.493 798.733 405.472V387.537H802.018V405.324C802.018 406.136 802.024 406.831 802.036 407.409C802.061 407.987 802.19 408.486 802.424 408.904C802.867 409.691 803.568 410.152 804.527 410.288C805.499 410.423 806.667 410.386 808.033 410.177V413ZM794.693 395.785V393.073H808.033V395.785H794.693Z" fill="#353534"/>
<rect x="505.5" y="492" width="191" height="59" rx="7.3805" stroke="#372092" stroke-width="1.84512"/>
<path d="M540.159 533.12C538.654 533.12 537.325 532.8 536.174 532.16C535.023 531.511 534.122 530.61 533.473 529.459C532.833 528.308 532.513 526.979 532.513 525.473V518.624C532.513 517.119 532.833 515.79 533.473 514.639C534.122 513.487 535.023 512.592 536.174 511.952C537.325 511.303 538.654 510.978 540.159 510.978C541.665 510.978 542.989 511.303 544.13 511.952C545.281 512.592 546.182 513.487 546.831 514.639C547.481 515.79 547.806 517.119 547.806 518.624V525.473C547.806 526.979 547.481 528.308 546.831 529.459C546.182 530.61 545.281 531.511 544.13 532.16C542.989 532.8 541.665 533.12 540.159 533.12ZM540.159 529.739C540.907 529.739 541.586 529.562 542.196 529.208C542.807 528.844 543.289 528.362 543.643 527.761C543.997 527.151 544.174 526.472 544.174 525.724V518.359C544.174 517.601 543.997 516.922 543.643 516.322C543.289 515.711 542.807 515.229 542.196 514.875C541.586 514.511 540.907 514.329 540.159 514.329C539.412 514.329 538.733 514.511 538.122 514.875C537.512 515.229 537.03 515.711 536.676 516.322C536.322 516.922 536.144 517.601 536.144 518.359V525.724C536.144 526.472 536.322 527.151 536.676 527.761C537.03 528.362 537.512 528.844 538.122 529.208C538.733 529.562 539.412 529.739 540.159 529.739ZM555.635 532.677V515.303L551.649 517.739V513.812L555.635 511.421H559.266V532.677H555.635Z" fill="#353534"/>
<rect x="637.5" y="496" width="52" height="24" rx="4" fill="#372092"/>
<path d="M652.5 513L663.5 502L674.5 513" fill="white"/>
<g opacity="0.5">
<rect opacity="0.4" x="689.5" y="547" width="52" height="24" rx="4" transform="rotate(-180 689.5 547)" fill="#372092"/>
<path d="M674.5 530L663.5 541L652.5 530" fill="white"/>
</g>
<g filter="url(#filter0_d_1343_4615)">
<rect x="337" y="607" width="528" height="56" rx="8" fill="#372092" shape-rendering="crispEdges"/>
<path d="M558.99 642.8C557.55 642.8 556.317 642.487 555.29 641.86C554.263 641.227 553.473 640.347 552.92 639.22C552.373 638.093 552.1 636.787 552.1 635.3C552.1 633.813 552.373 632.507 552.92 631.38C553.473 630.253 554.263 629.377 555.29 628.75C556.317 628.117 557.55 627.8 558.99 627.8C560.65 627.8 562.033 628.217 563.14 629.05C564.247 629.877 565.023 630.993 565.47 632.4L563.04 633.07C562.76 632.13 562.283 631.397 561.61 630.87C560.937 630.337 560.063 630.07 558.99 630.07C558.023 630.07 557.217 630.287 556.57 630.72C555.93 631.153 555.447 631.763 555.12 632.55C554.8 633.33 554.637 634.247 554.63 635.3C554.63 636.353 554.79 637.273 555.11 638.06C555.437 638.84 555.923 639.447 556.57 639.88C557.217 640.313 558.023 640.53 558.99 640.53C560.063 640.53 560.937 640.263 561.61 639.73C562.283 639.197 562.76 638.463 563.04 637.53L565.47 638.2C565.023 639.607 564.247 640.727 563.14 641.56C562.033 642.387 560.65 642.8 558.99 642.8ZM575.136 642.5V637.3C575.136 636.96 575.112 636.583 575.066 636.17C575.019 635.757 574.909 635.36 574.736 634.98C574.569 634.593 574.316 634.277 573.976 634.03C573.642 633.783 573.189 633.66 572.616 633.66C572.309 633.66 572.006 633.71 571.706 633.81C571.406 633.91 571.132 634.083 570.886 634.33C570.646 634.57 570.452 634.903 570.306 635.33C570.159 635.75 570.086 636.29 570.086 636.95L568.656 636.34C568.656 635.42 568.832 634.587 569.186 633.84C569.546 633.093 570.072 632.5 570.766 632.06C571.459 631.613 572.312 631.39 573.326 631.39C574.126 631.39 574.786 631.523 575.306 631.79C575.826 632.057 576.239 632.397 576.546 632.81C576.852 633.223 577.079 633.663 577.226 634.13C577.372 634.597 577.466 635.04 577.506 635.46C577.552 635.873 577.576 636.21 577.576 636.47V642.5H575.136ZM567.646 642.5V628.1H569.796V635.68H570.086V642.5H567.646ZM584.235 642.81C583.435 642.81 582.775 642.677 582.255 642.41C581.735 642.143 581.322 641.803 581.015 641.39C580.708 640.977 580.482 640.537 580.335 640.07C580.188 639.603 580.092 639.163 580.045 638.75C580.005 638.33 579.985 637.99 579.985 637.73V631.7H582.425V636.9C582.425 637.233 582.448 637.61 582.495 638.03C582.542 638.443 582.648 638.843 582.815 639.23C582.988 639.61 583.242 639.923 583.575 640.17C583.915 640.417 584.372 640.54 584.945 640.54C585.252 640.54 585.555 640.49 585.855 640.39C586.155 640.29 586.425 640.12 586.665 639.88C586.912 639.633 587.108 639.297 587.255 638.87C587.402 638.443 587.475 637.903 587.475 637.25L588.905 637.86C588.905 638.78 588.725 639.613 588.365 640.36C588.012 641.107 587.488 641.703 586.795 642.15C586.102 642.59 585.248 642.81 584.235 642.81ZM587.765 642.5V639.15H587.475V631.7H589.895V642.5H587.765ZM600.175 642.5V637.3C600.175 636.96 600.151 636.583 600.105 636.17C600.058 635.757 599.948 635.36 599.775 634.98C599.608 634.593 599.355 634.277 599.015 634.03C598.681 633.783 598.228 633.66 597.655 633.66C597.348 633.66 597.045 633.71 596.745 633.81C596.445 633.91 596.171 634.083 595.925 634.33C595.685 634.57 595.491 634.903 595.345 635.33C595.198 635.75 595.125 636.29 595.125 636.95L593.695 636.34C593.695 635.42 593.871 634.587 594.225 633.84C594.585 633.093 595.111 632.5 595.805 632.06C596.498 631.613 597.351 631.39 598.365 631.39C599.165 631.39 599.825 631.523 600.345 631.79C600.865 632.057 601.278 632.397 601.585 632.81C601.891 633.223 602.118 633.663 602.265 634.13C602.411 634.597 602.505 635.04 602.545 635.46C602.591 635.873 602.615 636.21 602.615 636.47V642.5H600.175ZM592.685 642.5V631.7H594.835V635.05H595.125V642.5H592.685ZM605.204 642.5L605.224 628.1H607.664V636.9L611.614 631.7H614.624L610.434 637.1L614.984 642.5H611.794L607.664 637.3V642.5H605.204ZM620.93 642.5V631.53C620.93 631.257 620.94 630.957 620.96 630.63C620.98 630.297 621.037 629.967 621.13 629.64C621.223 629.313 621.393 629.017 621.64 628.75C621.947 628.41 622.277 628.177 622.63 628.05C622.99 627.917 623.343 627.843 623.69 627.83C624.037 627.81 624.34 627.8 624.6 627.8H625.95V629.76H624.7C624.24 629.76 623.897 629.877 623.67 630.11C623.45 630.337 623.34 630.637 623.34 631.01V642.5H620.93ZM619.19 633.59V631.7H625.95V633.59H619.19ZM628.05 630.06V627.85H630.46V630.06H628.05ZM628.05 642.5V631.7H630.46V642.5H628.05ZM633.666 642.5V627.8H636.076V642.5H633.666ZM643.982 642.8C642.889 642.8 641.929 642.563 641.102 642.09C640.275 641.617 639.629 640.96 639.162 640.12C638.702 639.28 638.472 638.313 638.472 637.22C638.472 636.04 638.699 635.017 639.152 634.15C639.605 633.277 640.235 632.6 641.042 632.12C641.849 631.64 642.782 631.4 643.842 631.4C644.962 631.4 645.912 631.663 646.692 632.19C647.479 632.71 648.062 633.447 648.442 634.4C648.822 635.353 648.965 636.477 648.872 637.77H646.482V636.89C646.475 635.717 646.269 634.86 645.862 634.32C645.455 633.78 644.815 633.51 643.942 633.51C642.955 633.51 642.222 633.817 641.742 634.43C641.262 635.037 641.022 635.927 641.022 637.1C641.022 638.193 641.262 639.04 641.742 639.64C642.222 640.24 642.922 640.54 643.842 640.54C644.435 640.54 644.945 640.41 645.372 640.15C645.805 639.883 646.139 639.5 646.372 639L648.752 639.72C648.339 640.693 647.699 641.45 646.832 641.99C645.972 642.53 645.022 642.8 643.982 642.8ZM640.262 637.77V635.95H647.692V637.77H640.262Z" fill="white"/>
</g>
<rect x="167" y="244" width="868" height="536" rx="25" stroke="#372092" stroke-linecap="round"/>
<path d="M296.768 126.48C295.083 126.48 293.563 126.187 292.208 125.6C290.864 125.013 289.755 124.176 288.88 123.088C288.016 121.989 287.467 120.688 287.232 119.184L291.232 118.576C291.573 119.941 292.272 120.997 293.328 121.744C294.395 122.491 295.621 122.864 297.008 122.864C297.829 122.864 298.603 122.736 299.328 122.48C300.053 122.224 300.64 121.851 301.088 121.36C301.547 120.869 301.776 120.267 301.776 119.552C301.776 119.232 301.723 118.939 301.616 118.672C301.509 118.395 301.349 118.149 301.136 117.936C300.933 117.723 300.667 117.531 300.336 117.36C300.016 117.179 299.643 117.024 299.216 116.896L293.264 115.136C292.752 114.987 292.197 114.789 291.6 114.544C291.013 114.288 290.453 113.941 289.92 113.504C289.397 113.056 288.965 112.491 288.624 111.808C288.293 111.115 288.128 110.261 288.128 109.248C288.128 107.765 288.501 106.523 289.248 105.52C290.005 104.507 291.019 103.749 292.288 103.248C293.568 102.747 294.987 102.501 296.544 102.512C298.123 102.523 299.531 102.795 300.768 103.328C302.005 103.851 303.04 104.613 303.872 105.616C304.704 106.619 305.291 107.829 305.632 109.248L301.488 109.968C301.317 109.157 300.987 108.469 300.496 107.904C300.016 107.328 299.424 106.891 298.72 106.592C298.027 106.293 297.285 106.133 296.496 106.112C295.728 106.101 295.013 106.219 294.352 106.464C293.701 106.699 293.173 107.04 292.768 107.488C292.373 107.936 292.176 108.459 292.176 109.056C292.176 109.621 292.347 110.085 292.688 110.448C293.029 110.8 293.451 111.083 293.952 111.296C294.464 111.499 294.981 111.669 295.504 111.808L299.632 112.96C300.197 113.109 300.832 113.312 301.536 113.568C302.24 113.824 302.917 114.181 303.568 114.64C304.219 115.099 304.752 115.701 305.168 116.448C305.595 117.195 305.808 118.144 305.808 119.296C305.808 120.491 305.557 121.541 305.056 122.448C304.565 123.344 303.899 124.091 303.056 124.688C302.213 125.285 301.248 125.733 300.16 126.032C299.083 126.331 297.952 126.48 296.768 126.48ZM317.127 126.48C315.378 126.48 313.842 126.101 312.519 125.344C311.197 124.587 310.162 123.536 309.415 122.192C308.679 120.848 308.311 119.301 308.311 117.552C308.311 115.664 308.674 114.027 309.399 112.64C310.125 111.243 311.133 110.16 312.423 109.392C313.714 108.624 315.207 108.24 316.903 108.24C318.695 108.24 320.215 108.661 321.463 109.504C322.722 110.336 323.655 111.515 324.263 113.04C324.871 114.565 325.101 116.363 324.951 118.432H321.127V117.024C321.117 115.147 320.786 113.776 320.135 112.912C319.485 112.048 318.461 111.616 317.063 111.616C315.485 111.616 314.311 112.107 313.543 113.088C312.775 114.059 312.391 115.483 312.391 117.36C312.391 119.109 312.775 120.464 313.543 121.424C314.311 122.384 315.431 122.864 316.903 122.864C317.853 122.864 318.669 122.656 319.351 122.24C320.045 121.813 320.578 121.2 320.951 120.4L324.759 121.552C324.098 123.109 323.074 124.32 321.687 125.184C320.311 126.048 318.791 126.48 317.127 126.48ZM311.175 118.432V115.52H323.063V118.432H311.175ZM328.841 126V102.48H332.697V126H328.841ZM345.346 126.48C343.597 126.48 342.061 126.101 340.738 125.344C339.415 124.587 338.381 123.536 337.634 122.192C336.898 120.848 336.53 119.301 336.53 117.552C336.53 115.664 336.893 114.027 337.618 112.64C338.343 111.243 339.351 110.16 340.642 109.392C341.933 108.624 343.426 108.24 345.122 108.24C346.914 108.24 348.434 108.661 349.682 109.504C350.941 110.336 351.874 111.515 352.482 113.04C353.09 114.565 353.319 116.363 353.17 118.432H349.346V117.024C349.335 115.147 349.005 113.776 348.354 112.912C347.703 112.048 346.679 111.616 345.282 111.616C343.703 111.616 342.53 112.107 341.762 113.088C340.994 114.059 340.61 115.483 340.61 117.36C340.61 119.109 340.994 120.464 341.762 121.424C342.53 122.384 343.65 122.864 345.122 122.864C346.071 122.864 346.887 122.656 347.57 122.24C348.263 121.813 348.797 121.2 349.17 120.4L352.978 121.552C352.317 123.109 351.293 124.32 349.906 125.184C348.53 126.048 347.01 126.48 345.346 126.48ZM339.394 118.432V115.52H351.282V118.432H339.394ZM364.244 126.48C362.463 126.48 360.943 126.085 359.684 125.296C358.425 124.496 357.46 123.408 356.788 122.032C356.127 120.656 355.791 119.099 355.78 117.36C355.791 115.589 356.137 114.021 356.82 112.656C357.513 111.28 358.495 110.203 359.764 109.424C361.033 108.635 362.543 108.24 364.292 108.24C366.255 108.24 367.913 108.736 369.268 109.728C370.633 110.709 371.524 112.053 371.94 113.76L368.1 114.8C367.801 113.872 367.305 113.152 366.612 112.64C365.919 112.117 365.129 111.856 364.244 111.856C363.241 111.856 362.415 112.096 361.764 112.576C361.113 113.045 360.633 113.696 360.324 114.528C360.015 115.36 359.86 116.304 359.86 117.36C359.86 119.003 360.228 120.331 360.964 121.344C361.7 122.357 362.793 122.864 364.244 122.864C365.268 122.864 366.073 122.629 366.66 122.16C367.257 121.691 367.705 121.013 368.004 120.128L371.94 121.008C371.407 122.768 370.473 124.123 369.14 125.072C367.807 126.011 366.175 126.48 364.244 126.48ZM385.274 126C384.133 126.213 383.013 126.304 381.914 126.272C380.826 126.251 379.85 126.053 378.986 125.68C378.122 125.296 377.466 124.693 377.018 123.872C376.624 123.125 376.416 122.363 376.394 121.584C376.373 120.805 376.362 119.925 376.362 118.944V103.92H380.202V118.72C380.202 119.413 380.208 120.021 380.218 120.544C380.24 121.067 380.352 121.493 380.554 121.824C380.938 122.464 381.552 122.821 382.394 122.896C383.237 122.971 384.197 122.928 385.274 122.768V126ZM373.226 111.744V108.72H385.274V111.744H373.226ZM407.348 126V117.68C407.348 117.136 407.311 116.533 407.236 115.872C407.162 115.211 406.986 114.576 406.708 113.968C406.442 113.349 406.036 112.843 405.492 112.448C404.959 112.053 404.234 111.856 403.316 111.856C402.826 111.856 402.34 111.936 401.86 112.096C401.38 112.256 400.943 112.533 400.548 112.928C400.164 113.312 399.855 113.845 399.62 114.528C399.386 115.2 399.268 116.064 399.268 117.12L396.98 116.144C396.98 114.672 397.263 113.339 397.828 112.144C398.404 110.949 399.247 110 400.356 109.296C401.466 108.581 402.831 108.224 404.452 108.224C405.732 108.224 406.788 108.437 407.62 108.864C408.452 109.291 409.114 109.835 409.604 110.496C410.095 111.157 410.458 111.861 410.692 112.608C410.927 113.355 411.076 114.064 411.14 114.736C411.215 115.397 411.252 115.936 411.252 116.352V126H407.348ZM395.364 126V102.96H398.804V115.088H399.268V126H395.364ZM423.06 126.48C421.332 126.48 419.822 126.091 418.532 125.312C417.241 124.533 416.238 123.461 415.524 122.096C414.82 120.72 414.468 119.141 414.468 117.36C414.468 115.547 414.83 113.957 415.556 112.592C416.281 111.227 417.289 110.16 418.58 109.392C419.87 108.624 421.364 108.24 423.06 108.24C424.798 108.24 426.313 108.629 427.604 109.408C428.894 110.187 429.897 111.264 430.612 112.64C431.326 114.005 431.684 115.579 431.684 117.36C431.684 119.152 431.321 120.736 430.596 122.112C429.881 123.477 428.878 124.549 427.588 125.328C426.297 126.096 424.788 126.48 423.06 126.48ZM423.06 122.864C424.596 122.864 425.737 122.352 426.484 121.328C427.23 120.304 427.604 118.981 427.604 117.36C427.604 115.685 427.225 114.352 426.468 113.36C425.71 112.357 424.574 111.856 423.06 111.856C422.025 111.856 421.172 112.091 420.5 112.56C419.838 113.019 419.348 113.664 419.028 114.496C418.708 115.317 418.548 116.272 418.548 117.36C418.548 119.035 418.926 120.373 419.684 121.376C420.452 122.368 421.577 122.864 423.06 122.864ZM438.264 126L432.984 108.688L436.76 108.72L440.136 119.808L443.56 108.72H446.808L450.216 119.808L453.608 108.72H457.384L452.104 126H449.096L445.176 114.112L441.272 126H438.264ZM468.95 133.68L472.278 124.544L472.342 127.232L464.806 108.72H468.822L474.166 122.416H473.142L478.342 108.72H482.198L472.566 133.68H468.95ZM491.591 126.48C489.863 126.48 488.353 126.091 487.063 125.312C485.772 124.533 484.769 123.461 484.055 122.096C483.351 120.72 482.999 119.141 482.999 117.36C482.999 115.547 483.361 113.957 484.087 112.592C484.812 111.227 485.82 110.16 487.111 109.392C488.401 108.624 489.895 108.24 491.591 108.24C493.329 108.24 494.844 108.629 496.135 109.408C497.425 110.187 498.428 111.264 499.143 112.64C499.857 114.005 500.215 115.579 500.215 117.36C500.215 119.152 499.852 120.736 499.127 122.112C498.412 123.477 497.409 124.549 496.119 125.328C494.828 126.096 493.319 126.48 491.591 126.48ZM491.591 122.864C493.127 122.864 494.268 122.352 495.015 121.328C495.761 120.304 496.135 118.981 496.135 117.36C496.135 115.685 495.756 114.352 494.999 113.36C494.241 112.357 493.105 111.856 491.591 111.856C490.556 111.856 489.703 112.091 489.031 112.56C488.369 113.019 487.879 113.664 487.559 114.496C487.239 115.317 487.079 116.272 487.079 117.36C487.079 119.035 487.457 120.373 488.215 121.376C488.983 122.368 490.108 122.864 491.591 122.864ZM510.22 126.496C508.94 126.496 507.884 126.283 507.052 125.856C506.22 125.429 505.559 124.885 505.068 124.224C504.577 123.563 504.215 122.859 503.98 122.112C503.745 121.365 503.591 120.661 503.516 120C503.452 119.328 503.42 118.784 503.42 118.368V108.72H507.324V117.04C507.324 117.573 507.361 118.176 507.436 118.848C507.511 119.509 507.681 120.149 507.948 120.768C508.225 121.376 508.631 121.877 509.164 122.272C509.708 122.667 510.439 122.864 511.356 122.864C511.847 122.864 512.332 122.784 512.812 122.624C513.292 122.464 513.724 122.192 514.108 121.808C514.503 121.413 514.817 120.875 515.052 120.192C515.287 119.509 515.404 118.645 515.404 117.6L517.692 118.576C517.692 120.048 517.404 121.381 516.828 122.576C516.263 123.771 515.425 124.725 514.316 125.44C513.207 126.144 511.841 126.496 510.22 126.496ZM515.868 126V120.64H515.404V108.72H519.276V126H515.868ZM533.858 126L528.578 108.688L532.354 108.72L535.73 119.808L539.154 108.72H542.402L545.81 119.808L549.202 108.72H552.978L547.698 126H544.69L540.77 114.112L536.866 126H533.858ZM559.728 126.48C558.48 126.48 557.424 126.245 556.56 125.776C555.696 125.296 555.04 124.661 554.592 123.872C554.155 123.083 553.936 122.213 553.936 121.264C553.936 120.432 554.075 119.685 554.352 119.024C554.63 118.352 555.056 117.776 555.632 117.296C556.208 116.805 556.955 116.405 557.872 116.096C558.566 115.872 559.376 115.669 560.304 115.488C561.243 115.307 562.256 115.141 563.344 114.992C564.443 114.832 565.59 114.661 566.784 114.48L565.408 115.264C565.419 114.069 565.152 113.189 564.608 112.624C564.064 112.059 563.147 111.776 561.856 111.776C561.078 111.776 560.326 111.957 559.6 112.32C558.875 112.683 558.368 113.307 558.08 114.192L554.56 113.088C554.987 111.627 555.798 110.453 556.992 109.568C558.198 108.683 559.819 108.24 561.856 108.24C563.392 108.24 564.742 108.491 565.904 108.992C567.078 109.493 567.947 110.315 568.512 111.456C568.822 112.064 569.008 112.688 569.072 113.328C569.136 113.957 569.168 114.645 569.168 115.392V126H565.792V122.256L566.352 122.864C565.574 124.112 564.662 125.029 563.616 125.616C562.582 126.192 561.286 126.48 559.728 126.48ZM560.496 123.408C561.371 123.408 562.118 123.253 562.736 122.944C563.355 122.635 563.846 122.256 564.208 121.808C564.582 121.36 564.832 120.939 564.96 120.544C565.163 120.053 565.275 119.493 565.296 118.864C565.328 118.224 565.344 117.707 565.344 117.312L566.528 117.664C565.366 117.845 564.368 118.005 563.536 118.144C562.704 118.283 561.99 118.416 561.392 118.544C560.795 118.661 560.267 118.795 559.808 118.944C559.36 119.104 558.982 119.291 558.672 119.504C558.363 119.717 558.123 119.963 557.952 120.24C557.792 120.517 557.712 120.843 557.712 121.216C557.712 121.643 557.819 122.021 558.032 122.352C558.246 122.672 558.555 122.928 558.96 123.12C559.376 123.312 559.888 123.408 560.496 123.408ZM585.286 126V117.68C585.286 117.136 585.248 116.533 585.174 115.872C585.099 115.211 584.923 114.576 584.646 113.968C584.379 113.349 583.974 112.843 583.43 112.448C582.896 112.053 582.171 111.856 581.254 111.856C580.763 111.856 580.278 111.936 579.798 112.096C579.318 112.256 578.88 112.533 578.486 112.928C578.102 113.312 577.792 113.845 577.558 114.528C577.323 115.2 577.206 116.064 577.206 117.12L574.918 116.144C574.918 114.672 575.2 113.339 575.766 112.144C576.342 110.949 577.184 110 578.294 109.296C579.403 108.581 580.768 108.224 582.39 108.224C583.67 108.224 584.726 108.437 585.558 108.864C586.39 109.291 587.051 109.835 587.542 110.496C588.032 111.157 588.395 111.861 588.63 112.608C588.864 113.355 589.014 114.064 589.078 114.736C589.152 115.397 589.19 115.936 589.19 116.352V126H585.286ZM573.302 126V108.72H576.742V114.08H577.206V126H573.302ZM603.493 126C602.352 126.213 601.232 126.304 600.133 126.272C599.045 126.251 598.069 126.053 597.205 125.68C596.341 125.296 595.685 124.693 595.237 123.872C594.842 123.125 594.634 122.363 594.613 121.584C594.592 120.805 594.581 119.925 594.581 118.944V103.92H598.421V118.72C598.421 119.413 598.426 120.021 598.437 120.544C598.458 121.067 598.57 121.493 598.773 121.824C599.157 122.464 599.77 122.821 600.613 122.896C601.456 122.971 602.416 122.928 603.493 122.768V126ZM591.445 111.744V108.72H603.493V111.744H591.445ZM615.887 133.68L619.215 124.544L619.279 127.232L611.743 108.72H615.759L621.103 122.416H620.079L625.279 108.72H629.135L619.503 133.68H615.887ZM638.528 126.48C636.8 126.48 635.291 126.091 634 125.312C632.71 124.533 631.707 123.461 630.992 122.096C630.288 120.72 629.936 119.141 629.936 117.36C629.936 115.547 630.299 113.957 631.024 112.592C631.75 111.227 632.758 110.16 634.048 109.392C635.339 108.624 636.832 108.24 638.528 108.24C640.267 108.24 641.782 108.629 643.072 109.408C644.363 110.187 645.366 111.264 646.08 112.64C646.795 114.005 647.152 115.579 647.152 117.36C647.152 119.152 646.79 120.736 646.064 122.112C645.35 123.477 644.347 124.549 643.056 125.328C641.766 126.096 640.256 126.48 638.528 126.48ZM638.528 122.864C640.064 122.864 641.206 122.352 641.952 121.328C642.699 120.304 643.072 118.981 643.072 117.36C643.072 115.685 642.694 114.352 641.936 113.36C641.179 112.357 640.043 111.856 638.528 111.856C637.494 111.856 636.64 112.091 635.968 112.56C635.307 113.019 634.816 113.664 634.496 114.496C634.176 115.317 634.016 116.272 634.016 117.36C634.016 119.035 634.395 120.373 635.152 121.376C635.92 122.368 637.046 122.864 638.528 122.864ZM657.158 126.496C655.878 126.496 654.822 126.283 653.99 125.856C653.158 125.429 652.496 124.885 652.006 124.224C651.515 123.563 651.152 122.859 650.918 122.112C650.683 121.365 650.528 120.661 650.454 120C650.39 119.328 650.358 118.784 650.358 118.368V108.72H654.262V117.04C654.262 117.573 654.299 118.176 654.374 118.848C654.448 119.509 654.619 120.149 654.886 120.768C655.163 121.376 655.568 121.877 656.102 122.272C656.646 122.667 657.376 122.864 658.294 122.864C658.784 122.864 659.27 122.784 659.75 122.624C660.23 122.464 660.662 122.192 661.046 121.808C661.44 121.413 661.755 120.875 661.99 120.192C662.224 119.509 662.342 118.645 662.342 117.6L664.63 118.576C664.63 120.048 664.342 121.381 663.766 122.576C663.2 123.771 662.363 124.725 661.254 125.44C660.144 126.144 658.779 126.496 657.158 126.496ZM662.806 126V120.64H662.342V108.72H666.214V126H662.806ZM670.709 126V108.72H674.117V112.928L673.701 112.384C673.914 111.808 674.197 111.285 674.549 110.816C674.911 110.336 675.343 109.941 675.845 109.632C676.271 109.344 676.741 109.12 677.253 108.96C677.775 108.789 678.309 108.688 678.853 108.656C679.397 108.613 679.925 108.635 680.437 108.72V112.32C679.925 112.171 679.333 112.123 678.661 112.176C677.999 112.229 677.402 112.416 676.869 112.736C676.335 113.024 675.898 113.392 675.557 113.84C675.226 114.288 674.981 114.8 674.821 115.376C674.661 115.941 674.581 116.555 674.581 117.216V126H670.709ZM691.4 126V108.448C691.4 108.011 691.416 107.531 691.448 107.008C691.48 106.475 691.571 105.947 691.72 105.424C691.87 104.901 692.142 104.427 692.536 104C693.027 103.456 693.555 103.083 694.12 102.88C694.696 102.667 695.262 102.549 695.816 102.528C696.371 102.496 696.856 102.48 697.272 102.48H699.432V105.616H697.432C696.696 105.616 696.147 105.803 695.784 106.176C695.432 106.539 695.256 107.019 695.256 107.616V126H691.4ZM688.616 111.744V108.72H699.432V111.744H688.616ZM702.792 106.096V102.56H706.648V106.096H702.792ZM702.792 126V108.72H706.648V126H702.792ZM711.779 126V102.48H715.635V126H711.779ZM728.284 126.48C726.534 126.48 724.998 126.101 723.676 125.344C722.353 124.587 721.318 123.536 720.572 122.192C719.836 120.848 719.468 119.301 719.468 117.552C719.468 115.664 719.83 114.027 720.556 112.64C721.281 111.243 722.289 110.16 723.58 109.392C724.87 108.624 726.364 108.24 728.06 108.24C729.852 108.24 731.372 108.661 732.62 109.504C733.878 110.336 734.812 111.515 735.42 113.04C736.028 114.565 736.257 116.363 736.108 118.432H732.284V117.024C732.273 115.147 731.942 113.776 731.292 112.912C730.641 112.048 729.617 111.616 728.22 111.616C726.641 111.616 725.468 112.107 724.7 113.088C723.932 114.059 723.548 115.483 723.548 117.36C723.548 119.109 723.932 120.464 724.7 121.424C725.468 122.384 726.588 122.864 728.06 122.864C729.009 122.864 729.825 122.656 730.508 122.24C731.201 121.813 731.734 121.2 732.108 120.4L735.916 121.552C735.254 123.109 734.23 124.32 732.844 125.184C731.468 126.048 729.948 126.48 728.284 126.48ZM722.332 118.432V115.52H734.22V118.432H722.332ZM746.35 126.48C744.216 126.48 742.483 126 741.15 125.04C739.816 124.08 739.006 122.731 738.718 120.992L742.654 120.384C742.856 121.237 743.304 121.909 743.998 122.4C744.691 122.891 745.566 123.136 746.622 123.136C747.55 123.136 748.264 122.955 748.766 122.592C749.278 122.219 749.534 121.712 749.534 121.072C749.534 120.677 749.438 120.363 749.246 120.128C749.064 119.883 748.659 119.648 748.03 119.424C747.4 119.2 746.435 118.917 745.134 118.576C743.683 118.192 742.531 117.781 741.678 117.344C740.824 116.896 740.211 116.368 739.838 115.76C739.464 115.152 739.278 114.416 739.278 113.552C739.278 112.475 739.56 111.536 740.126 110.736C740.691 109.936 741.48 109.323 742.494 108.896C743.507 108.459 744.702 108.24 746.078 108.24C747.422 108.24 748.611 108.448 749.646 108.864C750.691 109.28 751.534 109.872 752.174 110.64C752.814 111.408 753.208 112.309 753.358 113.344L749.422 114.048C749.326 113.312 748.99 112.731 748.414 112.304C747.848 111.877 747.091 111.637 746.142 111.584C745.235 111.531 744.504 111.669 743.95 112C743.395 112.32 743.118 112.773 743.118 113.36C743.118 113.691 743.23 113.973 743.454 114.208C743.678 114.443 744.126 114.677 744.798 114.912C745.48 115.147 746.494 115.435 747.838 115.776C749.214 116.128 750.312 116.533 751.134 116.992C751.966 117.44 752.563 117.979 752.926 118.608C753.299 119.237 753.486 120 753.486 120.896C753.486 122.635 752.851 124 751.582 124.992C750.323 125.984 748.579 126.48 746.35 126.48ZM773.524 126C772.383 126.213 771.263 126.304 770.164 126.272C769.076 126.251 768.1 126.053 767.236 125.68C766.372 125.296 765.716 124.693 765.268 123.872C764.874 123.125 764.666 122.363 764.644 121.584C764.623 120.805 764.612 119.925 764.612 118.944V103.92H768.452V118.72C768.452 119.413 768.458 120.021 768.468 120.544C768.49 121.067 768.602 121.493 768.804 121.824C769.188 122.464 769.802 122.821 770.644 122.896C771.487 122.971 772.447 122.928 773.524 122.768V126ZM761.476 111.744V108.72H773.524V111.744H761.476ZM783.997 126.48C782.269 126.48 780.76 126.091 779.469 125.312C778.178 124.533 777.176 123.461 776.461 122.096C775.757 120.72 775.405 119.141 775.405 117.36C775.405 115.547 775.768 113.957 776.493 112.592C777.218 111.227 778.226 110.16 779.517 109.392C780.808 108.624 782.301 108.24 783.997 108.24C785.736 108.24 787.25 108.629 788.541 109.408C789.832 110.187 790.834 111.264 791.549 112.64C792.264 114.005 792.621 115.579 792.621 117.36C792.621 119.152 792.258 120.736 791.533 122.112C790.818 123.477 789.816 124.549 788.525 125.328C787.234 126.096 785.725 126.48 783.997 126.48ZM783.997 122.864C785.533 122.864 786.674 122.352 787.421 121.328C788.168 120.304 788.541 118.981 788.541 117.36C788.541 115.685 788.162 114.352 787.405 113.36C786.648 112.357 785.512 111.856 783.997 111.856C782.962 111.856 782.109 112.091 781.437 112.56C780.776 113.019 780.285 113.664 779.965 114.496C779.645 115.317 779.485 116.272 779.485 117.36C779.485 119.035 779.864 120.373 780.621 121.376C781.389 122.368 782.514 122.864 783.997 122.864ZM810.857 126.48C809.171 126.48 807.758 126.08 806.617 125.28C805.475 124.48 804.617 123.392 804.041 122.016C803.465 120.629 803.177 119.077 803.177 117.36C803.177 115.621 803.465 114.064 804.041 112.688C804.617 111.312 805.459 110.229 806.569 109.44C807.689 108.64 809.07 108.24 810.713 108.24C812.345 108.24 813.758 108.64 814.953 109.44C816.158 110.229 817.091 111.312 817.753 112.688C818.414 114.053 818.745 115.611 818.745 117.36C818.745 119.088 818.419 120.64 817.769 122.016C817.118 123.392 816.201 124.48 815.017 125.28C813.833 126.08 812.446 126.48 810.857 126.48ZM802.521 126V102.96H806.409V113.872H805.929V126H802.521ZM810.265 123.024C811.267 123.024 812.094 122.773 812.745 122.272C813.395 121.771 813.875 121.093 814.185 120.24C814.505 119.376 814.665 118.416 814.665 117.36C814.665 116.315 814.505 115.365 814.185 114.512C813.865 113.648 813.369 112.965 812.697 112.464C812.025 111.952 811.171 111.696 810.137 111.696C809.155 111.696 808.355 111.936 807.737 112.416C807.118 112.885 806.659 113.547 806.361 114.4C806.073 115.243 805.929 116.229 805.929 117.36C805.929 118.48 806.073 119.467 806.361 120.32C806.659 121.173 807.123 121.84 807.753 122.32C808.393 122.789 809.23 123.024 810.265 123.024ZM830.127 126.48C828.378 126.48 826.842 126.101 825.519 125.344C824.197 124.587 823.162 123.536 822.415 122.192C821.679 120.848 821.311 119.301 821.311 117.552C821.311 115.664 821.674 114.027 822.399 112.64C823.125 111.243 824.133 110.16 825.423 109.392C826.714 108.624 828.207 108.24 829.903 108.24C831.695 108.24 833.215 108.661 834.463 109.504C835.722 110.336 836.655 111.515 837.263 113.04C837.871 114.565 838.101 116.363 837.951 118.432H834.127V117.024C834.117 115.147 833.786 113.776 833.135 112.912C832.485 112.048 831.461 111.616 830.063 111.616C828.485 111.616 827.311 112.107 826.543 113.088C825.775 114.059 825.391 115.483 825.391 117.36C825.391 119.109 825.775 120.464 826.543 121.424C827.311 122.384 828.431 122.864 829.903 122.864C830.853 122.864 831.669 122.656 832.351 122.24C833.045 121.813 833.578 121.2 833.951 120.4L837.759 121.552C837.098 123.109 836.074 124.32 834.687 125.184C833.311 126.048 831.791 126.48 830.127 126.48ZM824.175 118.432V115.52H836.063V118.432H824.175ZM854.6 126.48C852.466 126.48 850.733 126 849.4 125.04C848.066 124.08 847.256 122.731 846.968 120.992L850.904 120.384C851.106 121.237 851.554 121.909 852.248 122.4C852.941 122.891 853.816 123.136 854.872 123.136C855.8 123.136 856.514 122.955 857.016 122.592C857.528 122.219 857.784 121.712 857.784 121.072C857.784 120.677 857.688 120.363 857.496 120.128C857.314 119.883 856.909 119.648 856.28 119.424C855.65 119.2 854.685 118.917 853.384 118.576C851.933 118.192 850.781 117.781 849.928 117.344C849.074 116.896 848.461 116.368 848.088 115.76C847.714 115.152 847.528 114.416 847.528 113.552C847.528 112.475 847.81 111.536 848.376 110.736C848.941 109.936 849.73 109.323 850.744 108.896C851.757 108.459 852.952 108.24 854.328 108.24C855.672 108.24 856.861 108.448 857.896 108.864C858.941 109.28 859.784 109.872 860.424 110.64C861.064 111.408 861.458 112.309 861.608 113.344L857.672 114.048C857.576 113.312 857.24 112.731 856.664 112.304C856.098 111.877 855.341 111.637 854.392 111.584C853.485 111.531 852.754 111.669 852.2 112C851.645 112.32 851.368 112.773 851.368 113.36C851.368 113.691 851.48 113.973 851.704 114.208C851.928 114.443 852.376 114.677 853.048 114.912C853.73 115.147 854.744 115.435 856.088 115.776C857.464 116.128 858.562 116.533 859.384 116.992C860.216 117.44 860.813 117.979 861.176 118.608C861.549 119.237 861.736 120 861.736 120.896C861.736 122.635 861.101 124 859.832 124.992C858.573 125.984 856.829 126.48 854.6 126.48ZM873.544 126.48C871.859 126.48 870.445 126.08 869.304 125.28C868.163 124.48 867.304 123.392 866.728 122.016C866.152 120.629 865.864 119.077 865.864 117.36C865.864 115.621 866.152 114.064 866.728 112.688C867.304 111.312 868.147 110.229 869.256 109.44C870.376 108.64 871.757 108.24 873.4 108.24C875.032 108.24 876.445 108.64 877.64 109.44C878.845 110.229 879.779 111.312 880.44 112.688C881.101 114.053 881.432 115.611 881.432 117.36C881.432 119.088 881.107 120.64 880.456 122.016C879.805 123.392 878.888 124.48 877.704 125.28C876.52 126.08 875.133 126.48 873.544 126.48ZM865.208 133.68V108.72H868.616V120.848H869.096V133.68H865.208ZM872.952 123.024C873.955 123.024 874.781 122.773 875.432 122.272C876.083 121.771 876.563 121.093 876.872 120.24C877.192 119.376 877.352 118.416 877.352 117.36C877.352 116.315 877.192 115.365 876.872 114.512C876.552 113.648 876.056 112.965 875.384 112.464C874.712 111.952 873.859 111.696 872.824 111.696C871.843 111.696 871.043 111.936 870.424 112.416C869.805 112.885 869.347 113.547 869.048 114.4C868.76 115.243 868.616 116.229 868.616 117.36C868.616 118.48 868.76 119.467 869.048 120.32C869.347 121.173 869.811 121.84 870.44 122.32C871.08 122.789 871.917 123.024 872.952 123.024ZM885.279 126V102.48H889.135V126H885.279ZM894.248 106.096V102.56H898.104V106.096H894.248ZM894.248 126V108.72H898.104V126H894.248ZM913.024 126C911.883 126.213 910.763 126.304 909.664 126.272C908.576 126.251 907.6 126.053 906.736 125.68C905.872 125.296 905.216 124.693 904.768 123.872C904.374 123.125 904.166 122.363 904.144 121.584C904.123 120.805 904.112 119.925 904.112 118.944V103.92H907.952V118.72C907.952 119.413 907.958 120.021 907.968 120.544C907.99 121.067 908.102 121.493 908.304 121.824C908.688 122.464 909.302 122.821 910.144 122.896C910.987 122.971 911.947 122.928 913.024 122.768V126ZM900.976 111.744V108.72H913.024V111.744H900.976Z" fill="#353534"/>
<defs>
<filter id="filter0_d_1343_4615" x="317" y="599" width="568" height="96" filterUnits="userSpaceOnUse" color-interpolation-filters="sRGB">
<feFlood flood-opacity="0" result="BackgroundImageFix"/>
<feColorMatrix in="SourceAlpha" type="matrix" values="0 0 0 0 0 0 0 0 0 0 0 0 0 0 0 0 0 0 127 0" result="hardAlpha"/>
<feOffset dy="12"/>
<feGaussianBlur stdDeviation="10"/>
<feComposite in2="hardAlpha" operator="out"/>
<feColorMatrix type="matrix" values="0 0 0 0 0 0 0 0 0 0 0 0 0 0 0 0 0 0 0.15 0"/>
<feBlend mode="normal" in2="BackgroundImageFix" result="effect1_dropShadow_1343_4615"/>
<feBlend mode="normal" in="SourceGraphic" in2="effect1_dropShadow_1343_4615" result="shape"/>
</filter>
</defs>
</svg>
