<svg width="32" height="32" viewBox="0 0 32 32" fill="none" xmlns="http://www.w3.org/2000/svg">
<path d="M11.9993 29.3332H9.33268C3.99935 29.3332 2.66602 27.9998 2.66602 22.6665V9.33317C2.66602 3.99984 3.99935 2.6665 9.33268 2.6665H11.3327C13.3327 2.6665 13.7727 3.25319 14.5327 4.26652L16.5327 6.93319C17.0394 7.59985 17.3327 7.99984 18.666 7.99984H22.666C27.9993 7.99984 29.3327 9.33317 29.3327 14.6665V17.3332" stroke="white" stroke-width="1.5" stroke-miterlimit="10" stroke-linecap="round" stroke-linejoin="round"/>
<path d="M18.3461 24.4267C15.2128 24.6534 15.2128 29.1867 18.3461 29.4133H25.7594C26.6528 29.4133 27.5328 29.08 28.1861 28.48C30.3861 26.56 29.2127 22.72 26.3194 22.36C25.2794 16.1067 16.2395 18.48 18.3728 24.44" stroke="white" stroke-width="1.5" stroke-miterlimit="10" stroke-linecap="round" stroke-linejoin="round"/>
</svg>
