<svg width="152" height="64" viewBox="0 0 152 64" fill="none" xmlns="http://www.w3.org/2000/svg">
<path d="M71.49 40.3C70.05 40.3 68.8167 39.9867 67.79 39.36C66.7633 38.7267 65.9733 37.8467 65.42 36.72C64.8733 35.5933 64.6 34.2867 64.6 32.8C64.6 31.3133 64.8733 30.0067 65.42 28.88C65.9733 27.7533 66.7633 26.8767 67.79 26.25C68.8167 25.6167 70.05 25.3 71.49 25.3C73.15 25.3 74.5333 25.7167 75.64 26.55C76.7467 27.3767 77.5233 28.4933 77.97 29.9L75.54 30.57C75.26 29.63 74.7833 28.8967 74.11 28.37C73.4367 27.8367 72.5633 27.57 71.49 27.57C70.5233 27.57 69.7167 27.7867 69.07 28.22C68.43 28.6533 67.9467 29.2633 67.62 30.05C67.3 30.83 67.1367 31.7467 67.13 32.8C67.13 33.8533 67.29 34.7733 67.61 35.56C67.9367 36.34 68.4233 36.9467 69.07 37.38C69.7167 37.8133 70.5233 38.03 71.49 38.03C72.5633 38.03 73.4367 37.7633 74.11 37.23C74.7833 36.6967 75.26 35.9633 75.54 35.03L77.97 35.7C77.5233 37.1067 76.7467 38.2267 75.64 39.06C74.5333 39.8867 73.15 40.3 71.49 40.3ZM87.6356 40V34.8C87.6356 34.46 87.6123 34.0833 87.5656 33.67C87.519 33.2567 87.409 32.86 87.2356 32.48C87.069 32.0933 86.8156 31.7767 86.4756 31.53C86.1423 31.2833 85.689 31.16 85.1156 31.16C84.809 31.16 84.5056 31.21 84.2056 31.31C83.9056 31.41 83.6323 31.5833 83.3856 31.83C83.1456 32.07 82.9523 32.4033 82.8056 32.83C82.659 33.25 82.5856 33.79 82.5856 34.45L81.1556 33.84C81.1556 32.92 81.3323 32.0867 81.6856 31.34C82.0456 30.5933 82.5723 30 83.2656 29.56C83.959 29.1133 84.8123 28.89 85.8256 28.89C86.6256 28.89 87.2856 29.0233 87.8056 29.29C88.3256 29.5567 88.739 29.8967 89.0456 30.31C89.3523 30.7233 89.579 31.1633 89.7256 31.63C89.8723 32.0967 89.9656 32.54 90.0056 32.96C90.0523 33.3733 90.0756 33.71 90.0756 33.97V40H87.6356ZM80.1456 40V25.6H82.2956V33.18H82.5856V40H80.1456ZM96.7352 40.31C95.9352 40.31 95.2752 40.1767 94.7552 39.91C94.2352 39.6433 93.8218 39.3033 93.5152 38.89C93.2085 38.4767 92.9818 38.0367 92.8352 37.57C92.6885 37.1033 92.5918 36.6633 92.5452 36.25C92.5052 35.83 92.4852 35.49 92.4852 35.23V29.2H94.9252V34.4C94.9252 34.7333 94.9485 35.11 94.9952 35.53C95.0418 35.9433 95.1485 36.3433 95.3152 36.73C95.4885 37.11 95.7418 37.4233 96.0752 37.67C96.4152 37.9167 96.8718 38.04 97.4452 38.04C97.7518 38.04 98.0552 37.99 98.3552 37.89C98.6552 37.79 98.9252 37.62 99.1652 37.38C99.4118 37.1333 99.6085 36.7967 99.7552 36.37C99.9018 35.9433 99.9752 35.4033 99.9752 34.75L101.405 35.36C101.405 36.28 101.225 37.1133 100.865 37.86C100.512 38.6067 99.9885 39.2033 99.2952 39.65C98.6018 40.09 97.7485 40.31 96.7352 40.31ZM100.265 40V36.65H99.9752V29.2H102.395V40H100.265ZM112.675 40V34.8C112.675 34.46 112.651 34.0833 112.605 33.67C112.558 33.2567 112.448 32.86 112.275 32.48C112.108 32.0933 111.855 31.7767 111.515 31.53C111.181 31.2833 110.728 31.16 110.155 31.16C109.848 31.16 109.545 31.21 109.245 31.31C108.945 31.41 108.671 31.5833 108.425 31.83C108.185 32.07 107.991 32.4033 107.845 32.83C107.698 33.25 107.625 33.79 107.625 34.45L106.195 33.84C106.195 32.92 106.371 32.0867 106.725 31.34C107.085 30.5933 107.611 30 108.305 29.56C108.998 29.1133 109.851 28.89 110.865 28.89C111.665 28.89 112.325 29.0233 112.845 29.29C113.365 29.5567 113.778 29.8967 114.085 30.31C114.391 30.7233 114.618 31.1633 114.765 31.63C114.911 32.0967 115.005 32.54 115.045 32.96C115.091 33.3733 115.115 33.71 115.115 33.97V40H112.675ZM105.185 40V29.2H107.335V32.55H107.625V40H105.185ZM117.704 40L117.724 25.6H120.164V34.4L124.114 29.2H127.124L122.934 34.6L127.484 40H124.294L120.164 34.8V40H117.704ZM134.466 40V37.62H128.086V35.37L132.696 25.6H135.446L130.836 35.37H134.466V31.62H136.906V35.37H138.256V37.62H136.906V40H134.466ZM144.796 25.32C145.736 25.32 146.583 25.5433 147.336 25.99C148.089 26.43 148.683 27.0433 149.116 27.83C149.556 28.61 149.776 29.51 149.776 30.53V34.92C149.776 36.0067 149.556 36.9567 149.116 37.77C148.683 38.5767 148.073 39.2 147.286 39.64C146.499 40.08 145.579 40.3 144.526 40.3C143.799 40.3 143.113 40.1767 142.466 39.93C141.819 39.6767 141.239 39.29 140.726 38.77L142.456 37.08C142.716 37.38 143.026 37.6167 143.386 37.79C143.753 37.9567 144.133 38.04 144.526 38.04C145.086 38.04 145.576 37.91 145.996 37.65C146.416 37.3833 146.743 37.04 146.976 36.62C147.209 36.1933 147.326 35.7367 147.326 35.25V32.86L147.756 33.34C147.349 33.82 146.856 34.1967 146.276 34.47C145.696 34.7367 145.086 34.87 144.446 34.87C143.546 34.87 142.746 34.6633 142.046 34.25C141.353 33.8367 140.806 33.2767 140.406 32.57C140.013 31.8567 139.816 31.05 139.816 30.15C139.816 29.25 140.043 28.4367 140.496 27.71C140.949 26.9767 141.553 26.3967 142.306 25.97C143.066 25.5367 143.896 25.32 144.796 25.32ZM144.796 27.62C144.329 27.62 143.903 27.7333 143.516 27.96C143.129 28.1867 142.823 28.4933 142.596 28.88C142.369 29.26 142.256 29.6833 142.256 30.15C142.256 30.6167 142.366 31.0433 142.586 31.43C142.813 31.8167 143.116 32.1233 143.496 32.35C143.883 32.5767 144.309 32.69 144.776 32.69C145.243 32.69 145.669 32.5767 146.056 32.35C146.443 32.1233 146.749 31.8167 146.976 31.43C147.209 31.0433 147.326 30.6167 147.326 30.15C147.326 29.6967 147.213 29.28 146.986 28.9C146.759 28.5133 146.453 28.2033 146.066 27.97C145.686 27.7367 145.263 27.62 144.796 27.62Z" fill="white"/>
<path d="M54.6274 54.6274C50.0798 59.1751 44.2673 62.2469 37.9481 63.4423C31.6288 64.6378 25.0959 63.9014 19.2014 61.3291C13.3068 58.7568 8.32414 54.4681 4.90303 49.0222C1.48192 43.5762 -0.218833 37.2258 0.0225458 30.799C0.263924 24.3722 2.43623 18.1672 6.25621 12.9932C10.0762 7.81926 15.3665 3.91637 21.4374 1.79351C27.5083 -0.329353 34.078 -0.573672 40.2898 1.09241C46.5016 2.75849 52.0672 6.25766 56.261 11.1336L48.7431 17.5996C45.8489 14.2346 42.0079 11.8197 37.721 10.6699C33.4341 9.5201 28.9002 9.68871 24.7105 11.1537C20.5208 12.6188 16.8698 15.3123 14.2336 18.883C11.5973 22.4536 10.0981 26.7358 9.93156 31.1712C9.76498 35.6065 10.9387 39.989 13.2997 43.7474C15.6607 47.5058 19.0994 50.4656 23.1674 52.2407C27.2353 54.0159 31.7438 54.5241 36.1049 53.6991C40.466 52.8741 44.4773 50.7542 47.6157 47.6157L54.6274 54.6274Z" fill="white"/>
<path d="M20.6333 43.3667C22.9178 45.6512 25.8376 47.1944 29.0121 47.7949C32.1866 48.3954 35.4683 48.0255 38.4294 46.7333C41.3905 45.4411 43.8936 43.2867 45.6122 40.551C47.3308 37.8152 48.1851 34.6251 48.0639 31.3966C47.9426 28.1681 46.8514 25.0511 44.9324 22.4519C43.0135 19.8528 40.3559 17.8922 37.3062 16.8258C34.2565 15.7594 30.9562 15.6366 27.8357 16.4736C24.7152 17.3105 21.9194 19.0683 19.8126 21.5177L24.4668 25.5207C25.769 24.0066 27.4972 22.9201 29.426 22.4028C31.3548 21.8854 33.3948 21.9613 35.2799 22.6205C37.165 23.2796 38.8077 24.4915 39.9938 26.0981C41.18 27.7047 41.8545 29.6314 41.9294 31.627C42.0044 33.6226 41.4763 35.5945 40.414 37.2855C39.3517 38.9765 37.8045 40.3082 35.9742 41.1069C34.1439 41.9056 32.1153 42.1343 30.1531 41.7631C28.1909 41.3919 26.3861 40.4381 24.974 39.026L20.6333 43.3667Z" fill="white"/>
</svg>
