<svg width="64" height="64" viewBox="0 0 64 64" fill="none" xmlns="http://www.w3.org/2000/svg">
<path d="M54.6274 54.6274C50.0798 59.1751 44.2673 62.2469 37.9481 63.4423C31.6288 64.6378 25.0959 63.9014 19.2014 61.3291C13.3068 58.7568 8.32414 54.4681 4.90303 49.0222C1.48192 43.5762 -0.218833 37.2258 0.0225458 30.799C0.263924 24.3722 2.43623 18.1672 6.25621 12.9932C10.0762 7.81926 15.3665 3.91637 21.4374 1.79351C27.5083 -0.329353 34.078 -0.573672 40.2898 1.09241C46.5016 2.75849 52.0672 6.25766 56.261 11.1336L48.7431 17.5996C45.8489 14.2346 42.0079 11.8197 37.721 10.6699C33.4341 9.5201 28.9002 9.68871 24.7105 11.1537C20.5208 12.6188 16.8698 15.3123 14.2336 18.883C11.5973 22.4536 10.0981 26.7358 9.93156 31.1712C9.76498 35.6065 10.9387 39.989 13.2997 43.7474C15.6607 47.5058 19.0994 50.4656 23.1674 52.2407C27.2353 54.0159 31.7438 54.5241 36.1049 53.6991C40.466 52.8741 44.4773 50.7542 47.6157 47.6157L54.6274 54.6274Z" fill="#372092"/>
<path d="M20.6333 43.3667C22.9178 45.6512 25.8376 47.1944 29.0121 47.7949C32.1866 48.3954 35.4683 48.0255 38.4294 46.7333C41.3905 45.4411 43.8936 43.2867 45.6122 40.551C47.3308 37.8152 48.1851 34.6251 48.0639 31.3966C47.9426 28.1681 46.8514 25.0511 44.9324 22.4519C43.0135 19.8528 40.3559 17.8922 37.3062 16.8258C34.2565 15.7594 30.9562 15.6366 27.8357 16.4736C24.7152 17.3105 21.9194 19.0683 19.8126 21.5177L24.4668 25.5207C25.769 24.0066 27.4972 22.9201 29.426 22.4028C31.3548 21.8854 33.3948 21.9613 35.2799 22.6205C37.165 23.2796 38.8077 24.4915 39.9938 26.0981C41.18 27.7047 41.8545 29.6314 41.9294 31.627C42.0044 33.6226 41.4763 35.5945 40.414 37.2855C39.3517 38.9765 37.8045 40.3082 35.9742 41.1069C34.1439 41.9056 32.1153 42.1343 30.1531 41.7631C28.1909 41.3919 26.3861 40.4381 24.974 39.026L20.6333 43.3667Z" fill="#F55353"/>
</svg>
