<svg width="77" height="72" viewBox="0 0 77 72" fill="none" xmlns="http://www.w3.org/2000/svg">
<path d="M65.0408 61.4558C59.6262 66.572 52.7058 70.0278 45.1819 71.3726C37.658 72.7175 29.8799 71.889 22.8617 68.9952C15.8435 66.1014 9.91093 61.2766 5.83767 55.1499C1.76441 49.0233 -0.260548 41.879 0.0268436 34.6489C0.314235 27.4187 2.90064 20.4381 7.4488 14.6174C11.997 8.79666 18.2958 4.40591 25.5239 2.0177C32.7521 -0.370522 40.5741 -0.645381 47.9701 1.22896C55.366 3.1033 61.9926 7.03987 66.9857 12.5253L58.0347 19.7995C54.5888 16.0139 50.0157 13.2972 44.9116 12.0036C39.8075 10.7101 34.4093 10.8998 29.4209 12.548C24.4326 14.1961 20.0856 17.2263 16.9468 21.2433C13.808 25.2604 12.0231 30.0778 11.8248 35.0675C11.6264 40.0573 13.0239 44.9877 15.835 49.2159C18.646 53.444 22.7402 56.7738 27.5836 58.7708C32.4271 60.7679 37.795 61.3397 42.9874 60.4115C48.1798 59.4834 52.9558 57.0985 56.6925 53.5677L65.0408 61.4558Z" fill="#113559"/>
<path d="M24.5664 48.7875C27.2864 51.3575 30.7629 53.0935 34.5425 53.7691C38.3221 54.4447 42.2294 54.0285 45.755 52.5749C49.2806 51.1212 52.2608 48.6974 54.307 45.6197C56.3532 42.542 57.3704 38.9531 57.226 35.3211C57.0816 31.689 55.7824 28.1823 53.4976 25.2583C51.2129 22.3343 48.0487 20.1286 44.4176 18.9289C40.7866 17.7292 36.8572 17.5911 33.1419 18.5326C29.4266 19.4742 26.0977 21.4517 23.5894 24.2073L29.1307 28.7106C30.6812 27.0073 32.7388 25.785 35.0353 25.203C37.3318 24.621 39.7607 24.7063 42.0051 25.4479C44.2495 26.1895 46.2054 27.5528 47.6176 29.3602C49.0299 31.1677 49.833 33.3352 49.9222 35.5802C50.0114 37.8253 49.3827 40.0437 48.1179 41.9461C46.8531 43.8485 45.011 45.3466 42.8317 46.2452C40.6525 47.1437 38.2373 47.401 35.9011 46.9834C33.5648 46.5658 31.4159 45.4927 29.7347 43.9041L24.5664 48.7875Z" fill="#F55353"/>
</svg>
