<svg width="32" height="32" viewBox="0 0 32 32" fill="none" xmlns="http://www.w3.org/2000/svg">
<path d="M22.667 24.5736H17.3337L11.4003 28.5203C10.5203 29.1069 9.33366 28.4803 9.33366 27.4137V24.5736C5.33366 24.5736 2.66699 21.907 2.66699 17.907V9.9069C2.66699 5.9069 5.33366 3.24023 9.33366 3.24023H22.667C26.667 3.24023 29.3337 5.9069 29.3337 9.9069V17.907C29.3337 21.907 26.667 24.5736 22.667 24.5736Z" stroke="white" stroke-width="1.5" stroke-miterlimit="10" stroke-linecap="round" stroke-linejoin="round"/>
<path d="M16.0004 15.1465V14.8665C16.0004 13.9599 16.5604 13.4798 17.1204 13.0932C17.6671 12.7198 18.2137 12.2399 18.2137 11.3599C18.2137 10.1332 17.2271 9.14648 16.0004 9.14648C14.7737 9.14648 13.7871 10.1332 13.7871 11.3599" stroke="white" stroke-width="1.5" stroke-linecap="round" stroke-linejoin="round"/>
<path d="M15.9937 18.3332H16.0057" stroke="white" stroke-width="1.5" stroke-linecap="round" stroke-linejoin="round"/>
</svg>
