<svg width="24" height="23" viewBox="0 0 24 23" fill="none" xmlns="http://www.w3.org/2000/svg">
<path d="M0.799805 3.49981C0.799805 1.73249 2.23249 0.299805 3.9998 0.299805H17.4057C18.2544 0.299805 19.0683 0.636946 19.6684 1.23706L22.2625 3.83118C22.8627 4.43129 23.1998 5.24522 23.1998 6.09392V19.4998C23.1998 21.2671 21.7671 22.6998 19.9998 22.6998H3.99981C2.23249 22.6998 0.799805 21.2671 0.799805 19.4998V3.49981ZM3.9998 1.8998C3.11615 1.8998 2.3998 2.61615 2.3998 3.49981V19.4998C2.3998 20.3835 3.11615 21.0998 3.99981 21.0998L3.9998 13.8998C3.9998 12.5743 5.07432 11.4998 6.3998 11.4998H17.5998C18.9253 11.4998 19.9998 12.5743 19.9998 13.8998V21.0998C20.8835 21.0998 21.5998 20.3835 21.5998 19.4998V6.09392C21.5998 5.66957 21.4312 5.26261 21.1312 4.96255L18.5371 2.36843C18.237 2.06838 17.83 1.8998 17.4057 1.8998L16.7998 1.8998V5.8998C16.7998 7.22529 15.7253 8.2998 14.3998 8.2998L7.9998 8.29981C6.67432 8.29981 5.5998 7.22529 5.5998 5.89981L5.5998 1.8998H3.9998ZM7.1998 1.8998L7.19981 5.89981C7.19981 6.34163 7.55798 6.69981 7.99981 6.69981L14.3998 6.6998C14.8416 6.6998 15.1998 6.34163 15.1998 5.8998V1.8998L7.1998 1.8998ZM18.3998 21.0998V13.8998C18.3998 13.458 18.0416 13.0998 17.5998 13.0998H6.3998C5.95798 13.0998 5.5998 13.458 5.5998 13.8998V21.0998H18.3998Z" fill="#333333"/>
</svg>
