<svg width="32" height="32" viewBox="0 0 32 32" fill="none" xmlns="http://www.w3.org/2000/svg">
<path d="M16 20C18.2091 20 20 18.2091 20 16C20 13.7909 18.2091 12 16 12C13.7909 12 12 13.7909 12 16C12 18.2091 13.7909 20 16 20Z" stroke="white" stroke-width="1.5" stroke-miterlimit="10" stroke-linecap="round" stroke-linejoin="round"/>
<path d="M2.66699 17.1736V14.8269C2.66699 13.4402 3.80033 12.2936 5.20033 12.2936C7.61366 12.2936 8.60033 10.5869 7.38699 8.49357C6.69366 7.29357 7.10699 5.73357 8.32033 5.04024L10.627 3.72024C11.6803 3.09357 13.0403 3.46691 13.667 4.52024L13.8137 4.77357C15.0137 6.86691 16.987 6.86691 18.2003 4.77357L18.347 4.52024C18.9737 3.46691 20.3337 3.09357 21.387 3.72024L23.6937 5.04024C24.907 5.73357 25.3203 7.29357 24.627 8.49357C23.4137 10.5869 24.4003 12.2936 26.8137 12.2936C28.2003 12.2936 29.347 13.4269 29.347 14.8269V17.1736C29.347 18.5602 28.2137 19.7069 26.8137 19.7069C24.4003 19.7069 23.4137 21.4136 24.627 23.5069C25.3203 24.7202 24.907 26.2669 23.6937 26.9602L21.387 28.2802C20.3337 28.9069 18.9737 28.5336 18.347 27.4802L18.2003 27.2269C17.0003 25.1336 15.027 25.1336 13.8137 27.2269L13.667 27.4802C13.0403 28.5336 11.6803 28.9069 10.627 28.2802L8.32033 26.9602C7.10699 26.2669 6.69366 24.7069 7.38699 23.5069C8.60033 21.4136 7.61366 19.7069 5.20033 19.7069C3.80033 19.7069 2.66699 18.5602 2.66699 17.1736Z" stroke="white" stroke-width="1.5" stroke-miterlimit="10" stroke-linecap="round" stroke-linejoin="round"/>
</svg>
