<svg width="105" height="113" viewBox="0 0 105 113" fill="none" xmlns="http://www.w3.org/2000/svg">
<path d="M24.3176 16.4764C24.3176 7.63183 31.4875 0.461914 40.332 0.461914H69.0442C72.2297 0.461914 75.2847 1.72734 77.5371 3.9798L100.872 27.3146C103.124 29.567 104.39 32.622 104.39 35.8075V96.5486C104.39 105.393 97.2199 112.563 88.3753 112.563H61.6559C64.8838 110.29 67.7926 107.594 70.3017 104.556H88.3753C92.7976 104.556 96.3826 100.971 96.3826 96.5486V40.498H76.3645C69.7311 40.498 64.3537 35.1206 64.3537 28.4872V8.46913H40.332C35.9097 8.46913 32.3248 12.0541 32.3248 16.4764V32.6703C29.575 32.9181 26.8981 33.4187 24.3176 34.1486V16.4764ZM76.3645 32.4908H94.7242L72.3609 10.1275V28.4872C72.3609 30.6983 74.1534 32.4908 76.3645 32.4908ZM36.3284 112.563C56.2286 112.563 72.3609 96.4307 72.3609 76.5305C72.3609 56.6303 56.2286 40.498 36.3284 40.498C16.4282 40.498 0.295898 56.6303 0.295898 76.5305C0.295898 96.4307 16.4282 112.563 36.3284 112.563ZM55.1738 73.6995C56.7373 75.263 56.7373 77.798 55.1738 79.3615C53.6103 80.925 51.0754 80.925 49.5119 79.3615L40.332 70.1816V92.5449C40.332 94.7561 38.5395 96.5486 36.3284 96.5486C34.1173 96.5486 32.3248 94.7561 32.3248 92.5449L32.3248 70.1816L23.1449 79.3615C21.5814 80.925 19.0465 80.925 17.483 79.3615C15.9195 77.798 15.9195 75.263 17.483 73.6995L33.4974 57.6851C33.8813 57.3012 34.3237 57.0116 34.7959 56.8162C35.261 56.6234 35.7703 56.5157 36.3044 56.5125L36.3284 56.5125L36.3524 56.5125C36.8865 56.5157 37.3958 56.6234 37.8609 56.8162C38.3261 57.0087 38.7625 57.2927 39.1423 57.6682L39.1626 57.6883L55.1738 73.6995Z" fill="#372092"/>
</svg>
