<svg width="22" height="23" viewBox="0 0 22 23" fill="none" xmlns="http://www.w3.org/2000/svg">
<path d="M5.39961 3.49981C5.39961 1.73249 6.8323 0.299805 8.59961 0.299805H14.3369C14.9734 0.299805 15.5838 0.552661 16.0339 1.00275L20.6967 5.66549C21.1468 6.11558 21.3996 6.72603 21.3996 7.36255V19.4998C21.3996 21.2671 19.9669 22.6998 18.1996 22.6998H12.8605C13.5055 22.2456 14.0868 21.7069 14.5882 21.0998H18.1996C19.0833 21.0998 19.7996 20.3835 19.7996 19.4998V8.2998H15.7996C14.4741 8.2998 13.3996 7.22529 13.3996 5.8998V1.8998H8.59961C7.71595 1.8998 6.99961 2.61615 6.99961 3.49981V6.73568C6.45015 6.78519 5.91526 6.88521 5.39961 7.03106V3.49981ZM15.7996 6.6998H19.4682L14.9996 2.23118V5.8998C14.9996 6.34163 15.3578 6.6998 15.7996 6.6998ZM7.79961 22.6998C11.7761 22.6998 14.9996 19.4763 14.9996 15.4998C14.9996 11.5234 11.7761 8.2998 7.79961 8.2998C3.82316 8.2998 0.599609 11.5234 0.599609 15.4998C0.599609 19.4763 3.82316 22.6998 7.79961 22.6998ZM11.5653 14.9341C11.8777 15.2465 11.8777 15.7531 11.5653 16.0655C11.2529 16.3779 10.7463 16.3779 10.4339 16.0655L8.59961 14.2312V18.6998C8.59961 19.1416 8.24144 19.4998 7.79961 19.4998C7.35778 19.4998 6.99961 19.1416 6.99961 18.6998L6.99961 14.2312L5.1653 16.0655C4.85288 16.3779 4.34634 16.3779 4.03392 16.0655C3.7215 15.7531 3.7215 15.2465 4.03392 14.9341L7.23392 11.7341C7.31063 11.6574 7.39903 11.5995 7.49338 11.5605C7.58632 11.522 7.68809 11.5004 7.79481 11.4998L7.79961 11.4998L7.80441 11.4998C7.91113 11.5004 8.0129 11.522 8.10584 11.5605C8.1988 11.599 8.28598 11.6557 8.36189 11.7307L8.36593 11.7348L11.5653 14.9341Z" fill="#FFFCEE"/>
</svg>
