<svg width="32" height="33" viewBox="0 0 32 33" fill="none" xmlns="http://www.w3.org/2000/svg">
<path d="M16 0C7.16337 0 0 7.25012 0 16.1937C0 25.1373 7.16337 32.3874 16 32.3874C24.8366 32.3874 32 25.1373 32 16.1937C31.9999 7.25012 24.8364 0 16 0ZM11.7311 24.0226H8.21819V12.5359H11.7311V24.0226ZM9.95793 11.0316C8.81063 11.0316 7.88055 10.0825 7.88055 8.91206C7.88055 7.74144 8.81076 6.79248 9.95793 6.79248C11.1051 6.79248 12.0352 7.74144 12.0352 8.91206C12.0352 10.0826 11.1052 11.0316 9.95793 11.0316ZM24.8959 24.0226H21.4V17.993C21.4 16.3393 20.7794 15.4162 19.4873 15.4162C18.0812 15.4162 17.3466 16.3776 17.3466 17.993V24.0226H13.9773V12.5359H17.3466V14.0829C17.3466 14.0829 18.3601 12.1855 20.7666 12.1855C23.1732 12.1855 24.896 13.6727 24.896 16.7494L24.8959 24.0226Z" fill="white"/>
</svg>
