<svg width="32" height="33" viewBox="0 0 32 33" fill="none" xmlns="http://www.w3.org/2000/svg">
<path d="M15.998 0C7.16401 0 9.23295e-06 7.43384 9.23295e-06 16.6042C-0.00360001 20.0845 1.05104 23.478 3.01487 26.305C4.9787 29.1321 7.75242 31.2497 10.944 32.3587C11.744 32.5117 12.036 31.999 12.036 31.5587C12.036 31.1638 12.022 30.1199 12.014 28.7348C7.56401 29.7374 6.62401 26.5084 6.62401 26.5084C5.89801 24.59 4.84801 24.0794 4.84801 24.0794C3.39401 23.0499 4.95601 23.0705 4.95601 23.0705C6.56201 23.1884 7.406 24.7822 7.406 24.7822C8.834 27.3188 11.152 26.5869 12.064 26.1611C12.208 25.0882 12.622 24.3564 13.08 23.9409C9.528 23.5212 5.79201 22.0969 5.79201 15.7359C5.79201 13.9229 6.41601 12.4407 7.44 11.2789C7.274 10.8593 6.72601 9.17033 7.596 6.88602C7.596 6.88602 8.94 6.43949 11.996 8.58737C13.3015 8.2186 14.6486 8.0309 16.002 8.02921C17.3554 8.03199 18.7025 8.22038 20.008 8.58944C23.062 6.44156 24.404 6.88809 24.404 6.88809C25.276 9.17447 24.728 10.8613 24.564 11.281C25.59 12.4428 26.208 13.925 26.208 15.738C26.208 22.1155 22.468 23.5191 18.904 23.9305C19.478 24.4432 19.99 25.4562 19.99 27.0045C19.99 29.2248 19.97 31.015 19.97 31.5587C19.97 32.0031 20.258 32.52 21.07 32.3566C24.2585 31.2451 27.0287 29.1266 28.9899 26.3002C30.951 23.4738 32.0039 20.0823 32 16.6042C32 7.43384 24.836 0 15.998 0Z" fill="white"/>
</svg>
